<ttFont>
<head>
    <!-- Most of this table will be recalculated by the compiler -->
    <tableVersion value="1.0"/>
    <fontRevision value="2.20299"/>
    <checkSumAdjustment value="0x5f0399a3"/>
    <magicNumber value="0x5f0f3cf5"/>
    <flags value="00000000 00011011"/>
    <unitsPerEm value="1000"/>
    <created value="Mon Dec 12 17:21:30 2016"/>
    <modified value="Mon Dec 12 11:51:36 2016"/>
    <xMin value="-194"/>
    <yMin value="-370"/>
    <xMax value="2295"/>
    <yMax value="935"/>
    <macStyle value="00000000 00000000"/>
    <lowestRecPPEM value="9"/>
    <fontDirectionHint value="2"/>
    <indexToLocFormat value="0"/>
    <glyphDataFormat value="0"/>
  </head>
    <TTGlyph name=".notdef" xMin="0" yMin="0" xMax="512" yMax="699">
      <contour>
        <pt x="0" y="699" on="1"/>
        <pt x="512" y="699" on="1"/>
        <pt x="512" y="0" on="1"/>
        <pt x="0" y="0" on="1"/>
      </contour>
      <contour>
        <pt x="410" y="640" on="1"/>
        <pt x="102" y="640" on="1"/>
        <pt x="256" y="409" on="1"/>
      </contour>
      <contour>
        <pt x="443" y="128" on="1"/>
        <pt x="443" y="570" on="1"/>
        <pt x="296" y="349" on="1"/>
      </contour>
      <contour>
        <pt x="410" y="59" on="1"/>
        <pt x="256" y="289" on="1"/>
        <pt x="102" y="59" on="1"/>
      </contour>
      <contour>
        <pt x="69" y="128" on="1"/>
        <pt x="216" y="349" on="1"/>
        <pt x="69" y="570" on="1"/>
      </contour>
    </TTGlyph>
    <TTGlyph name="A" xMin="7" yMin="0" xMax="610" yMax="630">
      <contour>
        <pt x="219" y="246" on="1"/>
        <pt x="394" y="246" on="1"/>
        <pt x="361" y="339" on="1"/>
        <pt x="347" y="381" on="0"/>
        <pt x="322" y="455" on="0"/>
        <pt x="309" y="499" on="1"/>
        <pt x="307" y="499" on="1"/>
        <pt x="293" y="458" on="0"/>
        <pt x="267" y="381" on="0"/>
        <pt x="252" y="339" on="1"/>
      </contour>
      <contour>
        <pt x="249" y="630" on="1"/>
        <pt x="371" y="630" on="1"/>
        <pt x="610" y="0" on="1"/>
        <pt x="481" y="0" on="1"/>
        <pt x="425" y="155" on="1"/>
        <pt x="190" y="155" on="1"/>
        <pt x="134" y="0" on="1"/>
        <pt x="7" y="0" on="1"/>
      </contour>
    </TTGlyph>
    <TTGlyph name="AE" xMin="9" yMin="0" xMax="779" yMax="630">
      <contour>
        <pt x="328" y="630" on="1"/>
        <pt x="776" y="630" on="1"/>
        <pt x="776" y="534" on="1"/>
        <pt x="523" y="534" on="1"/>
        <pt x="523" y="375" on="1"/>
        <pt x="750" y="375" on="1"/>
        <pt x="750" y="280" on="1"/>
        <pt x="523" y="280" on="1"/>
        <pt x="523" y="96" on="1"/>
        <pt x="779" y="96" on="1"/>
        <pt x="779" y="0" on="1"/>
        <pt x="403" y="0" on="1"/>
        <pt x="403" y="157" on="1"/>
        <pt x="224" y="157" on="1"/>
        <pt x="148" y="0" on="1"/>
        <pt x="9" y="0" on="1"/>
      </contour>
      <contour>
        <pt x="403" y="541" on="1"/>
        <pt x="264" y="250" on="1"/>
        <pt x="403" y="250" on="1"/>
      </contour>
    </TTGlyph>
    <TTGlyph name="AEacute" xMin="9" yMin="0" xMax="779" yMax="824">
      <contour>
        <pt x="328" y="630" on="1"/>
        <pt x="776" y="630" on="1"/>
        <pt x="776" y="534" on="1"/>
        <pt x="523" y="534" on="1"/>
        <pt x="523" y="375" on="1"/>
        <pt x="750" y="375" on="1"/>
        <pt x="750" y="280" on="1"/>
        <pt x="523" y="280" on="1"/>
        <pt x="523" y="96" on="1"/>
        <pt x="779" y="96" on="1"/>
        <pt x="779" y="0" on="1"/>
        <pt x="403" y="0" on="1"/>
        <pt x="403" y="157" on="1"/>
        <pt x="224" y="157" on="1"/>
        <pt x="148" y="0" on="1"/>
        <pt x="9" y="0" on="1"/>
      </contour>
      <contour>
        <pt x="403" y="541" on="1"/>
        <pt x="264" y="250" on="1"/>
        <pt x="403" y="250" on="1"/>
      </contour>
      <contour>
        <pt x="452" y="700" on="1"/>
        <pt x="355" y="700" on="1"/>
        <pt x="435" y="824" on="1"/>
        <pt x="566" y="824" on="1"/>
      </contour>
    </TTGlyph>
    <TTGlyph name="Aacute" xMin="7" yMin="0" xMax="610" yMax="824">
      <contour>
        <pt x="355" y="700" on="1"/>
        <pt x="258" y="700" on="1"/>
        <pt x="338" y="824" on="1"/>
        <pt x="469" y="824" on="1"/>
      </contour>
      <contour>
        <pt x="219" y="246" on="1"/>
        <pt x="394" y="246" on="1"/>
        <pt x="361" y="339" on="1"/>
        <pt x="347" y="381" on="0"/>
        <pt x="322" y="455" on="0"/>
        <pt x="309" y="499" on="1"/>
        <pt x="307" y="499" on="1"/>
        <pt x="293" y="458" on="0"/>
        <pt x="267" y="381" on="0"/>
        <pt x="252" y="339" on="1"/>
      </contour>
      <contour>
        <pt x="249" y="630" on="1"/>
        <pt x="371" y="630" on="1"/>
        <pt x="610" y="0" on="1"/>
        <pt x="481" y="0" on="1"/>
        <pt x="425" y="155" on="1"/>
        <pt x="190" y="155" on="1"/>
        <pt x="134" y="0" on="1"/>
        <pt x="7" y="0" on="1"/>
      </contour>
    </TTGlyph>
    <TTGlyph name="Aaytam.tm" xMin="14" yMin="-18" xMax="638" yMax="542">
      <contour>
        <pt x="328" y="542" on="1"/>
        <pt x="358" y="542" on="0"/>
        <pt x="409" y="522" on="0"/>
        <pt x="447" y="486" on="0"/>
        <pt x="468" y="436" on="0"/>
        <pt x="468" y="406" on="1"/>
        <pt x="468" y="373" on="0"/>
        <pt x="443" y="323" on="0"/>
        <pt x="403" y="289" on="0"/>
        <pt x="352" y="272" on="0"/>
        <pt x="325" y="272" on="1"/>
        <pt x="298" y="272" on="0"/>
        <pt x="247" y="289" on="0"/>
        <pt x="207" y="322" on="0"/>
        <pt x="182" y="373" on="0"/>
        <pt x="182" y="406" on="1"/>
        <pt x="182" y="467" on="0"/>
        <pt x="262" y="542" on="0"/>
      </contour>
      <contour>
        <pt x="324" y="464" on="1"/>
        <pt x="301" y="464" on="0"/>
        <pt x="274" y="433" on="0"/>
        <pt x="274" y="406" on="1"/>
        <pt x="274" y="378" on="0"/>
        <pt x="304" y="349" on="0"/>
        <pt x="327" y="349" on="1"/>
        <pt x="350" y="349" on="0"/>
        <pt x="378" y="380" on="0"/>
        <pt x="378" y="406" on="1"/>
        <pt x="378" y="435" on="0"/>
        <pt x="347" y="464" on="0"/>
      </contour>
      <contour>
        <pt x="159" y="253" on="1"/>
        <pt x="189" y="253" on="0"/>
        <pt x="240" y="233" on="0"/>
        <pt x="277" y="198" on="0"/>
        <pt x="299" y="148" on="0"/>
        <pt x="299" y="118" on="1"/>
        <pt x="299" y="88" on="0"/>
        <pt x="277" y="38" on="0"/>
        <pt x="238" y="2" on="0"/>
        <pt x="186" y="-18" on="0"/>
        <pt x="155" y="-18" on="1"/>
        <pt x="124" y="-18" on="0"/>
        <pt x="72" y="2" on="0"/>
        <pt x="35" y="38" on="0"/>
        <pt x="14" y="88" on="0"/>
        <pt x="14" y="118" on="1"/>
        <pt x="14" y="148" on="0"/>
        <pt x="35" y="198" on="0"/>
        <pt x="73" y="233" on="0"/>
        <pt x="126" y="253" on="0"/>
      </contour>
      <contour>
        <pt x="155" y="175" on="1"/>
        <pt x="132" y="175" on="0"/>
        <pt x="105" y="144" on="0"/>
        <pt x="105" y="118" on="1"/>
        <pt x="105" y="89" on="0"/>
        <pt x="135" y="61" on="0"/>
        <pt x="158" y="61" on="1"/>
        <pt x="181" y="61" on="0"/>
        <pt x="208" y="92" on="0"/>
        <pt x="208" y="118" on="1"/>
        <pt x="208" y="147" on="0"/>
        <pt x="178" y="175" on="0"/>
      </contour>
      <contour>
        <pt x="498" y="255" on="1"/>
        <pt x="528" y="255" on="0"/>
        <pt x="579" y="235" on="0"/>
        <pt x="617" y="199" on="0"/>
        <pt x="638" y="148" on="0"/>
        <pt x="638" y="118" on="1"/>
        <pt x="638" y="88" on="0"/>
        <pt x="616" y="38" on="0"/>
        <pt x="578" y="2" on="0"/>
        <pt x="525" y="-18" on="0"/>
        <pt x="494" y="-18" on="1"/>
        <pt x="463" y="-18" on="0"/>
        <pt x="411" y="2" on="0"/>
        <pt x="373" y="38" on="0"/>
        <pt x="352" y="88" on="0"/>
        <pt x="352" y="118" on="1"/>
        <pt x="352" y="179" on="0"/>
        <pt x="432" y="255" on="0"/>
      </contour>
      <contour>
        <pt x="494" y="176" on="1"/>
        <pt x="471" y="176" on="0"/>
        <pt x="444" y="145" on="0"/>
        <pt x="444" y="118" on="1"/>
        <pt x="444" y="90" on="0"/>
        <pt x="474" y="61" on="0"/>
        <pt x="497" y="61" on="1"/>
        <pt x="519" y="61" on="0"/>
        <pt x="547" y="92" on="0"/>
        <pt x="547" y="118" on="1"/>
        <pt x="547" y="147" on="0"/>
        <pt x="517" y="176" on="0"/>
      </contour>
    </TTGlyph>
    <TTGlyph name="Abreve" xMin="7" yMin="0" xMax="610" yMax="824">
      <contour>
        <pt x="245" y="824" on="1"/>
        <pt x="247" y="796" on="0"/>
        <pt x="274" y="764" on="0"/>
        <pt x="308" y="764" on="1"/>
        <pt x="364" y="764" on="0"/>
        <pt x="369" y="824" on="1"/>
        <pt x="441" y="824" on="1"/>
        <pt x="441" y="766" on="0"/>
        <pt x="372" y="697" on="0"/>
        <pt x="307" y="697" on="1"/>
        <pt x="271" y="697" on="0"/>
        <pt x="220" y="718" on="0"/>
        <pt x="187" y="753" on="0"/>
        <pt x="172" y="799" on="0"/>
        <pt x="172" y="824" on="1"/>
      </contour>
      <contour>
        <pt x="219" y="246" on="1"/>
        <pt x="394" y="246" on="1"/>
        <pt x="361" y="339" on="1"/>
        <pt x="347" y="381" on="0"/>
        <pt x="322" y="455" on="0"/>
        <pt x="309" y="499" on="1"/>
        <pt x="307" y="499" on="1"/>
        <pt x="293" y="458" on="0"/>
        <pt x="267" y="381" on="0"/>
        <pt x="252" y="339" on="1"/>
      </contour>
      <contour>
        <pt x="249" y="630" on="1"/>
        <pt x="371" y="630" on="1"/>
        <pt x="610" y="0" on="1"/>
        <pt x="481" y="0" on="1"/>
        <pt x="425" y="155" on="1"/>
        <pt x="190" y="155" on="1"/>
        <pt x="134" y="0" on="1"/>
        <pt x="7" y="0" on="1"/>
      </contour>
    </TTGlyph>
    <TTGlyph name="Acircumflex" xMin="7" yMin="0" xMax="610" yMax="829">
      <contour>
        <pt x="263" y="829" on="1"/>
        <pt x="352" y="829" on="1"/>
        <pt x="472" y="700" on="1"/>
        <pt x="377" y="700" on="1"/>
        <pt x="307" y="774" on="1"/>
        <pt x="237" y="700" on="1"/>
        <pt x="146" y="700" on="1"/>
      </contour>
      <contour>
        <pt x="219" y="246" on="1"/>
        <pt x="394" y="246" on="1"/>
        <pt x="361" y="339" on="1"/>
        <pt x="347" y="381" on="0"/>
        <pt x="322" y="455" on="0"/>
        <pt x="309" y="499" on="1"/>
        <pt x="307" y="499" on="1"/>
        <pt x="293" y="458" on="0"/>
        <pt x="267" y="381" on="0"/>
        <pt x="252" y="339" on="1"/>
      </contour>
      <contour>
        <pt x="249" y="630" on="1"/>
        <pt x="371" y="630" on="1"/>
        <pt x="610" y="0" on="1"/>
        <pt x="481" y="0" on="1"/>
        <pt x="425" y="155" on="1"/>
        <pt x="190" y="155" on="1"/>
        <pt x="134" y="0" on="1"/>
        <pt x="7" y="0" on="1"/>
      </contour>
    </TTGlyph>
    <TTGlyph name="Adieresis" xMin="7" yMin="0" xMax="610" yMax="812">
      <contour>
        <pt x="156" y="754" on="1"/>
        <pt x="156" y="777" on="0"/>
        <pt x="191" y="812" on="0"/>
        <pt x="215" y="812" on="1"/>
        <pt x="240" y="812" on="0"/>
        <pt x="274" y="777" on="0"/>
        <pt x="274" y="754" on="1"/>
        <pt x="274" y="729" on="0"/>
        <pt x="240" y="694" on="0"/>
        <pt x="215" y="694" on="1"/>
        <pt x="191" y="694" on="0"/>
        <pt x="156" y="729" on="0"/>
      </contour>
      <contour>
        <pt x="342" y="754" on="1"/>
        <pt x="342" y="777" on="0"/>
        <pt x="376" y="812" on="0"/>
        <pt x="401" y="812" on="1"/>
        <pt x="425" y="812" on="0"/>
        <pt x="459" y="777" on="0"/>
        <pt x="459" y="754" on="1"/>
        <pt x="459" y="729" on="0"/>
        <pt x="425" y="694" on="0"/>
        <pt x="401" y="694" on="1"/>
        <pt x="376" y="694" on="0"/>
        <pt x="342" y="729" on="0"/>
      </contour>
      <contour>
        <pt x="219" y="246" on="1"/>
        <pt x="394" y="246" on="1"/>
        <pt x="361" y="339" on="1"/>
        <pt x="347" y="381" on="0"/>
        <pt x="322" y="455" on="0"/>
        <pt x="309" y="499" on="1"/>
        <pt x="307" y="499" on="1"/>
        <pt x="293" y="458" on="0"/>
        <pt x="267" y="381" on="0"/>
        <pt x="252" y="339" on="1"/>
      </contour>
      <contour>
        <pt x="249" y="630" on="1"/>
        <pt x="371" y="630" on="1"/>
        <pt x="610" y="0" on="1"/>
        <pt x="481" y="0" on="1"/>
        <pt x="425" y="155" on="1"/>
        <pt x="190" y="155" on="1"/>
        <pt x="134" y="0" on="1"/>
        <pt x="7" y="0" on="1"/>
      </contour>
    </TTGlyph>
    <TTGlyph name="Agrave" xMin="7" yMin="0" xMax="610" yMax="824">
      <contour>
        <pt x="150" y="824" on="1"/>
        <pt x="280" y="824" on="1"/>
        <pt x="360" y="700" on="1"/>
        <pt x="263" y="700" on="1"/>
      </contour>
      <contour>
        <pt x="219" y="246" on="1"/>
        <pt x="394" y="246" on="1"/>
        <pt x="361" y="339" on="1"/>
        <pt x="347" y="381" on="0"/>
        <pt x="322" y="455" on="0"/>
        <pt x="309" y="499" on="1"/>
        <pt x="307" y="499" on="1"/>
        <pt x="293" y="458" on="0"/>
        <pt x="267" y="381" on="0"/>
        <pt x="252" y="339" on="1"/>
      </contour>
      <contour>
        <pt x="249" y="630" on="1"/>
        <pt x="371" y="630" on="1"/>
        <pt x="610" y="0" on="1"/>
        <pt x="481" y="0" on="1"/>
        <pt x="425" y="155" on="1"/>
        <pt x="190" y="155" on="1"/>
        <pt x="134" y="0" on="1"/>
        <pt x="7" y="0" on="1"/>
      </contour>
    </TTGlyph>
    <TTGlyph name="Amacron" xMin="7" yMin="0" xMax="610" yMax="772">
      <contour>
        <pt x="433" y="772" on="1"/>
        <pt x="433" y="700" on="1"/>
        <pt x="181" y="700" on="1"/>
        <pt x="181" y="772" on="1"/>
      </contour>
      <contour>
        <pt x="219" y="246" on="1"/>
        <pt x="394" y="246" on="1"/>
        <pt x="361" y="339" on="1"/>
        <pt x="347" y="381" on="0"/>
        <pt x="322" y="455" on="0"/>
        <pt x="309" y="499" on="1"/>
        <pt x="307" y="499" on="1"/>
        <pt x="293" y="458" on="0"/>
        <pt x="267" y="381" on="0"/>
        <pt x="252" y="339" on="1"/>
      </contour>
      <contour>
        <pt x="249" y="630" on="1"/>
        <pt x="371" y="630" on="1"/>
        <pt x="610" y="0" on="1"/>
        <pt x="481" y="0" on="1"/>
        <pt x="425" y="155" on="1"/>
        <pt x="190" y="155" on="1"/>
        <pt x="134" y="0" on="1"/>
        <pt x="7" y="0" on="1"/>
      </contour>
    </TTGlyph>
    <TTGlyph name="Anusvara.tm" xMin="2" yMin="525" xMax="288" yMax="795">
      <contour>
        <pt x="148" y="795" on="1"/>
        <pt x="178" y="795" on="0"/>
        <pt x="229" y="775" on="0"/>
        <pt x="267" y="739" on="0"/>
        <pt x="288" y="689" on="0"/>
        <pt x="288" y="659" on="1"/>
        <pt x="288" y="626" on="0"/>
        <pt x="264" y="576" on="0"/>
        <pt x="223" y="542" on="0"/>
        <pt x="172" y="525" on="0"/>
        <pt x="145" y="525" on="1"/>
        <pt x="118" y="525" on="0"/>
        <pt x="67" y="542" on="0"/>
        <pt x="27" y="575" on="0"/>
        <pt x="2" y="626" on="0"/>
        <pt x="2" y="659" on="1"/>
        <pt x="2" y="720" on="0"/>
        <pt x="82" y="795" on="0"/>
      </contour>
      <contour>
        <pt x="144" y="717" on="1"/>
        <pt x="121" y="717" on="0"/>
        <pt x="94" y="686" on="0"/>
        <pt x="94" y="659" on="1"/>
        <pt x="94" y="631" on="0"/>
        <pt x="124" y="602" on="0"/>
        <pt x="147" y="602" on="1"/>
        <pt x="170" y="602" on="0"/>
        <pt x="198" y="633" on="0"/>
        <pt x="198" y="659" on="1"/>
        <pt x="198" y="688" on="0"/>
        <pt x="167" y="717" on="0"/>
      </contour>
    </TTGlyph>
    <TTGlyph name="Aogonek" xMin="7" yMin="-206" xMax="613" yMax="630">
      <contour>
        <pt x="249" y="630" on="1"/>
        <pt x="371" y="630" on="1"/>
        <pt x="610" y="0" on="1"/>
        <pt x="572" y="0" on="1"/>
        <pt x="504" y="-39" on="0"/>
        <pt x="504" y="-85" on="1"/>
        <pt x="504" y="-107" on="0"/>
        <pt x="530" y="-131" on="0"/>
        <pt x="552" y="-131" on="1"/>
        <pt x="577" y="-131" on="0"/>
        <pt x="596" y="-123" on="1"/>
        <pt x="613" y="-185" on="1"/>
        <pt x="596" y="-195" on="0"/>
        <pt x="553" y="-206" on="0"/>
        <pt x="529" y="-206" on="1"/>
        <pt x="483" y="-206" on="0"/>
        <pt x="422" y="-154" on="0"/>
        <pt x="422" y="-107" on="1"/>
        <pt x="422" y="-69" on="0"/>
        <pt x="458" y="-17" on="0"/>
        <pt x="481" y="0" on="1"/>
        <pt x="425" y="155" on="1"/>
        <pt x="190" y="155" on="1"/>
        <pt x="134" y="0" on="1"/>
        <pt x="7" y="0" on="1"/>
      </contour>
      <contour>
        <pt x="219" y="246" on="1"/>
        <pt x="394" y="246" on="1"/>
        <pt x="361" y="339" on="1"/>
        <pt x="347" y="381" on="0"/>
        <pt x="322" y="455" on="0"/>
        <pt x="309" y="499" on="1"/>
        <pt x="307" y="499" on="1"/>
        <pt x="293" y="458" on="0"/>
        <pt x="267" y="381" on="0"/>
        <pt x="252" y="339" on="1"/>
      </contour>
    </TTGlyph>
    <TTGlyph name="Aring" xMin="7" yMin="0" xMax="610" yMax="849">
      <contour>
        <pt x="206" y="761" on="1"/>
        <pt x="206" y="806" on="0"/>
        <pt x="264" y="849" on="0"/>
        <pt x="308" y="849" on="1"/>
        <pt x="353" y="849" on="0"/>
        <pt x="410" y="806" on="0"/>
        <pt x="410" y="761" on="1"/>
        <pt x="410" y="738" on="0"/>
        <pt x="393" y="705" on="0"/>
        <pt x="365" y="684" on="0"/>
        <pt x="328" y="673" on="0"/>
        <pt x="308" y="673" on="1"/>
        <pt x="266" y="673" on="0"/>
        <pt x="206" y="718" on="0"/>
      </contour>
      <contour>
        <pt x="265" y="761" on="1"/>
        <pt x="265" y="739" on="0"/>
        <pt x="288" y="714" on="0"/>
        <pt x="308" y="714" on="1"/>
        <pt x="328" y="714" on="0"/>
        <pt x="351" y="739" on="0"/>
        <pt x="351" y="761" on="1"/>
        <pt x="351" y="783" on="0"/>
        <pt x="328" y="808" on="0"/>
        <pt x="308" y="808" on="1"/>
        <pt x="288" y="808" on="0"/>
        <pt x="265" y="783" on="0"/>
      </contour>
      <contour>
        <pt x="219" y="246" on="1"/>
        <pt x="394" y="246" on="1"/>
        <pt x="361" y="339" on="1"/>
        <pt x="347" y="381" on="0"/>
        <pt x="322" y="455" on="0"/>
        <pt x="309" y="499" on="1"/>
        <pt x="307" y="499" on="1"/>
        <pt x="293" y="458" on="0"/>
        <pt x="267" y="381" on="0"/>
        <pt x="252" y="339" on="1"/>
      </contour>
      <contour>
        <pt x="249" y="630" on="1"/>
        <pt x="371" y="630" on="1"/>
        <pt x="610" y="0" on="1"/>
        <pt x="481" y="0" on="1"/>
        <pt x="425" y="155" on="1"/>
        <pt x="190" y="155" on="1"/>
        <pt x="134" y="0" on="1"/>
        <pt x="7" y="0" on="1"/>
      </contour>
    </TTGlyph>
    <TTGlyph name="AsAboveSign.tm" xMin="32" yMin="-209" xMax="1781" yMax="736">
      <contour>
        <pt x="934" y="150" on="1"/>
        <pt x="934" y="174" on="0"/>
        <pt x="912" y="214" on="0"/>
        <pt x="878" y="251" on="0"/>
        <pt x="834" y="287" on="0"/>
        <pt x="813" y="307" on="1"/>
        <pt x="789" y="260" on="0"/>
        <pt x="789" y="188" on="1"/>
        <pt x="789" y="133" on="0"/>
        <pt x="835" y="78" on="0"/>
        <pt x="867" y="78" on="1"/>
        <pt x="898" y="78" on="0"/>
        <pt x="934" y="115" on="0"/>
      </contour>
      <contour>
        <pt x="366" y="179" on="1"/>
        <pt x="366" y="143" on="0"/>
        <pt x="416" y="88" on="0"/>
        <pt x="452" y="80" on="1"/>
        <pt x="481" y="89" on="0"/>
        <pt x="518" y="142" on="0"/>
        <pt x="518" y="176" on="1"/>
        <pt x="518" y="216" on="0"/>
        <pt x="473" y="259" on="0"/>
        <pt x="442" y="259" on="1"/>
        <pt x="409" y="259" on="0"/>
        <pt x="366" y="215" on="0"/>
      </contour>
      <contour>
        <pt x="1142" y="0" on="1"/>
        <pt x="1114" y="64" on="1"/>
        <pt x="1160" y="130" on="0"/>
        <pt x="1160" y="230" on="1"/>
        <pt x="1160" y="272" on="0"/>
        <pt x="1135" y="341" on="0"/>
        <pt x="1089" y="391" on="0"/>
        <pt x="1022" y="419" on="0"/>
        <pt x="979" y="419" on="1"/>
        <pt x="944" y="419" on="0"/>
        <pt x="886" y="398" on="0"/>
        <pt x="866" y="380" on="1"/>
        <pt x="894" y="354" on="0"/>
        <pt x="955" y="308" on="0"/>
        <pt x="1006" y="255" on="0"/>
        <pt x="1039" y="192" on="0"/>
        <pt x="1039" y="149" on="1"/>
        <pt x="1039" y="112" on="0"/>
        <pt x="1013" y="53" on="0"/>
        <pt x="966" y="13" on="0"/>
        <pt x="902" y="-9" on="0"/>
        <pt x="865" y="-9" on="1"/>
        <pt x="827" y="-9" on="0"/>
        <pt x="762" y="17" on="0"/>
        <pt x="713" y="67" on="0"/>
        <pt x="685" y="141" on="0"/>
        <pt x="685" y="189" on="1"/>
        <pt x="685" y="248" on="0"/>
        <pt x="719" y="342" on="0"/>
        <pt x="742" y="373" on="1"/>
        <pt x="728" y="391" on="0"/>
        <pt x="696" y="441" on="0"/>
        <pt x="670" y="479" on="1"/>
        <pt x="650" y="507" on="0"/>
        <pt x="603" y="567" on="0"/>
        <pt x="542" y="615" on="0"/>
        <pt x="462" y="646" on="0"/>
        <pt x="411" y="646" on="1"/>
        <pt x="353" y="646" on="0"/>
        <pt x="255" y="604" on="0"/>
        <pt x="183" y="527" on="0"/>
        <pt x="143" y="418" on="0"/>
        <pt x="143" y="351" on="1"/>
        <pt x="143" y="290" on="0"/>
        <pt x="177" y="189" on="0"/>
        <pt x="235" y="114" on="0"/>
        <pt x="313" y="69" on="0"/>
        <pt x="357" y="65" on="1"/>
        <pt x="323" y="79" on="0"/>
        <pt x="272" y="145" on="0"/>
        <pt x="272" y="192" on="1"/>
        <pt x="272" y="224" on="0"/>
        <pt x="296" y="281" on="0"/>
        <pt x="341" y="323" on="0"/>
        <pt x="405" y="348" on="0"/>
        <pt x="444" y="348" on="1"/>
        <pt x="480" y="348" on="0"/>
        <pt x="544" y="324" on="0"/>
        <pt x="592" y="279" on="0"/>
        <pt x="620" y="217" on="0"/>
        <pt x="620" y="178" on="1"/>
        <pt x="620" y="134" on="0"/>
        <pt x="583" y="65" on="0"/>
        <pt x="518" y="15" on="0"/>
        <pt x="432" y="-11" on="0"/>
        <pt x="383" y="-11" on="1"/>
        <pt x="307" y="-11" on="0"/>
        <pt x="179" y="41" on="0"/>
        <pt x="85" y="136" on="0"/>
        <pt x="32" y="269" on="0"/>
        <pt x="32" y="350" on="1"/>
        <pt x="32" y="433" on="0"/>
        <pt x="86" y="574" on="0"/>
        <pt x="186" y="678" on="0"/>
        <pt x="327" y="736" on="0"/>
        <pt x="413" y="736" on="1"/>
        <pt x="485" y="736" on="0"/>
        <pt x="595" y="693" on="0"/>
        <pt x="678" y="628" on="0"/>
        <pt x="736" y="552" on="0"/>
        <pt x="757" y="520" on="1"/>
        <pt x="773" y="495" on="0"/>
        <pt x="794" y="460" on="0"/>
        <pt x="806" y="443" on="1"/>
        <pt x="839" y="472" on="0"/>
        <pt x="931" y="509" on="0"/>
        <pt x="985" y="509" on="1"/>
        <pt x="1046" y="509" on="0"/>
        <pt x="1150" y="470" on="0"/>
        <pt x="1227" y="399" on="0"/>
        <pt x="1271" y="299" on="0"/>
        <pt x="1271" y="239" on="1"/>
        <pt x="1271" y="188" on="0"/>
        <pt x="1250" y="111" on="0"/>
        <pt x="1237" y="86" on="1"/>
        <pt x="1427" y="86" on="1"/>
        <pt x="1489" y="220" on="1"/>
        <pt x="1411" y="224" on="0"/>
        <pt x="1322" y="303" on="0"/>
        <pt x="1322" y="363" on="1"/>
        <pt x="1322" y="394" on="0"/>
        <pt x="1345" y="447" on="0"/>
        <pt x="1387" y="486" on="0"/>
        <pt x="1445" y="507" on="0"/>
        <pt x="1480" y="507" on="1"/>
        <pt x="1515" y="507" on="0"/>
        <pt x="1573" y="486" on="0"/>
        <pt x="1615" y="448" on="0"/>
        <pt x="1638" y="397" on="0"/>
        <pt x="1638" y="367" on="1"/>
        <pt x="1638" y="350" on="0"/>
        <pt x="1629" y="315" on="0"/>
        <pt x="1622" y="298" on="1"/>
        <pt x="1693" y="293" on="0"/>
        <pt x="1781" y="222" on="0"/>
        <pt x="1781" y="155" on="1"/>
        <pt x="1781" y="85" on="0"/>
        <pt x="1676" y="0" on="0"/>
        <pt x="1581" y="0" on="1"/>
        <pt x="1493" y="0" on="1"/>
        <pt x="1396" y="-209" on="1"/>
        <pt x="1309" y="-177" on="1"/>
        <pt x="1391" y="0" on="1"/>
      </contour>
      <contour>
        <pt x="1590" y="221" on="1"/>
        <pt x="1528" y="85" on="1"/>
        <pt x="1582" y="85" on="1"/>
        <pt x="1629" y="85" on="0"/>
        <pt x="1674" y="126" on="0"/>
        <pt x="1674" y="157" on="1"/>
        <pt x="1674" y="189" on="0"/>
        <pt x="1632" y="221" on="0"/>
        <pt x="1596" y="221" on="1"/>
      </contour>
      <contour>
        <pt x="1422" y="365" on="1"/>
        <pt x="1422" y="332" on="0"/>
        <pt x="1474" y="298" on="0"/>
        <pt x="1512" y="298" on="1"/>
        <pt x="1519" y="298" on="1"/>
        <pt x="1538" y="331" on="0"/>
        <pt x="1538" y="362" on="1"/>
        <pt x="1538" y="386" on="0"/>
        <pt x="1506" y="421" on="0"/>
        <pt x="1479" y="421" on="1"/>
        <pt x="1453" y="421" on="0"/>
        <pt x="1422" y="391" on="0"/>
      </contour>
    </TTGlyph>
    <TTGlyph name="Asmall" xMin="9" yMin="0" xMax="490" yMax="475">
      <contour>
        <pt x="190" y="191" on="1"/>
        <pt x="306" y="191" on="1"/>
        <pt x="282" y="259" on="1"/>
        <pt x="274" y="284" on="0"/>
        <pt x="256" y="338" on="0"/>
        <pt x="250" y="361" on="1"/>
        <pt x="248" y="361" on="1"/>
        <pt x="242" y="338" on="0"/>
        <pt x="224" y="284" on="0"/>
        <pt x="215" y="259" on="1"/>
      </contour>
      <contour>
        <pt x="187" y="475" on="1"/>
        <pt x="310" y="475" on="1"/>
        <pt x="490" y="0" on="1"/>
        <pt x="371" y="0" on="1"/>
        <pt x="333" y="108" on="1"/>
        <pt x="164" y="108" on="1"/>
        <pt x="125" y="0" on="1"/>
        <pt x="9" y="0" on="1"/>
      </contour>
    </TTGlyph>
    <TTGlyph name="Atilde" xMin="7" yMin="0" xMax="610" yMax="818">
      <contour>
        <pt x="154" y="700" on="1"/>
        <pt x="154" y="748" on="0"/>
        <pt x="199" y="815" on="0"/>
        <pt x="244" y="815" on="1"/>
        <pt x="263" y="815" on="0"/>
        <pt x="294" y="803" on="0"/>
        <pt x="322" y="789" on="0"/>
        <pt x="348" y="777" on="0"/>
        <pt x="363" y="777" on="1"/>
        <pt x="380" y="777" on="0"/>
        <pt x="396" y="801" on="0"/>
        <pt x="397" y="818" on="1"/>
        <pt x="457" y="818" on="1"/>
        <pt x="457" y="770" on="0"/>
        <pt x="413" y="704" on="0"/>
        <pt x="372" y="704" on="1"/>
        <pt x="352" y="704" on="0"/>
        <pt x="316" y="716" on="0"/>
        <pt x="286" y="729" on="0"/>
        <pt x="260" y="741" on="0"/>
        <pt x="249" y="741" on="1"/>
        <pt x="230" y="741" on="0"/>
        <pt x="216" y="717" on="0"/>
        <pt x="214" y="700" on="1"/>
      </contour>
      <contour>
        <pt x="219" y="246" on="1"/>
        <pt x="394" y="246" on="1"/>
        <pt x="361" y="339" on="1"/>
        <pt x="347" y="381" on="0"/>
        <pt x="322" y="455" on="0"/>
        <pt x="309" y="499" on="1"/>
        <pt x="307" y="499" on="1"/>
        <pt x="293" y="458" on="0"/>
        <pt x="267" y="381" on="0"/>
        <pt x="252" y="339" on="1"/>
      </contour>
      <contour>
        <pt x="249" y="630" on="1"/>
        <pt x="371" y="630" on="1"/>
        <pt x="610" y="0" on="1"/>
        <pt x="481" y="0" on="1"/>
        <pt x="425" y="155" on="1"/>
        <pt x="190" y="155" on="1"/>
        <pt x="134" y="0" on="1"/>
        <pt x="7" y="0" on="1"/>
      </contour>
    </TTGlyph>
    <TTGlyph name="B" xMin="73" yMin="0" xMax="515" yMax="630">
      <contour>
        <pt x="286" y="630" on="1"/>
        <pt x="383" y="630" on="0"/>
        <pt x="496" y="545" on="0"/>
        <pt x="496" y="467" on="1"/>
        <pt x="496" y="438" on="0"/>
        <pt x="477" y="393" on="0"/>
        <pt x="445" y="360" on="0"/>
        <pt x="403" y="338" on="0"/>
        <pt x="381" y="332" on="1"/>
        <pt x="408" y="327" on="0"/>
        <pt x="457" y="303" on="0"/>
        <pt x="494" y="264" on="0"/>
        <pt x="515" y="211" on="0"/>
        <pt x="515" y="177" on="1"/>
        <pt x="515" y="138" on="0"/>
        <pt x="481" y="73" on="0"/>
        <pt x="419" y="26" on="0"/>
        <pt x="332" y="0" on="0"/>
        <pt x="280" y="0" on="1"/>
        <pt x="73" y="0" on="1"/>
        <pt x="73" y="630" on="1"/>
      </contour>
      <contour>
        <pt x="195" y="374" on="1"/>
        <pt x="263" y="374" on="1"/>
        <pt x="309" y="374" on="0"/>
        <pt x="371" y="413" on="0"/>
        <pt x="371" y="458" on="1"/>
        <pt x="371" y="497" on="0"/>
        <pt x="316" y="536" on="0"/>
        <pt x="267" y="536" on="1"/>
        <pt x="195" y="536" on="1"/>
      </contour>
      <contour>
        <pt x="195" y="94" on="1"/>
        <pt x="264" y="94" on="1"/>
        <pt x="290" y="94" on="0"/>
        <pt x="336" y="104" on="0"/>
        <pt x="370" y="126" on="0"/>
        <pt x="389" y="163" on="0"/>
        <pt x="389" y="189" on="1"/>
        <pt x="389" y="214" on="0"/>
        <pt x="367" y="249" on="0"/>
        <pt x="331" y="271" on="0"/>
        <pt x="283" y="281" on="0"/>
        <pt x="257" y="281" on="1"/>
        <pt x="195" y="281" on="1"/>
      </contour>
    </TTGlyph>
    <TTGlyph name="Bsmall" xMin="69" yMin="0" xMax="449" yMax="475">
      <contour>
        <pt x="263" y="475" on="1"/>
        <pt x="347" y="475" on="0"/>
        <pt x="428" y="407" on="0"/>
        <pt x="428" y="353" on="1"/>
        <pt x="428" y="315" on="0"/>
        <pt x="383" y="265" on="0"/>
        <pt x="346" y="253" on="1"/>
        <pt x="396" y="241" on="0"/>
        <pt x="449" y="182" on="0"/>
        <pt x="449" y="136" on="1"/>
        <pt x="449" y="78" on="0"/>
        <pt x="355" y="0" on="0"/>
        <pt x="262" y="0" on="1"/>
        <pt x="69" y="0" on="1"/>
        <pt x="69" y="475" on="1"/>
      </contour>
      <contour>
        <pt x="186" y="288" on="1"/>
        <pt x="239" y="288" on="1"/>
        <pt x="268" y="288" on="0"/>
        <pt x="308" y="311" on="0"/>
        <pt x="308" y="338" on="1"/>
        <pt x="308" y="361" on="0"/>
        <pt x="275" y="387" on="0"/>
        <pt x="237" y="387" on="1"/>
        <pt x="186" y="387" on="1"/>
      </contour>
      <contour>
        <pt x="186" y="88" on="1"/>
        <pt x="240" y="88" on="1"/>
        <pt x="283" y="88" on="0"/>
        <pt x="327" y="115" on="0"/>
        <pt x="327" y="147" on="1"/>
        <pt x="327" y="168" on="0"/>
        <pt x="294" y="202" on="0"/>
        <pt x="252" y="202" on="1"/>
        <pt x="186" y="202" on="1"/>
      </contour>
    </TTGlyph>
    <TTGlyph name="C" xMin="41" yMin="-10" xMax="537" yMax="640">
      <contour>
        <pt x="372" y="86" on="1"/>
        <pt x="419" y="86" on="0"/>
        <pt x="483" y="102" on="0"/>
        <pt x="509" y="116" on="1"/>
        <pt x="535" y="24" on="1"/>
        <pt x="507" y="10" on="0"/>
        <pt x="421" y="-10" on="0"/>
        <pt x="359" y="-10" on="1"/>
        <pt x="291" y="-10" on="0"/>
        <pt x="174" y="34" on="0"/>
        <pt x="89" y="117" on="0"/>
        <pt x="41" y="238" on="0"/>
        <pt x="41" y="315" on="1"/>
        <pt x="41" y="390" on="0"/>
        <pt x="87" y="511" on="0"/>
        <pt x="172" y="595" on="0"/>
        <pt x="290" y="640" on="0"/>
        <pt x="362" y="640" on="1"/>
        <pt x="426" y="640" on="0"/>
        <pt x="508" y="618" on="0"/>
        <pt x="537" y="603" on="1"/>
        <pt x="509" y="511" on="1"/>
        <pt x="479" y="526" on="0"/>
        <pt x="417" y="544" on="0"/>
        <pt x="376" y="544" on="1"/>
        <pt x="334" y="544" on="0"/>
        <pt x="259" y="519" on="0"/>
        <pt x="204" y="464" on="0"/>
        <pt x="171" y="377" on="0"/>
        <pt x="171" y="315" on="1"/>
        <pt x="171" y="255" on="0"/>
        <pt x="203" y="168" on="0"/>
        <pt x="257" y="112" on="0"/>
        <pt x="330" y="86" on="0"/>
      </contour>
    </TTGlyph>
    <TTGlyph name="Ca.tm" xMin="26" yMin="-9" xMax="597" yMax="501">
      <contour>
        <pt x="576" y="501" on="1"/>
        <pt x="576" y="419" on="1"/>
        <pt x="437" y="419" on="1"/>
        <pt x="437" y="300" on="1"/>
        <pt x="597" y="300" on="1"/>
        <pt x="597" y="219" on="1"/>
        <pt x="437" y="219" on="1"/>
        <pt x="437" y="157" on="1"/>
        <pt x="437" y="81" on="0"/>
        <pt x="334" y="-9" on="0"/>
        <pt x="237" y="-9" on="1"/>
        <pt x="191" y="-9" on="0"/>
        <pt x="114" y="14" on="0"/>
        <pt x="58" y="58" on="0"/>
        <pt x="26" y="120" on="0"/>
        <pt x="26" y="158" on="1"/>
        <pt x="26" y="185" on="0"/>
        <pt x="42" y="229" on="0"/>
        <pt x="69" y="264" on="0"/>
        <pt x="104" y="286" on="0"/>
        <pt x="123" y="290" on="1"/>
        <pt x="123" y="501" on="1"/>
      </contour>
      <contour>
        <pt x="208" y="219" on="1"/>
        <pt x="173" y="219" on="0"/>
        <pt x="131" y="186" on="0"/>
        <pt x="131" y="154" on="1"/>
        <pt x="131" y="119" on="0"/>
        <pt x="189" y="74" on="0"/>
        <pt x="239" y="74" on="1"/>
        <pt x="285" y="74" on="0"/>
        <pt x="337" y="121" on="0"/>
        <pt x="337" y="161" on="1"/>
        <pt x="337" y="219" on="1"/>
      </contour>
      <contour>
        <pt x="223" y="300" on="1"/>
        <pt x="338" y="300" on="1"/>
        <pt x="338" y="419" on="1"/>
        <pt x="223" y="419" on="1"/>
      </contour>
    </TTGlyph>
    <TTGlyph name="CaMatraI.tm" xMin="26" yMin="-9" xMax="789" yMax="762">
      <contour>
        <pt x="326" y="501" on="1"/>
        <pt x="315" y="534" on="0"/>
        <pt x="315" y="573" on="1"/>
        <pt x="315" y="615" on="0"/>
        <pt x="347" y="685" on="0"/>
        <pt x="405" y="734" on="0"/>
        <pt x="489" y="762" on="0"/>
        <pt x="542" y="762" on="1"/>
        <pt x="664" y="762" on="0"/>
        <pt x="789" y="621" on="0"/>
        <pt x="789" y="495" on="1"/>
        <pt x="789" y="0" on="1"/>
        <pt x="680" y="0" on="1"/>
        <pt x="680" y="491" on="1"/>
        <pt x="680" y="579" on="0"/>
        <pt x="610" y="671" on="0"/>
        <pt x="538" y="671" on="1"/>
        <pt x="481" y="671" on="0"/>
        <pt x="422" y="613" on="0"/>
        <pt x="422" y="563" on="1"/>
        <pt x="422" y="527" on="0"/>
        <pt x="432" y="501" on="1"/>
        <pt x="576" y="501" on="1"/>
        <pt x="576" y="419" on="1"/>
        <pt x="437" y="419" on="1"/>
        <pt x="437" y="300" on="1"/>
        <pt x="597" y="300" on="1"/>
        <pt x="597" y="219" on="1"/>
        <pt x="437" y="219" on="1"/>
        <pt x="437" y="157" on="1"/>
        <pt x="437" y="81" on="0"/>
        <pt x="334" y="-9" on="0"/>
        <pt x="237" y="-9" on="1"/>
        <pt x="191" y="-9" on="0"/>
        <pt x="114" y="14" on="0"/>
        <pt x="58" y="58" on="0"/>
        <pt x="26" y="120" on="0"/>
        <pt x="26" y="158" on="1"/>
        <pt x="26" y="185" on="0"/>
        <pt x="42" y="229" on="0"/>
        <pt x="69" y="264" on="0"/>
        <pt x="104" y="286" on="0"/>
        <pt x="123" y="290" on="1"/>
        <pt x="123" y="501" on="1"/>
      </contour>
      <contour>
        <pt x="208" y="219" on="1"/>
        <pt x="173" y="219" on="0"/>
        <pt x="131" y="186" on="0"/>
        <pt x="131" y="154" on="1"/>
        <pt x="131" y="119" on="0"/>
        <pt x="189" y="74" on="0"/>
        <pt x="239" y="74" on="1"/>
        <pt x="285" y="74" on="0"/>
        <pt x="337" y="121" on="0"/>
        <pt x="337" y="161" on="1"/>
        <pt x="337" y="219" on="1"/>
      </contour>
      <contour>
        <pt x="223" y="300" on="1"/>
        <pt x="338" y="300" on="1"/>
        <pt x="338" y="419" on="1"/>
        <pt x="223" y="419" on="1"/>
      </contour>
    </TTGlyph>
    <TTGlyph name="CaMatraIi.tm" xMin="26" yMin="-9" xMax="670" yMax="799">
      <contour>
        <pt x="499" y="799" on="1"/>
        <pt x="540" y="799" on="0"/>
        <pt x="604" y="779" on="0"/>
        <pt x="647" y="745" on="0"/>
        <pt x="670" y="699" on="0"/>
        <pt x="670" y="673" on="1"/>
        <pt x="670" y="621" on="0"/>
        <pt x="600" y="559" on="0"/>
        <pt x="546" y="559" on="1"/>
        <pt x="520" y="559" on="0"/>
        <pt x="478" y="575" on="0"/>
        <pt x="448" y="603" on="0"/>
        <pt x="431" y="641" on="0"/>
        <pt x="431" y="663" on="1"/>
        <pt x="431" y="704" on="0"/>
        <pt x="458" y="731" on="1"/>
        <pt x="424" y="723" on="0"/>
        <pt x="379" y="663" on="0"/>
        <pt x="379" y="616" on="1"/>
        <pt x="379" y="581" on="0"/>
        <pt x="407" y="520" on="0"/>
        <pt x="427" y="501" on="1"/>
        <pt x="576" y="501" on="1"/>
        <pt x="576" y="419" on="1"/>
        <pt x="437" y="419" on="1"/>
        <pt x="437" y="300" on="1"/>
        <pt x="597" y="300" on="1"/>
        <pt x="597" y="219" on="1"/>
        <pt x="437" y="219" on="1"/>
        <pt x="437" y="157" on="1"/>
        <pt x="437" y="81" on="0"/>
        <pt x="334" y="-9" on="0"/>
        <pt x="237" y="-9" on="1"/>
        <pt x="191" y="-9" on="0"/>
        <pt x="114" y="14" on="0"/>
        <pt x="58" y="58" on="0"/>
        <pt x="26" y="120" on="0"/>
        <pt x="26" y="158" on="1"/>
        <pt x="26" y="185" on="0"/>
        <pt x="42" y="229" on="0"/>
        <pt x="69" y="264" on="0"/>
        <pt x="104" y="286" on="0"/>
        <pt x="123" y="290" on="1"/>
        <pt x="123" y="501" on="1"/>
        <pt x="319" y="501" on="1"/>
        <pt x="301" y="524" on="0"/>
        <pt x="280" y="584" on="0"/>
        <pt x="280" y="615" on="1"/>
        <pt x="280" y="659" on="0"/>
        <pt x="314" y="727" on="0"/>
        <pt x="373" y="774" on="0"/>
        <pt x="453" y="799" on="0"/>
      </contour>
      <contour>
        <pt x="208" y="219" on="1"/>
        <pt x="173" y="219" on="0"/>
        <pt x="131" y="186" on="0"/>
        <pt x="131" y="154" on="1"/>
        <pt x="131" y="119" on="0"/>
        <pt x="189" y="74" on="0"/>
        <pt x="239" y="74" on="1"/>
        <pt x="285" y="74" on="0"/>
        <pt x="337" y="121" on="0"/>
        <pt x="337" y="161" on="1"/>
        <pt x="337" y="219" on="1"/>
      </contour>
      <contour>
        <pt x="223" y="300" on="1"/>
        <pt x="338" y="300" on="1"/>
        <pt x="338" y="419" on="1"/>
        <pt x="223" y="419" on="1"/>
      </contour>
      <contour>
        <pt x="591" y="675" on="1"/>
        <pt x="591" y="698" on="0"/>
        <pt x="561" y="726" on="0"/>
        <pt x="539" y="728" on="1"/>
        <pt x="523" y="721" on="0"/>
        <pt x="505" y="693" on="0"/>
        <pt x="505" y="675" on="1"/>
        <pt x="505" y="655" on="0"/>
        <pt x="530" y="631" on="0"/>
        <pt x="549" y="631" on="1"/>
        <pt x="566" y="631" on="0"/>
        <pt x="591" y="655" on="0"/>
      </contour>
    </TTGlyph>
    <TTGlyph name="CaMatraU.tm" xMin="26" yMin="-9" xMax="685" yMax="501">
      <contour>
        <pt x="588" y="501" on="1"/>
        <pt x="588" y="419" on="1"/>
        <pt x="437" y="419" on="1"/>
        <pt x="437" y="300" on="1"/>
        <pt x="685" y="300" on="1"/>
        <pt x="685" y="219" on="1"/>
        <pt x="619" y="219" on="1"/>
        <pt x="619" y="0" on="1"/>
        <pt x="519" y="0" on="1"/>
        <pt x="519" y="219" on="1"/>
        <pt x="437" y="219" on="1"/>
        <pt x="437" y="157" on="1"/>
        <pt x="437" y="81" on="0"/>
        <pt x="334" y="-9" on="0"/>
        <pt x="237" y="-9" on="1"/>
        <pt x="191" y="-9" on="0"/>
        <pt x="114" y="14" on="0"/>
        <pt x="58" y="58" on="0"/>
        <pt x="26" y="120" on="0"/>
        <pt x="26" y="158" on="1"/>
        <pt x="26" y="185" on="0"/>
        <pt x="42" y="229" on="0"/>
        <pt x="69" y="264" on="0"/>
        <pt x="104" y="286" on="0"/>
        <pt x="123" y="290" on="1"/>
        <pt x="123" y="501" on="1"/>
      </contour>
      <contour>
        <pt x="208" y="219" on="1"/>
        <pt x="173" y="219" on="0"/>
        <pt x="131" y="186" on="0"/>
        <pt x="131" y="154" on="1"/>
        <pt x="131" y="119" on="0"/>
        <pt x="189" y="74" on="0"/>
        <pt x="239" y="74" on="1"/>
        <pt x="285" y="74" on="0"/>
        <pt x="337" y="121" on="0"/>
        <pt x="337" y="161" on="1"/>
        <pt x="337" y="219" on="1"/>
      </contour>
      <contour>
        <pt x="223" y="300" on="1"/>
        <pt x="338" y="300" on="1"/>
        <pt x="338" y="419" on="1"/>
        <pt x="223" y="419" on="1"/>
      </contour>
    </TTGlyph>
    <TTGlyph name="CaMatraUu.tm" xMin="37" yMin="-282" xMax="1075" yMax="512">
      <contour>
        <pt x="939" y="186" on="1"/>
        <pt x="969" y="186" on="0"/>
        <pt x="1019" y="163" on="0"/>
        <pt x="1055" y="122" on="0"/>
        <pt x="1075" y="65" on="0"/>
        <pt x="1075" y="32" on="1"/>
        <pt x="1075" y="-35" on="0"/>
        <pt x="1004" y="-150" on="0"/>
        <pt x="874" y="-234" on="0"/>
        <pt x="690" y="-282" on="0"/>
        <pt x="577" y="-282" on="1"/>
        <pt x="457" y="-282" on="0"/>
        <pt x="258" y="-221" on="0"/>
        <pt x="116" y="-108" on="0"/>
        <pt x="37" y="53" on="0"/>
        <pt x="37" y="152" on="1"/>
        <pt x="37" y="212" on="0"/>
        <pt x="61" y="318" on="0"/>
        <pt x="103" y="409" on="0"/>
        <pt x="161" y="483" on="0"/>
        <pt x="194" y="512" on="1"/>
        <pt x="267" y="448" on="1"/>
        <pt x="242" y="424" on="0"/>
        <pt x="197" y="364" on="0"/>
        <pt x="163" y="290" on="0"/>
        <pt x="143" y="203" on="0"/>
        <pt x="143" y="152" on="1"/>
        <pt x="143" y="74" on="0"/>
        <pt x="206" y="-53" on="0"/>
        <pt x="321" y="-143" on="0"/>
        <pt x="483" y="-193" on="0"/>
        <pt x="581" y="-193" on="1"/>
        <pt x="671" y="-193" on="0"/>
        <pt x="816" y="-159" on="0"/>
        <pt x="919" y="-98" on="0"/>
        <pt x="975" y="-16" on="0"/>
        <pt x="975" y="32" on="1"/>
        <pt x="975" y="65" on="0"/>
        <pt x="942" y="109" on="0"/>
        <pt x="910" y="109" on="1"/>
        <pt x="874" y="109" on="0"/>
        <pt x="852" y="73" on="1"/>
        <pt x="852" y="0" on="1"/>
        <pt x="754" y="0" on="1"/>
        <pt x="754" y="219" on="1"/>
        <pt x="673" y="219" on="1"/>
        <pt x="673" y="157" on="1"/>
        <pt x="673" y="81" on="0"/>
        <pt x="569" y="-9" on="0"/>
        <pt x="472" y="-9" on="1"/>
        <pt x="427" y="-9" on="0"/>
        <pt x="349" y="14" on="0"/>
        <pt x="293" y="58" on="0"/>
        <pt x="261" y="120" on="0"/>
        <pt x="261" y="158" on="1"/>
        <pt x="261" y="185" on="0"/>
        <pt x="277" y="229" on="0"/>
        <pt x="304" y="264" on="0"/>
        <pt x="339" y="286" on="0"/>
        <pt x="358" y="290" on="1"/>
        <pt x="358" y="501" on="1"/>
        <pt x="821" y="501" on="1"/>
        <pt x="821" y="419" on="1"/>
        <pt x="673" y="419" on="1"/>
        <pt x="673" y="300" on="1"/>
        <pt x="924" y="300" on="1"/>
        <pt x="924" y="223" on="1"/>
        <pt x="847" y="223" on="1"/>
        <pt x="847" y="152" on="1"/>
        <pt x="864" y="168" on="0"/>
        <pt x="911" y="186" on="0"/>
      </contour>
      <contour>
        <pt x="443" y="219" on="1"/>
        <pt x="408" y="219" on="0"/>
        <pt x="367" y="186" on="0"/>
        <pt x="367" y="154" on="1"/>
        <pt x="367" y="119" on="0"/>
        <pt x="424" y="74" on="0"/>
        <pt x="475" y="74" on="1"/>
        <pt x="521" y="74" on="0"/>
        <pt x="573" y="121" on="0"/>
        <pt x="573" y="161" on="1"/>
        <pt x="573" y="219" on="1"/>
      </contour>
      <contour>
        <pt x="458" y="300" on="1"/>
        <pt x="574" y="300" on="1"/>
        <pt x="574" y="419" on="1"/>
        <pt x="458" y="419" on="1"/>
      </contour>
    </TTGlyph>
    <TTGlyph name="CaPulli.tm" xMin="26" yMin="-9" xMax="597" yMax="714">
      <contour>
        <pt x="576" y="501" on="1"/>
        <pt x="576" y="419" on="1"/>
        <pt x="437" y="419" on="1"/>
        <pt x="437" y="300" on="1"/>
        <pt x="597" y="300" on="1"/>
        <pt x="597" y="219" on="1"/>
        <pt x="437" y="219" on="1"/>
        <pt x="437" y="157" on="1"/>
        <pt x="437" y="81" on="0"/>
        <pt x="334" y="-9" on="0"/>
        <pt x="237" y="-9" on="1"/>
        <pt x="191" y="-9" on="0"/>
        <pt x="114" y="14" on="0"/>
        <pt x="58" y="58" on="0"/>
        <pt x="26" y="120" on="0"/>
        <pt x="26" y="158" on="1"/>
        <pt x="26" y="185" on="0"/>
        <pt x="42" y="229" on="0"/>
        <pt x="69" y="264" on="0"/>
        <pt x="104" y="286" on="0"/>
        <pt x="123" y="290" on="1"/>
        <pt x="123" y="501" on="1"/>
      </contour>
      <contour>
        <pt x="208" y="219" on="1"/>
        <pt x="173" y="219" on="0"/>
        <pt x="131" y="186" on="0"/>
        <pt x="131" y="154" on="1"/>
        <pt x="131" y="119" on="0"/>
        <pt x="189" y="74" on="0"/>
        <pt x="239" y="74" on="1"/>
        <pt x="285" y="74" on="0"/>
        <pt x="337" y="121" on="0"/>
        <pt x="337" y="161" on="1"/>
        <pt x="337" y="219" on="1"/>
      </contour>
      <contour>
        <pt x="310" y="714" on="1"/>
        <pt x="340" y="714" on="0"/>
        <pt x="379" y="676" on="0"/>
        <pt x="379" y="647" on="1"/>
        <pt x="379" y="618" on="0"/>
        <pt x="341" y="580" on="0"/>
        <pt x="312" y="580" on="1"/>
        <pt x="282" y="580" on="0"/>
        <pt x="244" y="618" on="0"/>
        <pt x="244" y="647" on="1"/>
        <pt x="244" y="676" on="0"/>
        <pt x="281" y="714" on="0"/>
      </contour>
      <contour>
        <pt x="223" y="300" on="1"/>
        <pt x="338" y="300" on="1"/>
        <pt x="338" y="419" on="1"/>
        <pt x="223" y="419" on="1"/>
      </contour>
    </TTGlyph>
    <TTGlyph name="Cacute" xMin="41" yMin="-10" xMax="537" yMax="824">
      <contour>
        <pt x="372" y="86" on="1"/>
        <pt x="419" y="86" on="0"/>
        <pt x="483" y="102" on="0"/>
        <pt x="509" y="116" on="1"/>
        <pt x="535" y="24" on="1"/>
        <pt x="507" y="10" on="0"/>
        <pt x="421" y="-10" on="0"/>
        <pt x="359" y="-10" on="1"/>
        <pt x="291" y="-10" on="0"/>
        <pt x="174" y="34" on="0"/>
        <pt x="89" y="117" on="0"/>
        <pt x="41" y="238" on="0"/>
        <pt x="41" y="315" on="1"/>
        <pt x="41" y="390" on="0"/>
        <pt x="87" y="511" on="0"/>
        <pt x="172" y="595" on="0"/>
        <pt x="290" y="640" on="0"/>
        <pt x="362" y="640" on="1"/>
        <pt x="426" y="640" on="0"/>
        <pt x="508" y="618" on="0"/>
        <pt x="537" y="603" on="1"/>
        <pt x="509" y="511" on="1"/>
        <pt x="479" y="526" on="0"/>
        <pt x="417" y="544" on="0"/>
        <pt x="376" y="544" on="1"/>
        <pt x="334" y="544" on="0"/>
        <pt x="259" y="519" on="0"/>
        <pt x="204" y="464" on="0"/>
        <pt x="171" y="377" on="0"/>
        <pt x="171" y="315" on="1"/>
        <pt x="171" y="255" on="0"/>
        <pt x="203" y="168" on="0"/>
        <pt x="257" y="112" on="0"/>
        <pt x="330" y="86" on="0"/>
      </contour>
      <contour>
        <pt x="344" y="700" on="1"/>
        <pt x="247" y="700" on="1"/>
        <pt x="327" y="824" on="1"/>
        <pt x="457" y="824" on="1"/>
      </contour>
    </TTGlyph>
    <TTGlyph name="Ccaron" xMin="41" yMin="-10" xMax="537" yMax="829">
      <contour>
        <pt x="372" y="86" on="1"/>
        <pt x="419" y="86" on="0"/>
        <pt x="483" y="102" on="0"/>
        <pt x="509" y="116" on="1"/>
        <pt x="535" y="24" on="1"/>
        <pt x="507" y="10" on="0"/>
        <pt x="421" y="-10" on="0"/>
        <pt x="359" y="-10" on="1"/>
        <pt x="291" y="-10" on="0"/>
        <pt x="174" y="34" on="0"/>
        <pt x="89" y="117" on="0"/>
        <pt x="41" y="238" on="0"/>
        <pt x="41" y="315" on="1"/>
        <pt x="41" y="390" on="0"/>
        <pt x="87" y="511" on="0"/>
        <pt x="172" y="595" on="0"/>
        <pt x="290" y="640" on="0"/>
        <pt x="362" y="640" on="1"/>
        <pt x="426" y="640" on="0"/>
        <pt x="508" y="618" on="0"/>
        <pt x="537" y="603" on="1"/>
        <pt x="509" y="511" on="1"/>
        <pt x="479" y="526" on="0"/>
        <pt x="417" y="544" on="0"/>
        <pt x="376" y="544" on="1"/>
        <pt x="334" y="544" on="0"/>
        <pt x="259" y="519" on="0"/>
        <pt x="204" y="464" on="0"/>
        <pt x="171" y="377" on="0"/>
        <pt x="171" y="315" on="1"/>
        <pt x="171" y="255" on="0"/>
        <pt x="203" y="168" on="0"/>
        <pt x="257" y="112" on="0"/>
        <pt x="330" y="86" on="0"/>
      </contour>
      <contour>
        <pt x="181" y="829" on="1"/>
        <pt x="276" y="829" on="1"/>
        <pt x="345" y="754" on="1"/>
        <pt x="415" y="829" on="1"/>
        <pt x="507" y="829" on="1"/>
        <pt x="389" y="700" on="1"/>
        <pt x="300" y="700" on="1"/>
      </contour>
    </TTGlyph>
    <TTGlyph name="Ccedilla" xMin="41" yMin="-215" xMax="537" yMax="640">
      <contour>
        <pt x="372" y="86" on="1"/>
        <pt x="419" y="86" on="0"/>
        <pt x="483" y="102" on="0"/>
        <pt x="509" y="116" on="1"/>
        <pt x="535" y="24" on="1"/>
        <pt x="508" y="10" on="0"/>
        <pt x="427" y="-9" on="0"/>
        <pt x="369" y="-10" on="1"/>
        <pt x="355" y="-47" on="1"/>
        <pt x="400" y="-50" on="0"/>
        <pt x="442" y="-96" on="0"/>
        <pt x="442" y="-125" on="1"/>
        <pt x="442" y="-169" on="0"/>
        <pt x="373" y="-215" on="0"/>
        <pt x="322" y="-215" on="1"/>
        <pt x="298" y="-215" on="0"/>
        <pt x="256" y="-206" on="0"/>
        <pt x="243" y="-201" on="1"/>
        <pt x="258" y="-151" on="1"/>
        <pt x="283" y="-160" on="0"/>
        <pt x="310" y="-160" on="1"/>
        <pt x="364" y="-160" on="0"/>
        <pt x="364" y="-122" on="1"/>
        <pt x="364" y="-113" on="0"/>
        <pt x="357" y="-97" on="0"/>
        <pt x="338" y="-85" on="0"/>
        <pt x="305" y="-78" on="0"/>
        <pt x="278" y="-78" on="1"/>
        <pt x="307" y="-7" on="1"/>
        <pt x="249" y="1" on="0"/>
        <pt x="151" y="51" on="0"/>
        <pt x="81" y="134" on="0"/>
        <pt x="41" y="246" on="0"/>
        <pt x="41" y="315" on="1"/>
        <pt x="41" y="390" on="0"/>
        <pt x="87" y="511" on="0"/>
        <pt x="172" y="595" on="0"/>
        <pt x="290" y="640" on="0"/>
        <pt x="362" y="640" on="1"/>
        <pt x="426" y="640" on="0"/>
        <pt x="508" y="618" on="0"/>
        <pt x="537" y="603" on="1"/>
        <pt x="509" y="511" on="1"/>
        <pt x="479" y="526" on="0"/>
        <pt x="417" y="544" on="0"/>
        <pt x="376" y="544" on="1"/>
        <pt x="334" y="544" on="0"/>
        <pt x="259" y="519" on="0"/>
        <pt x="204" y="464" on="0"/>
        <pt x="171" y="377" on="0"/>
        <pt x="171" y="315" on="1"/>
        <pt x="171" y="255" on="0"/>
        <pt x="203" y="168" on="0"/>
        <pt x="257" y="112" on="0"/>
        <pt x="330" y="86" on="0"/>
      </contour>
    </TTGlyph>
    <TTGlyph name="Ccircumflex" xMin="41" yMin="-10" xMax="537" yMax="829">
      <contour>
        <pt x="372" y="86" on="1"/>
        <pt x="419" y="86" on="0"/>
        <pt x="483" y="102" on="0"/>
        <pt x="509" y="116" on="1"/>
        <pt x="535" y="24" on="1"/>
        <pt x="507" y="10" on="0"/>
        <pt x="421" y="-10" on="0"/>
        <pt x="359" y="-10" on="1"/>
        <pt x="291" y="-10" on="0"/>
        <pt x="174" y="34" on="0"/>
        <pt x="89" y="117" on="0"/>
        <pt x="41" y="238" on="0"/>
        <pt x="41" y="315" on="1"/>
        <pt x="41" y="390" on="0"/>
        <pt x="87" y="511" on="0"/>
        <pt x="172" y="595" on="0"/>
        <pt x="290" y="640" on="0"/>
        <pt x="362" y="640" on="1"/>
        <pt x="426" y="640" on="0"/>
        <pt x="508" y="618" on="0"/>
        <pt x="537" y="603" on="1"/>
        <pt x="509" y="511" on="1"/>
        <pt x="479" y="526" on="0"/>
        <pt x="417" y="544" on="0"/>
        <pt x="376" y="544" on="1"/>
        <pt x="334" y="544" on="0"/>
        <pt x="259" y="519" on="0"/>
        <pt x="204" y="464" on="0"/>
        <pt x="171" y="377" on="0"/>
        <pt x="171" y="315" on="1"/>
        <pt x="171" y="255" on="0"/>
        <pt x="203" y="168" on="0"/>
        <pt x="257" y="112" on="0"/>
        <pt x="330" y="86" on="0"/>
      </contour>
      <contour>
        <pt x="295" y="829" on="1"/>
        <pt x="384" y="829" on="1"/>
        <pt x="504" y="700" on="1"/>
        <pt x="409" y="700" on="1"/>
        <pt x="339" y="774" on="1"/>
        <pt x="269" y="700" on="1"/>
        <pt x="178" y="700" on="1"/>
      </contour>
    </TTGlyph>
    <TTGlyph name="Cdotaccent" xMin="41" yMin="-10" xMax="537" yMax="818">
      <contour>
        <pt x="372" y="86" on="1"/>
        <pt x="419" y="86" on="0"/>
        <pt x="483" y="102" on="0"/>
        <pt x="509" y="116" on="1"/>
        <pt x="535" y="24" on="1"/>
        <pt x="507" y="10" on="0"/>
        <pt x="421" y="-10" on="0"/>
        <pt x="359" y="-10" on="1"/>
        <pt x="291" y="-10" on="0"/>
        <pt x="174" y="34" on="0"/>
        <pt x="89" y="117" on="0"/>
        <pt x="41" y="238" on="0"/>
        <pt x="41" y="315" on="1"/>
        <pt x="41" y="390" on="0"/>
        <pt x="87" y="511" on="0"/>
        <pt x="172" y="595" on="0"/>
        <pt x="290" y="640" on="0"/>
        <pt x="362" y="640" on="1"/>
        <pt x="426" y="640" on="0"/>
        <pt x="508" y="618" on="0"/>
        <pt x="537" y="603" on="1"/>
        <pt x="509" y="511" on="1"/>
        <pt x="479" y="526" on="0"/>
        <pt x="417" y="544" on="0"/>
        <pt x="376" y="544" on="1"/>
        <pt x="334" y="544" on="0"/>
        <pt x="259" y="519" on="0"/>
        <pt x="204" y="464" on="0"/>
        <pt x="171" y="377" on="0"/>
        <pt x="171" y="315" on="1"/>
        <pt x="171" y="255" on="0"/>
        <pt x="203" y="168" on="0"/>
        <pt x="257" y="112" on="0"/>
        <pt x="330" y="86" on="0"/>
      </contour>
      <contour>
        <pt x="298" y="757" on="1"/>
        <pt x="298" y="782" on="0"/>
        <pt x="334" y="818" on="0"/>
        <pt x="360" y="818" on="1"/>
        <pt x="386" y="818" on="0"/>
        <pt x="421" y="782" on="0"/>
        <pt x="421" y="757" on="1"/>
        <pt x="421" y="731" on="0"/>
        <pt x="386" y="694" on="0"/>
        <pt x="360" y="694" on="1"/>
        <pt x="334" y="694" on="0"/>
        <pt x="298" y="731" on="0"/>
      </contour>
    </TTGlyph>
    <TTGlyph name="CreditSign.tm" xMin="35" yMin="-9" xMax="1309" yMax="501">
      <contour>
        <pt x="926" y="409" on="1"/>
        <pt x="982" y="409" on="0"/>
        <pt x="1073" y="377" on="0"/>
        <pt x="1138" y="319" on="0"/>
        <pt x="1174" y="237" on="0"/>
        <pt x="1174" y="188" on="1"/>
        <pt x="1174" y="157" on="0"/>
        <pt x="1159" y="103" on="0"/>
        <pt x="1151" y="86" on="1"/>
        <pt x="1309" y="86" on="1"/>
        <pt x="1309" y="0" on="1"/>
        <pt x="1074" y="0" on="1"/>
        <pt x="1045" y="64" on="1"/>
        <pt x="1061" y="90" on="0"/>
        <pt x="1077" y="149" on="0"/>
        <pt x="1077" y="187" on="1"/>
        <pt x="1077" y="220" on="0"/>
        <pt x="1054" y="272" on="0"/>
        <pt x="1013" y="309" on="0"/>
        <pt x="956" y="328" on="0"/>
        <pt x="922" y="328" on="1"/>
        <pt x="878" y="328" on="0"/>
        <pt x="816" y="295" on="0"/>
        <pt x="801" y="269" on="1"/>
        <pt x="826" y="280" on="0"/>
        <pt x="852" y="280" on="1"/>
        <pt x="881" y="280" on="0"/>
        <pt x="935" y="262" on="0"/>
        <pt x="976" y="226" on="0"/>
        <pt x="1001" y="172" on="0"/>
        <pt x="1001" y="137" on="1"/>
        <pt x="1001" y="105" on="0"/>
        <pt x="977" y="52" on="0"/>
        <pt x="935" y="14" on="0"/>
        <pt x="876" y="-7" on="0"/>
        <pt x="841" y="-7" on="1"/>
        <pt x="805" y="-7" on="0"/>
        <pt x="751" y="17" on="0"/>
        <pt x="714" y="57" on="0"/>
        <pt x="693" y="109" on="0"/>
        <pt x="691" y="136" on="1"/>
        <pt x="675" y="123" on="0"/>
        <pt x="644" y="90" on="0"/>
        <pt x="616" y="53" on="0"/>
        <pt x="594" y="16" on="0"/>
        <pt x="587" y="0" on="1"/>
        <pt x="493" y="0" on="1"/>
        <pt x="493" y="415" on="1"/>
        <pt x="363" y="415" on="1"/>
        <pt x="269" y="415" on="0"/>
        <pt x="151" y="339" on="0"/>
        <pt x="139" y="261" on="1"/>
        <pt x="178" y="300" on="0"/>
        <pt x="239" y="300" on="1"/>
        <pt x="272" y="300" on="0"/>
        <pt x="329" y="278" on="0"/>
        <pt x="371" y="239" on="0"/>
        <pt x="394" y="183" on="0"/>
        <pt x="394" y="150" on="1"/>
        <pt x="394" y="114" on="0"/>
        <pt x="367" y="55" on="0"/>
        <pt x="321" y="13" on="0"/>
        <pt x="258" y="-9" on="0"/>
        <pt x="222" y="-9" on="1"/>
        <pt x="180" y="-9" on="0"/>
        <pt x="112" y="22" on="0"/>
        <pt x="62" y="80" on="0"/>
        <pt x="35" y="161" on="0"/>
        <pt x="35" y="212" on="1"/>
        <pt x="35" y="282" on="0"/>
        <pt x="82" y="390" on="0"/>
        <pt x="168" y="464" on="0"/>
        <pt x="288" y="501" on="0"/>
        <pt x="361" y="501" on="1"/>
        <pt x="704" y="501" on="1"/>
        <pt x="704" y="415" on="1"/>
        <pt x="598" y="415" on="1"/>
        <pt x="598" y="138" on="1"/>
        <pt x="616" y="165" on="0"/>
        <pt x="668" y="215" on="0"/>
        <pt x="695" y="233" on="1"/>
        <pt x="704" y="272" on="0"/>
        <pt x="747" y="337" on="0"/>
        <pt x="807" y="383" on="0"/>
        <pt x="883" y="409" on="0"/>
      </contour>
      <contour>
        <pt x="218" y="219" on="1"/>
        <pt x="191" y="219" on="0"/>
        <pt x="152" y="188" on="0"/>
        <pt x="141" y="163" on="1"/>
        <pt x="146" y="122" on="0"/>
        <pt x="190" y="78" on="0"/>
        <pt x="222" y="78" on="1"/>
        <pt x="251" y="78" on="0"/>
        <pt x="288" y="117" on="0"/>
        <pt x="288" y="149" on="1"/>
        <pt x="288" y="181" on="0"/>
        <pt x="250" y="219" on="0"/>
      </contour>
      <contour>
        <pt x="836" y="204" on="1"/>
        <pt x="819" y="204" on="0"/>
        <pt x="793" y="195" on="0"/>
        <pt x="782" y="187" on="1"/>
        <pt x="779" y="170" on="0"/>
        <pt x="779" y="155" on="1"/>
        <pt x="779" y="118" on="0"/>
        <pt x="815" y="76" on="0"/>
        <pt x="844" y="76" on="1"/>
        <pt x="870" y="76" on="0"/>
        <pt x="904" y="110" on="0"/>
        <pt x="904" y="139" on="1"/>
        <pt x="904" y="168" on="0"/>
        <pt x="866" y="204" on="0"/>
      </contour>
    </TTGlyph>
    <TTGlyph name="Csmall" xMin="42" yMin="-10" xMax="434" yMax="484">
      <contour>
        <pt x="312" y="78" on="1"/>
        <pt x="344" y="78" on="0"/>
        <pt x="393" y="93" on="0"/>
        <pt x="411" y="102" on="1"/>
        <pt x="434" y="19" on="1"/>
        <pt x="412" y="8" on="0"/>
        <pt x="340" y="-10" on="0"/>
        <pt x="297" y="-10" on="1"/>
        <pt x="243" y="-10" on="0"/>
        <pt x="149" y="21" on="0"/>
        <pt x="81" y="83" on="0"/>
        <pt x="42" y="175" on="0"/>
        <pt x="42" y="236" on="1"/>
        <pt x="42" y="292" on="0"/>
        <pt x="79" y="384" on="0"/>
        <pt x="146" y="449" on="0"/>
        <pt x="241" y="484" on="0"/>
        <pt x="298" y="484" on="1"/>
        <pt x="329" y="484" on="0"/>
        <pt x="395" y="472" on="0"/>
        <pt x="433" y="454" on="1"/>
        <pt x="407" y="370" on="1"/>
        <pt x="385" y="383" on="0"/>
        <pt x="336" y="397" on="0"/>
        <pt x="311" y="397" on="1"/>
        <pt x="243" y="397" on="0"/>
        <pt x="162" y="316" on="0"/>
        <pt x="162" y="239" on="1"/>
        <pt x="162" y="194" on="0"/>
        <pt x="188" y="132" on="0"/>
        <pt x="230" y="94" on="0"/>
        <pt x="284" y="78" on="0"/>
      </contour>
    </TTGlyph>
    <TTGlyph name="D" xMin="73" yMin="0" xMax="609" yMax="630">
      <contour>
        <pt x="288" y="630" on="1"/>
        <pt x="359" y="630" on="0"/>
        <pt x="477" y="592" on="0"/>
        <pt x="562" y="516" on="0"/>
        <pt x="609" y="403" on="0"/>
        <pt x="609" y="328" on="1"/>
        <pt x="609" y="241" on="0"/>
        <pt x="553" y="116" on="0"/>
        <pt x="457" y="37" on="0"/>
        <pt x="330" y="0" on="0"/>
        <pt x="258" y="0" on="1"/>
        <pt x="73" y="0" on="1"/>
        <pt x="73" y="630" on="1"/>
      </contour>
      <contour>
        <pt x="195" y="96" on="1"/>
        <pt x="249" y="96" on="1"/>
        <pt x="293" y="96" on="0"/>
        <pt x="376" y="117" on="0"/>
        <pt x="440" y="169" on="0"/>
        <pt x="479" y="259" on="0"/>
        <pt x="479" y="328" on="1"/>
        <pt x="479" y="428" on="0"/>
        <pt x="366" y="534" on="0"/>
        <pt x="270" y="534" on="1"/>
        <pt x="195" y="534" on="1"/>
      </contour>
    </TTGlyph>
    <TTGlyph name="DaySign.tm" xMin="37" yMin="-9" xMax="775" yMax="509">
      <contour>
        <pt x="328" y="509" on="1"/>
        <pt x="389" y="509" on="0"/>
        <pt x="493" y="470" on="0"/>
        <pt x="569" y="399" on="0"/>
        <pt x="612" y="299" on="0"/>
        <pt x="612" y="239" on="1"/>
        <pt x="612" y="190" on="0"/>
        <pt x="590" y="112" on="0"/>
        <pt x="577" y="88" on="1"/>
        <pt x="775" y="88" on="1"/>
        <pt x="775" y="0" on="1"/>
        <pt x="483" y="0" on="1"/>
        <pt x="455" y="64" on="1"/>
        <pt x="477" y="96" on="0"/>
        <pt x="500" y="179" on="0"/>
        <pt x="500" y="230" on="1"/>
        <pt x="500" y="272" on="0"/>
        <pt x="476" y="342" on="0"/>
        <pt x="430" y="391" on="0"/>
        <pt x="364" y="419" on="0"/>
        <pt x="323" y="419" on="1"/>
        <pt x="284" y="419" on="0"/>
        <pt x="219" y="395" on="0"/>
        <pt x="171" y="353" on="0"/>
        <pt x="142" y="293" on="0"/>
        <pt x="138" y="257" on="1"/>
        <pt x="157" y="277" on="0"/>
        <pt x="209" y="300" on="0"/>
        <pt x="241" y="300" on="1"/>
        <pt x="274" y="300" on="0"/>
        <pt x="331" y="278" on="0"/>
        <pt x="373" y="239" on="0"/>
        <pt x="396" y="183" on="0"/>
        <pt x="396" y="150" on="1"/>
        <pt x="396" y="114" on="0"/>
        <pt x="369" y="55" on="0"/>
        <pt x="323" y="13" on="0"/>
        <pt x="260" y="-9" on="0"/>
        <pt x="224" y="-9" on="1"/>
        <pt x="182" y="-9" on="0"/>
        <pt x="114" y="23" on="0"/>
        <pt x="64" y="82" on="0"/>
        <pt x="37" y="167" on="0"/>
        <pt x="37" y="221" on="1"/>
        <pt x="37" y="286" on="0"/>
        <pt x="80" y="393" on="0"/>
        <pt x="157" y="468" on="0"/>
        <pt x="264" y="509" on="0"/>
      </contour>
      <contour>
        <pt x="220" y="219" on="1"/>
        <pt x="193" y="219" on="0"/>
        <pt x="154" y="187" on="0"/>
        <pt x="143" y="162" on="1"/>
        <pt x="148" y="121" on="0"/>
        <pt x="192" y="78" on="0"/>
        <pt x="224" y="78" on="1"/>
        <pt x="253" y="78" on="0"/>
        <pt x="290" y="117" on="0"/>
        <pt x="290" y="149" on="1"/>
        <pt x="290" y="181" on="0"/>
        <pt x="252" y="219" on="0"/>
      </contour>
    </TTGlyph>
    <TTGlyph name="Dcaron" xMin="73" yMin="0" xMax="609" yMax="829">
      <contour>
        <pt x="288" y="630" on="1"/>
        <pt x="359" y="630" on="0"/>
        <pt x="477" y="592" on="0"/>
        <pt x="562" y="516" on="0"/>
        <pt x="609" y="403" on="0"/>
        <pt x="609" y="328" on="1"/>
        <pt x="609" y="241" on="0"/>
        <pt x="553" y="116" on="0"/>
        <pt x="457" y="37" on="0"/>
        <pt x="330" y="0" on="0"/>
        <pt x="258" y="0" on="1"/>
        <pt x="73" y="0" on="1"/>
        <pt x="73" y="630" on="1"/>
      </contour>
      <contour>
        <pt x="195" y="96" on="1"/>
        <pt x="249" y="96" on="1"/>
        <pt x="293" y="96" on="0"/>
        <pt x="376" y="117" on="0"/>
        <pt x="440" y="169" on="0"/>
        <pt x="479" y="259" on="0"/>
        <pt x="479" y="328" on="1"/>
        <pt x="479" y="428" on="0"/>
        <pt x="366" y="534" on="0"/>
        <pt x="270" y="534" on="1"/>
        <pt x="195" y="534" on="1"/>
      </contour>
      <contour>
        <pt x="130" y="829" on="1"/>
        <pt x="223" y="829" on="1"/>
        <pt x="293" y="755" on="1"/>
        <pt x="363" y="829" on="1"/>
        <pt x="456" y="829" on="1"/>
        <pt x="338" y="700" on="1"/>
        <pt x="249" y="700" on="1"/>
      </contour>
    </TTGlyph>
    <TTGlyph name="Dcroat" xMin="25" yMin="0" xMax="644" yMax="630">
      <contour>
        <pt x="323" y="630" on="1"/>
        <pt x="394" y="630" on="0"/>
        <pt x="512" y="592" on="0"/>
        <pt x="597" y="516" on="0"/>
        <pt x="644" y="403" on="0"/>
        <pt x="644" y="328" on="1"/>
        <pt x="644" y="241" on="0"/>
        <pt x="588" y="116" on="0"/>
        <pt x="492" y="37" on="0"/>
        <pt x="365" y="0" on="0"/>
        <pt x="293" y="0" on="1"/>
        <pt x="108" y="0" on="1"/>
        <pt x="108" y="283" on="1"/>
        <pt x="25" y="283" on="1"/>
        <pt x="25" y="365" on="1"/>
        <pt x="108" y="365" on="1"/>
        <pt x="108" y="630" on="1"/>
      </contour>
      <contour>
        <pt x="350" y="365" on="1"/>
        <pt x="350" y="283" on="1"/>
        <pt x="230" y="283" on="1"/>
        <pt x="230" y="96" on="1"/>
        <pt x="284" y="96" on="1"/>
        <pt x="328" y="96" on="0"/>
        <pt x="411" y="117" on="0"/>
        <pt x="475" y="169" on="0"/>
        <pt x="514" y="259" on="0"/>
        <pt x="514" y="328" on="1"/>
        <pt x="514" y="428" on="0"/>
        <pt x="401" y="534" on="0"/>
        <pt x="305" y="534" on="1"/>
        <pt x="230" y="534" on="1"/>
        <pt x="230" y="365" on="1"/>
      </contour>
    </TTGlyph>
    <TTGlyph name="DebitSign.tm" xMin="42" yMin="-306" xMax="840" yMax="501">
      <contour>
        <pt x="840" y="501" on="1"/>
        <pt x="840" y="-137" on="1"/>
        <pt x="599" y="-137" on="1"/>
        <pt x="591" y="-170" on="0"/>
        <pt x="548" y="-232" on="0"/>
        <pt x="475" y="-278" on="0"/>
        <pt x="371" y="-306" on="0"/>
        <pt x="303" y="-306" on="1"/>
        <pt x="243" y="-306" on="0"/>
        <pt x="147" y="-283" on="0"/>
        <pt x="79" y="-241" on="0"/>
        <pt x="42" y="-183" on="0"/>
        <pt x="42" y="-148" on="1"/>
        <pt x="42" y="-104" on="0"/>
        <pt x="103" y="-54" on="0"/>
        <pt x="157" y="-54" on="1"/>
        <pt x="502" y="-54" on="1"/>
        <pt x="502" y="0" on="1"/>
        <pt x="71" y="0" on="1"/>
        <pt x="71" y="501" on="1"/>
        <pt x="182" y="501" on="1"/>
        <pt x="182" y="89" on="1"/>
        <pt x="496" y="89" on="1"/>
        <pt x="496" y="501" on="1"/>
        <pt x="606" y="501" on="1"/>
        <pt x="606" y="-54" on="1"/>
        <pt x="732" y="-54" on="1"/>
        <pt x="732" y="501" on="1"/>
      </contour>
      <contour>
        <pt x="305" y="-223" on="1"/>
        <pt x="383" y="-223" on="0"/>
        <pt x="480" y="-175" on="0"/>
        <pt x="494" y="-137" on="1"/>
        <pt x="174" y="-137" on="1"/>
        <pt x="161" y="-137" on="0"/>
        <pt x="148" y="-150" on="0"/>
        <pt x="148" y="-159" on="1"/>
        <pt x="148" y="-187" on="0"/>
        <pt x="236" y="-223" on="0"/>
      </contour>
    </TTGlyph>
    <TTGlyph name="DottedCircle" xMin="11" yMin="-11" xMax="535" yMax="513">
      <contour>
        <pt x="236" y="26" on="1"/>
        <pt x="236" y="41" on="0"/>
        <pt x="257" y="63" on="0"/>
        <pt x="272" y="63" on="1"/>
        <pt x="288" y="63" on="0"/>
        <pt x="310" y="41" on="0"/>
        <pt x="310" y="26" on="1"/>
        <pt x="310" y="11" on="0"/>
        <pt x="288" y="-11" on="0"/>
        <pt x="272" y="-11" on="1"/>
        <pt x="257" y="-11" on="0"/>
        <pt x="236" y="11" on="0"/>
      </contour>
      <contour>
        <pt x="236" y="475" on="1"/>
        <pt x="236" y="492" on="0"/>
        <pt x="257" y="513" on="0"/>
        <pt x="272" y="513" on="1"/>
        <pt x="289" y="513" on="0"/>
        <pt x="310" y="492" on="0"/>
        <pt x="310" y="475" on="1"/>
        <pt x="310" y="460" on="0"/>
        <pt x="288" y="440" on="0"/>
        <pt x="272" y="440" on="1"/>
        <pt x="257" y="440" on="0"/>
        <pt x="236" y="461" on="0"/>
      </contour>
      <contour>
        <pt x="11" y="251" on="1"/>
        <pt x="11" y="266" on="0"/>
        <pt x="33" y="288" on="0"/>
        <pt x="48" y="288" on="1"/>
        <pt x="63" y="288" on="0"/>
        <pt x="84" y="267" on="0"/>
        <pt x="84" y="251" on="1"/>
        <pt x="84" y="235" on="0"/>
        <pt x="63" y="214" on="0"/>
        <pt x="48" y="214" on="1"/>
        <pt x="32" y="214" on="0"/>
        <pt x="11" y="235" on="0"/>
      </contour>
      <contour>
        <pt x="462" y="251" on="1"/>
        <pt x="462" y="266" on="0"/>
        <pt x="483" y="288" on="0"/>
        <pt x="498" y="288" on="1"/>
        <pt x="513" y="288" on="0"/>
        <pt x="535" y="266" on="0"/>
        <pt x="535" y="251" on="1"/>
        <pt x="535" y="236" on="0"/>
        <pt x="513" y="214" on="0"/>
        <pt x="498" y="214" on="1"/>
        <pt x="483" y="214" on="0"/>
        <pt x="462" y="235" on="0"/>
      </contour>
      <contour>
        <pt x="86" y="401" on="1"/>
        <pt x="86" y="417" on="0"/>
        <pt x="106" y="439" on="0"/>
        <pt x="122" y="439" on="1"/>
        <pt x="138" y="439" on="0"/>
        <pt x="160" y="416" on="0"/>
        <pt x="160" y="401" on="1"/>
        <pt x="160" y="386" on="0"/>
        <pt x="138" y="364" on="0"/>
        <pt x="122" y="364" on="1"/>
        <pt x="106" y="364" on="0"/>
        <pt x="86" y="386" on="0"/>
      </contour>
      <contour>
        <pt x="86" y="101" on="1"/>
        <pt x="86" y="117" on="0"/>
        <pt x="106" y="138" on="0"/>
        <pt x="122" y="138" on="1"/>
        <pt x="138" y="138" on="0"/>
        <pt x="160" y="117" on="0"/>
        <pt x="160" y="101" on="1"/>
        <pt x="160" y="85" on="0"/>
        <pt x="138" y="65" on="0"/>
        <pt x="122" y="65" on="1"/>
        <pt x="106" y="65" on="0"/>
        <pt x="86" y="85" on="0"/>
      </contour>
      <contour>
        <pt x="386" y="101" on="1"/>
        <pt x="386" y="117" on="0"/>
        <pt x="407" y="138" on="0"/>
        <pt x="423" y="138" on="1"/>
        <pt x="439" y="138" on="0"/>
        <pt x="460" y="116" on="0"/>
        <pt x="460" y="101" on="1"/>
        <pt x="460" y="85" on="0"/>
        <pt x="439" y="65" on="0"/>
        <pt x="423" y="65" on="1"/>
        <pt x="408" y="65" on="0"/>
        <pt x="386" y="85" on="0"/>
      </contour>
      <contour>
        <pt x="386" y="401" on="1"/>
        <pt x="386" y="417" on="0"/>
        <pt x="408" y="439" on="0"/>
        <pt x="423" y="439" on="1"/>
        <pt x="438" y="439" on="0"/>
        <pt x="460" y="416" on="0"/>
        <pt x="460" y="401" on="1"/>
        <pt x="460" y="386" on="0"/>
        <pt x="438" y="364" on="0"/>
        <pt x="423" y="364" on="1"/>
        <pt x="408" y="364" on="0"/>
        <pt x="386" y="386" on="0"/>
      </contour>
    </TTGlyph>
    <TTGlyph name="Dsmall" xMin="69" yMin="0" xMax="504" yMax="475">
      <contour>
        <pt x="252" y="475" on="1"/>
        <pt x="302" y="475" on="0"/>
        <pt x="394" y="450" on="0"/>
        <pt x="463" y="395" on="0"/>
        <pt x="504" y="309" on="0"/>
        <pt x="504" y="248" on="1"/>
        <pt x="504" y="182" on="0"/>
        <pt x="463" y="88" on="0"/>
        <pt x="393" y="28" on="0"/>
        <pt x="296" y="0" on="0"/>
        <pt x="241" y="0" on="1"/>
        <pt x="69" y="0" on="1"/>
        <pt x="69" y="475" on="1"/>
      </contour>
      <contour>
        <pt x="187" y="89" on="1"/>
        <pt x="226" y="89" on="1"/>
        <pt x="251" y="89" on="0"/>
        <pt x="306" y="100" on="0"/>
        <pt x="353" y="134" on="0"/>
        <pt x="384" y="195" on="0"/>
        <pt x="384" y="245" on="1"/>
        <pt x="384" y="314" on="0"/>
        <pt x="304" y="386" on="0"/>
        <pt x="226" y="386" on="1"/>
        <pt x="187" y="386" on="1"/>
      </contour>
    </TTGlyph>
    <TTGlyph name="E" xMin="73" yMin="0" xMax="476" yMax="630">
      <contour>
        <pt x="73" y="630" on="1"/>
        <pt x="473" y="630" on="1"/>
        <pt x="473" y="534" on="1"/>
        <pt x="195" y="534" on="1"/>
        <pt x="195" y="375" on="1"/>
        <pt x="447" y="375" on="1"/>
        <pt x="447" y="280" on="1"/>
        <pt x="195" y="280" on="1"/>
        <pt x="195" y="96" on="1"/>
        <pt x="476" y="96" on="1"/>
        <pt x="476" y="0" on="1"/>
        <pt x="73" y="0" on="1"/>
      </contour>
    </TTGlyph>
    <TTGlyph name="Eacute" xMin="73" yMin="0" xMax="476" yMax="824">
      <contour>
        <pt x="73" y="630" on="1"/>
        <pt x="473" y="630" on="1"/>
        <pt x="473" y="534" on="1"/>
        <pt x="195" y="534" on="1"/>
        <pt x="195" y="375" on="1"/>
        <pt x="447" y="375" on="1"/>
        <pt x="447" y="280" on="1"/>
        <pt x="195" y="280" on="1"/>
        <pt x="195" y="96" on="1"/>
        <pt x="476" y="96" on="1"/>
        <pt x="476" y="0" on="1"/>
        <pt x="73" y="0" on="1"/>
      </contour>
      <contour>
        <pt x="278" y="700" on="1"/>
        <pt x="181" y="700" on="1"/>
        <pt x="261" y="824" on="1"/>
        <pt x="391" y="824" on="1"/>
      </contour>
    </TTGlyph>
    <TTGlyph name="Ebreve" xMin="73" yMin="0" xMax="476" yMax="830">
      <contour>
        <pt x="73" y="630" on="1"/>
        <pt x="473" y="630" on="1"/>
        <pt x="473" y="534" on="1"/>
        <pt x="195" y="534" on="1"/>
        <pt x="195" y="375" on="1"/>
        <pt x="447" y="375" on="1"/>
        <pt x="447" y="280" on="1"/>
        <pt x="195" y="280" on="1"/>
        <pt x="195" y="96" on="1"/>
        <pt x="476" y="96" on="1"/>
        <pt x="476" y="0" on="1"/>
        <pt x="73" y="0" on="1"/>
      </contour>
      <contour>
        <pt x="218" y="830" on="1"/>
        <pt x="220" y="802" on="0"/>
        <pt x="246" y="770" on="0"/>
        <pt x="280" y="770" on="1"/>
        <pt x="337" y="770" on="0"/>
        <pt x="342" y="830" on="1"/>
        <pt x="414" y="830" on="1"/>
        <pt x="414" y="772" on="0"/>
        <pt x="345" y="703" on="0"/>
        <pt x="280" y="703" on="1"/>
        <pt x="244" y="703" on="0"/>
        <pt x="193" y="724" on="0"/>
        <pt x="160" y="759" on="0"/>
        <pt x="145" y="805" on="0"/>
        <pt x="145" y="830" on="1"/>
      </contour>
    </TTGlyph>
    <TTGlyph name="Ecaron" xMin="73" yMin="0" xMax="476" yMax="829">
      <contour>
        <pt x="73" y="630" on="1"/>
        <pt x="473" y="630" on="1"/>
        <pt x="473" y="534" on="1"/>
        <pt x="195" y="534" on="1"/>
        <pt x="195" y="375" on="1"/>
        <pt x="447" y="375" on="1"/>
        <pt x="447" y="280" on="1"/>
        <pt x="195" y="280" on="1"/>
        <pt x="195" y="96" on="1"/>
        <pt x="476" y="96" on="1"/>
        <pt x="476" y="0" on="1"/>
        <pt x="73" y="0" on="1"/>
      </contour>
      <contour>
        <pt x="324" y="700" on="1"/>
        <pt x="235" y="700" on="1"/>
        <pt x="117" y="829" on="1"/>
        <pt x="212" y="829" on="1"/>
        <pt x="281" y="754" on="1"/>
        <pt x="350" y="829" on="1"/>
        <pt x="443" y="829" on="1"/>
      </contour>
    </TTGlyph>
    <TTGlyph name="Ecircumflex" xMin="73" yMin="0" xMax="476" yMax="829">
      <contour>
        <pt x="73" y="630" on="1"/>
        <pt x="473" y="630" on="1"/>
        <pt x="473" y="534" on="1"/>
        <pt x="195" y="534" on="1"/>
        <pt x="195" y="375" on="1"/>
        <pt x="447" y="375" on="1"/>
        <pt x="447" y="280" on="1"/>
        <pt x="195" y="280" on="1"/>
        <pt x="195" y="96" on="1"/>
        <pt x="476" y="96" on="1"/>
        <pt x="476" y="0" on="1"/>
        <pt x="73" y="0" on="1"/>
      </contour>
      <contour>
        <pt x="221" y="829" on="1"/>
        <pt x="310" y="829" on="1"/>
        <pt x="430" y="700" on="1"/>
        <pt x="335" y="700" on="1"/>
        <pt x="265" y="774" on="1"/>
        <pt x="195" y="700" on="1"/>
        <pt x="104" y="700" on="1"/>
      </contour>
    </TTGlyph>
    <TTGlyph name="Edieresis" xMin="73" yMin="0" xMax="476" yMax="812">
      <contour>
        <pt x="73" y="630" on="1"/>
        <pt x="473" y="630" on="1"/>
        <pt x="473" y="534" on="1"/>
        <pt x="195" y="534" on="1"/>
        <pt x="195" y="375" on="1"/>
        <pt x="447" y="375" on="1"/>
        <pt x="447" y="280" on="1"/>
        <pt x="195" y="280" on="1"/>
        <pt x="195" y="96" on="1"/>
        <pt x="476" y="96" on="1"/>
        <pt x="476" y="0" on="1"/>
        <pt x="73" y="0" on="1"/>
      </contour>
      <contour>
        <pt x="121" y="754" on="1"/>
        <pt x="121" y="777" on="0"/>
        <pt x="156" y="812" on="0"/>
        <pt x="180" y="812" on="1"/>
        <pt x="205" y="812" on="0"/>
        <pt x="239" y="777" on="0"/>
        <pt x="239" y="754" on="1"/>
        <pt x="239" y="729" on="0"/>
        <pt x="205" y="694" on="0"/>
        <pt x="180" y="694" on="1"/>
        <pt x="156" y="694" on="0"/>
        <pt x="121" y="729" on="0"/>
      </contour>
      <contour>
        <pt x="307" y="754" on="1"/>
        <pt x="307" y="777" on="0"/>
        <pt x="341" y="812" on="0"/>
        <pt x="366" y="812" on="1"/>
        <pt x="390" y="812" on="0"/>
        <pt x="424" y="777" on="0"/>
        <pt x="424" y="754" on="1"/>
        <pt x="424" y="729" on="0"/>
        <pt x="390" y="694" on="0"/>
        <pt x="366" y="694" on="1"/>
        <pt x="341" y="694" on="0"/>
        <pt x="307" y="729" on="0"/>
      </contour>
    </TTGlyph>
    <TTGlyph name="Edotaccent" xMin="73" yMin="0" xMax="476" yMax="818">
      <contour>
        <pt x="73" y="630" on="1"/>
        <pt x="473" y="630" on="1"/>
        <pt x="473" y="534" on="1"/>
        <pt x="195" y="534" on="1"/>
        <pt x="195" y="375" on="1"/>
        <pt x="447" y="375" on="1"/>
        <pt x="447" y="280" on="1"/>
        <pt x="195" y="280" on="1"/>
        <pt x="195" y="96" on="1"/>
        <pt x="476" y="96" on="1"/>
        <pt x="476" y="0" on="1"/>
        <pt x="73" y="0" on="1"/>
      </contour>
      <contour>
        <pt x="221" y="757" on="1"/>
        <pt x="221" y="782" on="0"/>
        <pt x="258" y="818" on="0"/>
        <pt x="283" y="818" on="1"/>
        <pt x="309" y="818" on="0"/>
        <pt x="345" y="782" on="0"/>
        <pt x="345" y="757" on="1"/>
        <pt x="345" y="731" on="0"/>
        <pt x="309" y="694" on="0"/>
        <pt x="283" y="694" on="1"/>
        <pt x="258" y="694" on="0"/>
        <pt x="221" y="731" on="0"/>
      </contour>
    </TTGlyph>
    <TTGlyph name="Egrave" xMin="73" yMin="0" xMax="476" yMax="824">
      <contour>
        <pt x="73" y="630" on="1"/>
        <pt x="473" y="630" on="1"/>
        <pt x="473" y="534" on="1"/>
        <pt x="195" y="534" on="1"/>
        <pt x="195" y="375" on="1"/>
        <pt x="447" y="375" on="1"/>
        <pt x="447" y="280" on="1"/>
        <pt x="195" y="280" on="1"/>
        <pt x="195" y="96" on="1"/>
        <pt x="476" y="96" on="1"/>
        <pt x="476" y="0" on="1"/>
        <pt x="73" y="0" on="1"/>
      </contour>
      <contour>
        <pt x="165" y="824" on="1"/>
        <pt x="295" y="824" on="1"/>
        <pt x="375" y="700" on="1"/>
        <pt x="278" y="700" on="1"/>
      </contour>
    </TTGlyph>
    <TTGlyph name="Eight.tm" xMin="14" yMin="-104" xMax="994" yMax="509">
      <contour>
        <pt x="669" y="201" on="1"/>
        <pt x="672" y="216" on="0"/>
        <pt x="672" y="242" on="1"/>
        <pt x="672" y="281" on="0"/>
        <pt x="650" y="347" on="0"/>
        <pt x="610" y="394" on="0"/>
        <pt x="552" y="421" on="0"/>
        <pt x="515" y="421" on="1"/>
        <pt x="470" y="421" on="0"/>
        <pt x="421" y="377" on="0"/>
        <pt x="421" y="342" on="1"/>
        <pt x="421" y="324" on="0"/>
        <pt x="438" y="295" on="0"/>
        <pt x="449" y="287" on="1"/>
        <pt x="386" y="236" on="1"/>
        <pt x="360" y="249" on="0"/>
        <pt x="321" y="307" on="0"/>
        <pt x="321" y="346" on="1"/>
        <pt x="321" y="380" on="0"/>
        <pt x="349" y="440" on="0"/>
        <pt x="400" y="484" on="0"/>
        <pt x="473" y="509" on="0"/>
        <pt x="518" y="509" on="1"/>
        <pt x="577" y="509" on="0"/>
        <pt x="673" y="469" on="0"/>
        <pt x="741" y="396" on="0"/>
        <pt x="778" y="296" on="0"/>
        <pt x="778" y="236" on="1"/>
        <pt x="778" y="225" on="0"/>
        <pt x="777" y="208" on="0"/>
        <pt x="776" y="201" on="1"/>
        <pt x="888" y="201" on="1"/>
        <pt x="888" y="501" on="1"/>
        <pt x="994" y="501" on="1"/>
        <pt x="994" y="-104" on="1"/>
        <pt x="888" y="-104" on="1"/>
        <pt x="888" y="114" on="1"/>
        <pt x="765" y="114" on="1"/>
        <pt x="747" y="62" on="0"/>
        <pt x="671" y="-16" on="0"/>
        <pt x="566" y="-69" on="0"/>
        <pt x="435" y="-96" on="0"/>
        <pt x="361" y="-96" on="1"/>
        <pt x="283" y="-96" on="0"/>
        <pt x="155" y="-70" on="0"/>
        <pt x="64" y="-22" on="0"/>
        <pt x="14" y="48" on="0"/>
        <pt x="14" y="92" on="1"/>
        <pt x="14" y="143" on="0"/>
        <pt x="85" y="201" on="0"/>
        <pt x="149" y="201" on="1"/>
      </contour>
      <contour>
        <pt x="364" y="-4" on="1"/>
        <pt x="472" y="-4" on="0"/>
        <pt x="619" y="57" on="0"/>
        <pt x="649" y="114" on="1"/>
        <pt x="164" y="114" on="1"/>
        <pt x="126" y="114" on="0"/>
        <pt x="126" y="83" on="1"/>
        <pt x="126" y="64" on="0"/>
        <pt x="160" y="32" on="0"/>
        <pt x="223" y="9" on="0"/>
        <pt x="310" y="-4" on="0"/>
      </contour>
    </TTGlyph>
    <TTGlyph name="Ek_Type" xMin="100" yMin="-312" xMax="1089" yMax="636">
      <contour>
        <pt x="800" y="531" on="1"/>
        <pt x="800" y="403" on="1"/>
        <pt x="814" y="421" on="0"/>
        <pt x="867" y="447" on="0"/>
        <pt x="902" y="447" on="1"/>
        <pt x="977" y="447" on="0"/>
        <pt x="1062" y="351" on="0"/>
        <pt x="1062" y="266" on="1"/>
        <pt x="1062" y="224" on="0"/>
        <pt x="1037" y="156" on="0"/>
        <pt x="991" y="107" on="0"/>
        <pt x="925" y="81" on="0"/>
        <pt x="885" y="81" on="1"/>
        <pt x="876" y="81" on="0"/>
        <pt x="852" y="84" on="0"/>
        <pt x="841" y="87" on="1"/>
        <pt x="854" y="184" on="1"/>
        <pt x="869" y="184" on="1"/>
        <pt x="927" y="184" on="0"/>
        <pt x="927" y="266" on="1"/>
        <pt x="927" y="301" on="0"/>
        <pt x="894" y="340" on="0"/>
        <pt x="865" y="340" on="1"/>
        <pt x="836" y="340" on="0"/>
        <pt x="807" y="299" on="0"/>
        <pt x="803" y="276" on="1"/>
        <pt x="803" y="0" on="1"/>
        <pt x="672" y="0" on="1"/>
        <pt x="672" y="113" on="1"/>
        <pt x="657" y="95" on="0"/>
        <pt x="603" y="74" on="0"/>
        <pt x="579" y="74" on="1"/>
        <pt x="549" y="74" on="0"/>
        <pt x="489" y="94" on="0"/>
        <pt x="441" y="139" on="0"/>
        <pt x="411" y="211" on="0"/>
        <pt x="411" y="263" on="1"/>
        <pt x="411" y="352" on="0"/>
        <pt x="493" y="447" on="0"/>
        <pt x="568" y="447" on="1"/>
        <pt x="600" y="447" on="0"/>
        <pt x="654" y="428" on="0"/>
        <pt x="672" y="411" on="1"/>
        <pt x="672" y="531" on="1"/>
        <pt x="330" y="531" on="1"/>
        <pt x="330" y="50" on="1"/>
        <pt x="549" y="-40" on="0"/>
        <pt x="818" y="-164" on="0"/>
        <pt x="883" y="-197" on="1"/>
        <pt x="822" y="-312" on="1"/>
        <pt x="778" y="-291" on="0"/>
        <pt x="661" y="-235" on="0"/>
        <pt x="507" y="-163" on="0"/>
        <pt x="314" y="-73" on="0"/>
        <pt x="195" y="-18" on="1"/>
        <pt x="195" y="531" on="1"/>
        <pt x="100" y="531" on="1"/>
        <pt x="100" y="636" on="1"/>
        <pt x="1089" y="636" on="1"/>
        <pt x="1089" y="531" on="1"/>
      </contour>
      <contour>
        <pt x="675" y="309" on="1"/>
        <pt x="665" y="320" on="0"/>
        <pt x="633" y="338" on="0"/>
        <pt x="613" y="338" on="1"/>
        <pt x="584" y="338" on="0"/>
        <pt x="548" y="297" on="0"/>
        <pt x="548" y="262" on="1"/>
        <pt x="548" y="225" on="0"/>
        <pt x="582" y="182" on="0"/>
        <pt x="611" y="182" on="1"/>
        <pt x="667" y="182" on="0"/>
        <pt x="675" y="236" on="1"/>
      </contour>
    </TTGlyph>
    <TTGlyph name="Emacron" xMin="73" yMin="0" xMax="476" yMax="772">
      <contour>
        <pt x="73" y="630" on="1"/>
        <pt x="473" y="630" on="1"/>
        <pt x="473" y="534" on="1"/>
        <pt x="195" y="534" on="1"/>
        <pt x="195" y="375" on="1"/>
        <pt x="447" y="375" on="1"/>
        <pt x="447" y="280" on="1"/>
        <pt x="195" y="280" on="1"/>
        <pt x="195" y="96" on="1"/>
        <pt x="476" y="96" on="1"/>
        <pt x="476" y="0" on="1"/>
        <pt x="73" y="0" on="1"/>
      </contour>
      <contour>
        <pt x="396" y="772" on="1"/>
        <pt x="396" y="700" on="1"/>
        <pt x="144" y="700" on="1"/>
        <pt x="144" y="772" on="1"/>
      </contour>
    </TTGlyph>
    <TTGlyph name="Eng" xMin="73" yMin="-245" xMax="598" yMax="630">
      <contour>
        <pt x="73" y="630" on="1"/>
        <pt x="183" y="630" on="1"/>
        <pt x="423" y="266" on="1"/>
        <pt x="443" y="236" on="0"/>
        <pt x="477" y="177" on="0"/>
        <pt x="487" y="158" on="1"/>
        <pt x="489" y="158" on="1"/>
        <pt x="483" y="227" on="0"/>
        <pt x="483" y="366" on="0"/>
        <pt x="483" y="435" on="1"/>
        <pt x="483" y="630" on="1"/>
        <pt x="598" y="630" on="1"/>
        <pt x="598" y="81" on="1"/>
        <pt x="598" y="23" on="0"/>
        <pt x="582" y="-76" on="0"/>
        <pt x="541" y="-157" on="0"/>
        <pt x="472" y="-221" on="0"/>
        <pt x="419" y="-245" on="1"/>
        <pt x="367" y="-162" on="1"/>
        <pt x="413" y="-137" on="0"/>
        <pt x="472" y="-63" on="0"/>
        <pt x="481" y="0" on="1"/>
        <pt x="259" y="335" on="1"/>
        <pt x="236" y="369" on="0"/>
        <pt x="195" y="443" on="0"/>
        <pt x="184" y="466" on="1"/>
        <pt x="182" y="466" on="1"/>
        <pt x="187" y="392" on="0"/>
        <pt x="188" y="253" on="0"/>
        <pt x="188" y="181" on="1"/>
        <pt x="188" y="0" on="1"/>
        <pt x="73" y="0" on="1"/>
      </contour>
    </TTGlyph>
    <TTGlyph name="Eogonek" xMin="73" yMin="-206" xMax="514" yMax="630">
      <contour>
        <pt x="73" y="630" on="1"/>
        <pt x="473" y="630" on="1"/>
        <pt x="473" y="534" on="1"/>
        <pt x="195" y="534" on="1"/>
        <pt x="195" y="375" on="1"/>
        <pt x="447" y="375" on="1"/>
        <pt x="447" y="280" on="1"/>
        <pt x="195" y="280" on="1"/>
        <pt x="195" y="96" on="1"/>
        <pt x="476" y="96" on="1"/>
        <pt x="476" y="0" on="1"/>
        <pt x="444" y="-19" on="0"/>
        <pt x="405" y="-59" on="0"/>
        <pt x="405" y="-85" on="1"/>
        <pt x="405" y="-107" on="0"/>
        <pt x="431" y="-131" on="0"/>
        <pt x="453" y="-131" on="1"/>
        <pt x="478" y="-131" on="0"/>
        <pt x="497" y="-123" on="1"/>
        <pt x="514" y="-185" on="1"/>
        <pt x="497" y="-195" on="0"/>
        <pt x="454" y="-206" on="0"/>
        <pt x="430" y="-206" on="1"/>
        <pt x="384" y="-206" on="0"/>
        <pt x="323" y="-154" on="0"/>
        <pt x="323" y="-107" on="1"/>
        <pt x="323" y="-70" on="0"/>
        <pt x="361" y="-18" on="0"/>
        <pt x="385" y="-3" on="1"/>
        <pt x="385" y="0" on="1"/>
        <pt x="73" y="0" on="1"/>
      </contour>
    </TTGlyph>
    <TTGlyph name="Esmall" xMin="69" yMin="0" xMax="403" yMax="475">
      <contour>
        <pt x="69" y="475" on="1"/>
        <pt x="401" y="475" on="1"/>
        <pt x="401" y="387" on="1"/>
        <pt x="185" y="387" on="1"/>
        <pt x="185" y="286" on="1"/>
        <pt x="379" y="286" on="1"/>
        <pt x="379" y="199" on="1"/>
        <pt x="185" y="199" on="1"/>
        <pt x="185" y="88" on="1"/>
        <pt x="403" y="88" on="1"/>
        <pt x="403" y="0" on="1"/>
        <pt x="69" y="0" on="1"/>
      </contour>
    </TTGlyph>
    <TTGlyph name="Eth" xMin="25" yMin="0" xMax="644" yMax="630">
      <contour>
        <pt x="323" y="630" on="1"/>
        <pt x="394" y="630" on="0"/>
        <pt x="512" y="592" on="0"/>
        <pt x="597" y="516" on="0"/>
        <pt x="644" y="403" on="0"/>
        <pt x="644" y="328" on="1"/>
        <pt x="644" y="241" on="0"/>
        <pt x="588" y="116" on="0"/>
        <pt x="492" y="37" on="0"/>
        <pt x="365" y="0" on="0"/>
        <pt x="293" y="0" on="1"/>
        <pt x="108" y="0" on="1"/>
        <pt x="108" y="283" on="1"/>
        <pt x="25" y="283" on="1"/>
        <pt x="25" y="365" on="1"/>
        <pt x="108" y="365" on="1"/>
        <pt x="108" y="630" on="1"/>
      </contour>
      <contour>
        <pt x="350" y="365" on="1"/>
        <pt x="350" y="283" on="1"/>
        <pt x="230" y="283" on="1"/>
        <pt x="230" y="96" on="1"/>
        <pt x="284" y="96" on="1"/>
        <pt x="328" y="96" on="0"/>
        <pt x="411" y="117" on="0"/>
        <pt x="475" y="169" on="0"/>
        <pt x="514" y="259" on="0"/>
        <pt x="514" y="328" on="1"/>
        <pt x="514" y="428" on="0"/>
        <pt x="401" y="534" on="0"/>
        <pt x="305" y="534" on="1"/>
        <pt x="230" y="534" on="1"/>
        <pt x="230" y="365" on="1"/>
      </contour>
    </TTGlyph>
    <TTGlyph name="Euro" xMin="20" yMin="-8" xMax="450" yMax="513">
      <contour>
        <pt x="310" y="513" on="1"/>
        <pt x="363" y="513" on="0"/>
        <pt x="426" y="492" on="0"/>
        <pt x="450" y="479" on="1"/>
        <pt x="423" y="401" on="1"/>
        <pt x="400" y="413" on="0"/>
        <pt x="351" y="428" on="0"/>
        <pt x="321" y="428" on="1"/>
        <pt x="272" y="428" on="0"/>
        <pt x="195" y="376" on="0"/>
        <pt x="185" y="319" on="1"/>
        <pt x="385" y="319" on="1"/>
        <pt x="385" y="265" on="1"/>
        <pt x="179" y="265" on="1"/>
        <pt x="179" y="221" on="1"/>
        <pt x="385" y="221" on="1"/>
        <pt x="385" y="167" on="1"/>
        <pt x="189" y="167" on="1"/>
        <pt x="203" y="118" on="0"/>
        <pt x="273" y="76" on="0"/>
        <pt x="318" y="76" on="1"/>
        <pt x="353" y="76" on="0"/>
        <pt x="404" y="89" on="0"/>
        <pt x="425" y="100" on="1"/>
        <pt x="448" y="23" on="1"/>
        <pt x="425" y="10" on="0"/>
        <pt x="358" y="-8" on="0"/>
        <pt x="307" y="-8" on="1"/>
        <pt x="220" y="-8" on="0"/>
        <pt x="99" y="80" on="0"/>
        <pt x="79" y="167" on="1"/>
        <pt x="20" y="167" on="1"/>
        <pt x="20" y="221" on="1"/>
        <pt x="71" y="221" on="1"/>
        <pt x="71" y="265" on="1"/>
        <pt x="20" y="265" on="1"/>
        <pt x="20" y="319" on="1"/>
        <pt x="77" y="319" on="1"/>
        <pt x="93" y="411" on="0"/>
        <pt x="213" y="513" on="0"/>
      </contour>
    </TTGlyph>
    <TTGlyph name="Euro.lat" xMin="5" yMin="-10" xMax="532" yMax="640">
      <contour>
        <pt x="372" y="86" on="1"/>
        <pt x="415" y="86" on="0"/>
        <pt x="478" y="102" on="0"/>
        <pt x="504" y="116" on="1"/>
        <pt x="530" y="24" on="1"/>
        <pt x="502" y="10" on="0"/>
        <pt x="421" y="-10" on="0"/>
        <pt x="359" y="-10" on="1"/>
        <pt x="306" y="-10" on="0"/>
        <pt x="213" y="19" on="0"/>
        <pt x="139" y="75" on="0"/>
        <pt x="88" y="159" on="0"/>
        <pt x="76" y="215" on="1"/>
        <pt x="5" y="215" on="1"/>
        <pt x="5" y="276" on="1"/>
        <pt x="67" y="276" on="1"/>
        <pt x="66" y="290" on="0"/>
        <pt x="66" y="307" on="0"/>
        <pt x="66" y="316" on="1"/>
        <pt x="66" y="331" on="1"/>
        <pt x="5" y="331" on="1"/>
        <pt x="5" y="392" on="1"/>
        <pt x="74" y="392" on="1"/>
        <pt x="94" y="510" on="0"/>
        <pt x="242" y="640" on="0"/>
        <pt x="362" y="640" on="1"/>
        <pt x="426" y="640" on="0"/>
        <pt x="503" y="618" on="0"/>
        <pt x="532" y="603" on="1"/>
        <pt x="504" y="511" on="1"/>
        <pt x="474" y="526" on="0"/>
        <pt x="413" y="544" on="0"/>
        <pt x="376" y="544" on="1"/>
        <pt x="345" y="544" on="0"/>
        <pt x="288" y="526" on="0"/>
        <pt x="241" y="489" on="0"/>
        <pt x="208" y="432" on="0"/>
        <pt x="202" y="392" on="1"/>
        <pt x="453" y="392" on="1"/>
        <pt x="453" y="331" on="1"/>
        <pt x="194" y="331" on="1"/>
        <pt x="194" y="319" on="1"/>
        <pt x="194" y="309" on="0"/>
        <pt x="194" y="291" on="0"/>
        <pt x="195" y="276" on="1"/>
        <pt x="453" y="276" on="1"/>
        <pt x="453" y="215" on="1"/>
        <pt x="207" y="215" on="1"/>
        <pt x="224" y="145" on="0"/>
        <pt x="315" y="86" on="0"/>
      </contour>
    </TTGlyph>
    <TTGlyph name="F" xMin="73" yMin="0" xMax="463" yMax="630">
      <contour>
        <pt x="463" y="630" on="1"/>
        <pt x="463" y="534" on="1"/>
        <pt x="195" y="534" on="1"/>
        <pt x="195" y="355" on="1"/>
        <pt x="441" y="355" on="1"/>
        <pt x="441" y="260" on="1"/>
        <pt x="195" y="260" on="1"/>
        <pt x="195" y="0" on="1"/>
        <pt x="73" y="0" on="1"/>
        <pt x="73" y="630" on="1"/>
      </contour>
    </TTGlyph>
    <TTGlyph name="Five.tm" xMin="39" yMin="-260" xMax="950" yMax="752">
      <contour>
        <pt x="773" y="318" on="1"/>
        <pt x="814" y="318" on="0"/>
        <pt x="879" y="288" on="0"/>
        <pt x="925" y="232" on="0"/>
        <pt x="950" y="153" on="0"/>
        <pt x="950" y="105" on="1"/>
        <pt x="950" y="26" on="0"/>
        <pt x="888" y="-108" on="0"/>
        <pt x="774" y="-205" on="0"/>
        <pt x="614" y="-260" on="0"/>
        <pt x="517" y="-260" on="1"/>
        <pt x="412" y="-260" on="0"/>
        <pt x="236" y="-194" on="0"/>
        <pt x="110" y="-69" on="0"/>
        <pt x="39" y="113" on="0"/>
        <pt x="39" y="229" on="1"/>
        <pt x="39" y="345" on="0"/>
        <pt x="109" y="538" on="0"/>
        <pt x="241" y="676" on="0"/>
        <pt x="432" y="752" on="0"/>
        <pt x="552" y="752" on="1"/>
        <pt x="618" y="752" on="0"/>
        <pt x="728" y="729" on="0"/>
        <pt x="816" y="695" on="0"/>
        <pt x="883" y="653" on="0"/>
        <pt x="905" y="635" on="1"/>
        <pt x="859" y="564" on="1"/>
        <pt x="835" y="582" on="0"/>
        <pt x="771" y="616" on="0"/>
        <pt x="693" y="643" on="0"/>
        <pt x="601" y="660" on="0"/>
        <pt x="547" y="660" on="1"/>
        <pt x="451" y="660" on="0"/>
        <pt x="302" y="600" on="0"/>
        <pt x="201" y="489" on="0"/>
        <pt x="149" y="329" on="0"/>
        <pt x="149" y="230" on="1"/>
        <pt x="149" y="134" on="0"/>
        <pt x="200" y="-15" on="0"/>
        <pt x="297" y="-117" on="0"/>
        <pt x="435" y="-170" on="0"/>
        <pt x="522" y="-170" on="1"/>
        <pt x="598" y="-170" on="0"/>
        <pt x="716" y="-129" on="0"/>
        <pt x="797" y="-57" on="0"/>
        <pt x="839" y="43" on="0"/>
        <pt x="839" y="102" on="1"/>
        <pt x="839" y="163" on="0"/>
        <pt x="793" y="234" on="0"/>
        <pt x="748" y="234" on="1"/>
        <pt x="707" y="234" on="0"/>
        <pt x="680" y="198" on="1"/>
        <pt x="680" y="0" on="1"/>
        <pt x="573" y="0" on="1"/>
        <pt x="573" y="415" on="1"/>
        <pt x="430" y="415" on="1"/>
        <pt x="430" y="0" on="1"/>
        <pt x="321" y="0" on="1"/>
        <pt x="321" y="501" on="1"/>
        <pt x="851" y="501" on="1"/>
        <pt x="851" y="415" on="1"/>
        <pt x="680" y="415" on="1"/>
        <pt x="680" y="287" on="1"/>
        <pt x="719" y="318" on="0"/>
      </contour>
    </TTGlyph>
    <TTGlyph name="Four.tm" xMin="26" yMin="-9" xMax="731" yMax="501">
      <contour>
        <pt x="731" y="501" on="1"/>
        <pt x="731" y="219" on="1"/>
        <pt x="437" y="219" on="1"/>
        <pt x="437" y="157" on="1"/>
        <pt x="437" y="81" on="0"/>
        <pt x="334" y="-9" on="0"/>
        <pt x="237" y="-9" on="1"/>
        <pt x="191" y="-9" on="0"/>
        <pt x="114" y="14" on="0"/>
        <pt x="58" y="58" on="0"/>
        <pt x="26" y="120" on="0"/>
        <pt x="26" y="158" on="1"/>
        <pt x="26" y="185" on="0"/>
        <pt x="42" y="229" on="0"/>
        <pt x="69" y="264" on="0"/>
        <pt x="104" y="286" on="0"/>
        <pt x="123" y="290" on="1"/>
        <pt x="123" y="501" on="1"/>
        <pt x="570" y="501" on="1"/>
        <pt x="570" y="419" on="1"/>
        <pt x="437" y="419" on="1"/>
        <pt x="437" y="298" on="1"/>
        <pt x="634" y="298" on="1"/>
        <pt x="634" y="501" on="1"/>
      </contour>
      <contour>
        <pt x="208" y="219" on="1"/>
        <pt x="173" y="219" on="0"/>
        <pt x="131" y="186" on="0"/>
        <pt x="131" y="154" on="1"/>
        <pt x="131" y="119" on="0"/>
        <pt x="189" y="74" on="0"/>
        <pt x="239" y="74" on="1"/>
        <pt x="285" y="74" on="0"/>
        <pt x="337" y="121" on="0"/>
        <pt x="337" y="161" on="1"/>
        <pt x="337" y="219" on="1"/>
      </contour>
      <contour>
        <pt x="223" y="300" on="1"/>
        <pt x="338" y="300" on="1"/>
        <pt x="338" y="419" on="1"/>
        <pt x="223" y="419" on="1"/>
      </contour>
    </TTGlyph>
    <TTGlyph name="Fsmall" xMin="69" yMin="0" xMax="392" yMax="475">
      <contour>
        <pt x="392" y="475" on="1"/>
        <pt x="392" y="387" on="1"/>
        <pt x="187" y="387" on="1"/>
        <pt x="187" y="270" on="1"/>
        <pt x="374" y="270" on="1"/>
        <pt x="374" y="182" on="1"/>
        <pt x="187" y="182" on="1"/>
        <pt x="187" y="0" on="1"/>
        <pt x="69" y="0" on="1"/>
        <pt x="69" y="475" on="1"/>
      </contour>
    </TTGlyph>
    <TTGlyph name="G" xMin="41" yMin="-10" xMax="574" yMax="640">
      <contour>
        <pt x="366" y="640" on="1"/>
        <pt x="423" y="640" on="0"/>
        <pt x="514" y="622" on="0"/>
        <pt x="551" y="604" on="1"/>
        <pt x="525" y="518" on="1"/>
        <pt x="490" y="535" on="0"/>
        <pt x="416" y="550" on="0"/>
        <pt x="378" y="550" on="1"/>
        <pt x="336" y="550" on="0"/>
        <pt x="261" y="524" on="0"/>
        <pt x="204" y="467" on="0"/>
        <pt x="171" y="378" on="0"/>
        <pt x="171" y="314" on="1"/>
        <pt x="171" y="201" on="0"/>
        <pt x="272" y="81" on="0"/>
        <pt x="366" y="81" on="1"/>
        <pt x="425" y="81" on="0"/>
        <pt x="458" y="94" on="1"/>
        <pt x="458" y="250" on="1"/>
        <pt x="349" y="250" on="1"/>
        <pt x="349" y="342" on="1"/>
        <pt x="574" y="342" on="1"/>
        <pt x="574" y="28" on="1"/>
        <pt x="534" y="11" on="0"/>
        <pt x="432" y="-10" on="0"/>
        <pt x="366" y="-10" on="1"/>
        <pt x="298" y="-10" on="0"/>
        <pt x="179" y="32" on="0"/>
        <pt x="91" y="114" on="0"/>
        <pt x="41" y="235" on="0"/>
        <pt x="41" y="314" on="1"/>
        <pt x="41" y="393" on="0"/>
        <pt x="91" y="515" on="0"/>
        <pt x="178" y="598" on="0"/>
        <pt x="297" y="640" on="0"/>
      </contour>
    </TTGlyph>
    <TTGlyph name="Gbreve" xMin="41" yMin="-10" xMax="574" yMax="830">
      <contour>
        <pt x="366" y="640" on="1"/>
        <pt x="423" y="640" on="0"/>
        <pt x="514" y="622" on="0"/>
        <pt x="551" y="604" on="1"/>
        <pt x="525" y="518" on="1"/>
        <pt x="490" y="535" on="0"/>
        <pt x="416" y="550" on="0"/>
        <pt x="378" y="550" on="1"/>
        <pt x="336" y="550" on="0"/>
        <pt x="261" y="524" on="0"/>
        <pt x="204" y="467" on="0"/>
        <pt x="171" y="378" on="0"/>
        <pt x="171" y="314" on="1"/>
        <pt x="171" y="201" on="0"/>
        <pt x="272" y="81" on="0"/>
        <pt x="366" y="81" on="1"/>
        <pt x="425" y="81" on="0"/>
        <pt x="458" y="94" on="1"/>
        <pt x="458" y="250" on="1"/>
        <pt x="349" y="250" on="1"/>
        <pt x="349" y="342" on="1"/>
        <pt x="574" y="342" on="1"/>
        <pt x="574" y="28" on="1"/>
        <pt x="534" y="11" on="0"/>
        <pt x="432" y="-10" on="0"/>
        <pt x="366" y="-10" on="1"/>
        <pt x="298" y="-10" on="0"/>
        <pt x="179" y="32" on="0"/>
        <pt x="91" y="114" on="0"/>
        <pt x="41" y="235" on="0"/>
        <pt x="41" y="314" on="1"/>
        <pt x="41" y="393" on="0"/>
        <pt x="91" y="515" on="0"/>
        <pt x="178" y="598" on="0"/>
        <pt x="297" y="640" on="0"/>
      </contour>
      <contour>
        <pt x="305" y="830" on="1"/>
        <pt x="307" y="802" on="0"/>
        <pt x="334" y="770" on="0"/>
        <pt x="368" y="770" on="1"/>
        <pt x="424" y="770" on="0"/>
        <pt x="429" y="830" on="1"/>
        <pt x="501" y="830" on="1"/>
        <pt x="501" y="772" on="0"/>
        <pt x="432" y="703" on="0"/>
        <pt x="367" y="703" on="1"/>
        <pt x="331" y="703" on="0"/>
        <pt x="280" y="724" on="0"/>
        <pt x="247" y="759" on="0"/>
        <pt x="232" y="805" on="0"/>
        <pt x="232" y="830" on="1"/>
      </contour>
    </TTGlyph>
    <TTGlyph name="Gcircumflex" xMin="41" yMin="-10" xMax="574" yMax="829">
      <contour>
        <pt x="366" y="640" on="1"/>
        <pt x="423" y="640" on="0"/>
        <pt x="514" y="622" on="0"/>
        <pt x="551" y="604" on="1"/>
        <pt x="525" y="518" on="1"/>
        <pt x="490" y="535" on="0"/>
        <pt x="416" y="550" on="0"/>
        <pt x="378" y="550" on="1"/>
        <pt x="336" y="550" on="0"/>
        <pt x="261" y="524" on="0"/>
        <pt x="204" y="467" on="0"/>
        <pt x="171" y="378" on="0"/>
        <pt x="171" y="314" on="1"/>
        <pt x="171" y="201" on="0"/>
        <pt x="272" y="81" on="0"/>
        <pt x="366" y="81" on="1"/>
        <pt x="425" y="81" on="0"/>
        <pt x="458" y="94" on="1"/>
        <pt x="458" y="250" on="1"/>
        <pt x="349" y="250" on="1"/>
        <pt x="349" y="342" on="1"/>
        <pt x="574" y="342" on="1"/>
        <pt x="574" y="28" on="1"/>
        <pt x="534" y="11" on="0"/>
        <pt x="432" y="-10" on="0"/>
        <pt x="366" y="-10" on="1"/>
        <pt x="298" y="-10" on="0"/>
        <pt x="179" y="32" on="0"/>
        <pt x="91" y="114" on="0"/>
        <pt x="41" y="235" on="0"/>
        <pt x="41" y="314" on="1"/>
        <pt x="41" y="393" on="0"/>
        <pt x="91" y="515" on="0"/>
        <pt x="178" y="598" on="0"/>
        <pt x="297" y="640" on="0"/>
      </contour>
      <contour>
        <pt x="299" y="829" on="1"/>
        <pt x="388" y="829" on="1"/>
        <pt x="508" y="700" on="1"/>
        <pt x="413" y="700" on="1"/>
        <pt x="343" y="774" on="1"/>
        <pt x="273" y="700" on="1"/>
        <pt x="182" y="700" on="1"/>
      </contour>
    </TTGlyph>
    <TTGlyph name="Gcommaaccent" xMin="41" yMin="-329" xMax="574" yMax="640">
      <contour>
        <pt x="366" y="640" on="1"/>
        <pt x="423" y="640" on="0"/>
        <pt x="514" y="622" on="0"/>
        <pt x="551" y="604" on="1"/>
        <pt x="525" y="518" on="1"/>
        <pt x="490" y="535" on="0"/>
        <pt x="416" y="550" on="0"/>
        <pt x="378" y="550" on="1"/>
        <pt x="336" y="550" on="0"/>
        <pt x="261" y="524" on="0"/>
        <pt x="204" y="467" on="0"/>
        <pt x="171" y="378" on="0"/>
        <pt x="171" y="314" on="1"/>
        <pt x="171" y="201" on="0"/>
        <pt x="272" y="81" on="0"/>
        <pt x="366" y="81" on="1"/>
        <pt x="425" y="81" on="0"/>
        <pt x="458" y="94" on="1"/>
        <pt x="458" y="250" on="1"/>
        <pt x="349" y="250" on="1"/>
        <pt x="349" y="342" on="1"/>
        <pt x="574" y="342" on="1"/>
        <pt x="574" y="28" on="1"/>
        <pt x="534" y="11" on="0"/>
        <pt x="432" y="-10" on="0"/>
        <pt x="366" y="-10" on="1"/>
        <pt x="298" y="-10" on="0"/>
        <pt x="179" y="32" on="0"/>
        <pt x="91" y="114" on="0"/>
        <pt x="41" y="235" on="0"/>
        <pt x="41" y="314" on="1"/>
        <pt x="41" y="393" on="0"/>
        <pt x="91" y="515" on="0"/>
        <pt x="178" y="598" on="0"/>
        <pt x="297" y="640" on="0"/>
      </contour>
      <contour>
        <pt x="353" y="-193" on="1"/>
        <pt x="331" y="-188" on="0"/>
        <pt x="297" y="-156" on="0"/>
        <pt x="297" y="-129" on="1"/>
        <pt x="297" y="-103" on="0"/>
        <pt x="331" y="-65" on="0"/>
        <pt x="362" y="-65" on="1"/>
        <pt x="374" y="-65" on="0"/>
        <pt x="401" y="-75" on="0"/>
        <pt x="424" y="-98" on="0"/>
        <pt x="438" y="-134" on="0"/>
        <pt x="438" y="-160" on="1"/>
        <pt x="438" y="-186" on="0"/>
        <pt x="420" y="-236" on="0"/>
        <pt x="389" y="-281" on="0"/>
        <pt x="348" y="-317" on="0"/>
        <pt x="326" y="-329" on="1"/>
        <pt x="297" y="-289" on="1"/>
        <pt x="324" y="-274" on="0"/>
        <pt x="366" y="-223" on="0"/>
        <pt x="370" y="-196" on="1"/>
      </contour>
    </TTGlyph>
    <TTGlyph name="Gdotaccent" xMin="41" yMin="-10" xMax="574" yMax="818">
      <contour>
        <pt x="366" y="640" on="1"/>
        <pt x="423" y="640" on="0"/>
        <pt x="514" y="622" on="0"/>
        <pt x="551" y="604" on="1"/>
        <pt x="525" y="518" on="1"/>
        <pt x="490" y="535" on="0"/>
        <pt x="416" y="550" on="0"/>
        <pt x="378" y="550" on="1"/>
        <pt x="336" y="550" on="0"/>
        <pt x="261" y="524" on="0"/>
        <pt x="204" y="467" on="0"/>
        <pt x="171" y="378" on="0"/>
        <pt x="171" y="314" on="1"/>
        <pt x="171" y="201" on="0"/>
        <pt x="272" y="81" on="0"/>
        <pt x="366" y="81" on="1"/>
        <pt x="425" y="81" on="0"/>
        <pt x="458" y="94" on="1"/>
        <pt x="458" y="250" on="1"/>
        <pt x="349" y="250" on="1"/>
        <pt x="349" y="342" on="1"/>
        <pt x="574" y="342" on="1"/>
        <pt x="574" y="28" on="1"/>
        <pt x="534" y="11" on="0"/>
        <pt x="432" y="-10" on="0"/>
        <pt x="366" y="-10" on="1"/>
        <pt x="298" y="-10" on="0"/>
        <pt x="179" y="32" on="0"/>
        <pt x="91" y="114" on="0"/>
        <pt x="41" y="235" on="0"/>
        <pt x="41" y="314" on="1"/>
        <pt x="41" y="393" on="0"/>
        <pt x="91" y="515" on="0"/>
        <pt x="178" y="598" on="0"/>
        <pt x="297" y="640" on="0"/>
      </contour>
      <contour>
        <pt x="304" y="757" on="1"/>
        <pt x="304" y="782" on="0"/>
        <pt x="340" y="818" on="0"/>
        <pt x="366" y="818" on="1"/>
        <pt x="392" y="818" on="0"/>
        <pt x="427" y="782" on="0"/>
        <pt x="427" y="757" on="1"/>
        <pt x="427" y="731" on="0"/>
        <pt x="392" y="694" on="0"/>
        <pt x="366" y="694" on="1"/>
        <pt x="340" y="694" on="0"/>
        <pt x="304" y="731" on="0"/>
      </contour>
    </TTGlyph>
    <TTGlyph name="Gsmall" xMin="42" yMin="-10" xMax="462" yMax="484">
      <contour>
        <pt x="304" y="78" on="1"/>
        <pt x="318" y="78" on="0"/>
        <pt x="348" y="81" on="0"/>
        <pt x="359" y="86" on="1"/>
        <pt x="359" y="177" on="1"/>
        <pt x="277" y="177" on="1"/>
        <pt x="277" y="262" on="1"/>
        <pt x="462" y="262" on="1"/>
        <pt x="462" y="18" on="1"/>
        <pt x="429" y="4" on="0"/>
        <pt x="342" y="-10" on="0"/>
        <pt x="297" y="-10" on="1"/>
        <pt x="243" y="-10" on="0"/>
        <pt x="150" y="21" on="0"/>
        <pt x="81" y="82" on="0"/>
        <pt x="42" y="173" on="0"/>
        <pt x="42" y="234" on="1"/>
        <pt x="42" y="291" on="0"/>
        <pt x="79" y="384" on="0"/>
        <pt x="146" y="449" on="0"/>
        <pt x="240" y="484" on="0"/>
        <pt x="297" y="484" on="1"/>
        <pt x="334" y="484" on="0"/>
        <pt x="410" y="472" on="0"/>
        <pt x="448" y="455" on="1"/>
        <pt x="424" y="371" on="1"/>
        <pt x="399" y="385" on="0"/>
        <pt x="340" y="397" on="0"/>
        <pt x="311" y="397" on="1"/>
        <pt x="240" y="397" on="0"/>
        <pt x="162" y="312" on="0"/>
        <pt x="162" y="237" on="1"/>
        <pt x="162" y="192" on="0"/>
        <pt x="186" y="131" on="0"/>
        <pt x="225" y="94" on="0"/>
        <pt x="277" y="78" on="0"/>
      </contour>
    </TTGlyph>
    <TTGlyph name="H" xMin="73" yMin="0" xMax="576" yMax="630">
      <contour>
        <pt x="73" y="0" on="1"/>
        <pt x="73" y="630" on="1"/>
        <pt x="195" y="630" on="1"/>
        <pt x="195" y="375" on="1"/>
        <pt x="454" y="375" on="1"/>
        <pt x="454" y="630" on="1"/>
        <pt x="576" y="630" on="1"/>
        <pt x="576" y="0" on="1"/>
        <pt x="454" y="0" on="1"/>
        <pt x="454" y="277" on="1"/>
        <pt x="195" y="277" on="1"/>
        <pt x="195" y="0" on="1"/>
      </contour>
    </TTGlyph>
    <TTGlyph name="Ha.tm" xMin="8" yMin="-292" xMax="1346" yMax="509">
      <contour>
        <pt x="454" y="64" on="1"/>
        <pt x="476" y="96" on="0"/>
        <pt x="499" y="179" on="0"/>
        <pt x="499" y="230" on="1"/>
        <pt x="499" y="272" on="0"/>
        <pt x="474" y="342" on="0"/>
        <pt x="428" y="391" on="0"/>
        <pt x="363" y="419" on="0"/>
        <pt x="322" y="419" on="1"/>
        <pt x="283" y="419" on="0"/>
        <pt x="218" y="395" on="0"/>
        <pt x="170" y="353" on="0"/>
        <pt x="141" y="293" on="0"/>
        <pt x="137" y="257" on="1"/>
        <pt x="156" y="277" on="0"/>
        <pt x="208" y="300" on="0"/>
        <pt x="240" y="300" on="1"/>
        <pt x="273" y="300" on="0"/>
        <pt x="330" y="278" on="0"/>
        <pt x="372" y="239" on="0"/>
        <pt x="395" y="183" on="0"/>
        <pt x="395" y="150" on="1"/>
        <pt x="395" y="114" on="0"/>
        <pt x="368" y="55" on="0"/>
        <pt x="322" y="13" on="0"/>
        <pt x="259" y="-9" on="0"/>
        <pt x="223" y="-9" on="1"/>
        <pt x="181" y="-9" on="0"/>
        <pt x="113" y="23" on="0"/>
        <pt x="63" y="82" on="0"/>
        <pt x="36" y="167" on="0"/>
        <pt x="36" y="221" on="1"/>
        <pt x="36" y="286" on="0"/>
        <pt x="79" y="393" on="0"/>
        <pt x="157" y="468" on="0"/>
        <pt x="264" y="509" on="0"/>
        <pt x="327" y="509" on="1"/>
        <pt x="387" y="509" on="0"/>
        <pt x="491" y="470" on="0"/>
        <pt x="568" y="399" on="0"/>
        <pt x="611" y="299" on="0"/>
        <pt x="611" y="239" on="1"/>
        <pt x="611" y="188" on="0"/>
        <pt x="589" y="111" on="0"/>
        <pt x="577" y="86" on="1"/>
        <pt x="710" y="86" on="1"/>
        <pt x="710" y="335" on="1"/>
        <pt x="710" y="381" on="0"/>
        <pt x="735" y="447" on="0"/>
        <pt x="779" y="489" on="0"/>
        <pt x="838" y="509" on="0"/>
        <pt x="872" y="509" on="1"/>
        <pt x="900" y="509" on="0"/>
        <pt x="945" y="494" on="0"/>
        <pt x="979" y="470" on="0"/>
        <pt x="1002" y="439" on="0"/>
        <pt x="1008" y="423" on="1"/>
        <pt x="1018" y="456" on="0"/>
        <pt x="1080" y="509" on="0"/>
        <pt x="1135" y="509" on="1"/>
        <pt x="1175" y="509" on="0"/>
        <pt x="1251" y="472" on="0"/>
        <pt x="1310" y="396" on="0"/>
        <pt x="1346" y="276" on="0"/>
        <pt x="1346" y="194" on="1"/>
        <pt x="1346" y="26" on="0"/>
        <pt x="1171" y="-155" on="0"/>
        <pt x="994" y="-155" on="1"/>
        <pt x="171" y="-155" on="1"/>
        <pt x="118" y="-155" on="0"/>
        <pt x="118" y="-201" on="1"/>
        <pt x="118" y="-215" on="0"/>
        <pt x="128" y="-242" on="0"/>
        <pt x="135" y="-256" on="1"/>
        <pt x="41" y="-292" on="1"/>
        <pt x="28" y="-272" on="0"/>
        <pt x="8" y="-217" on="0"/>
        <pt x="8" y="-188" on="1"/>
        <pt x="8" y="-155" on="0"/>
        <pt x="30" y="-110" on="0"/>
        <pt x="66" y="-81" on="0"/>
        <pt x="113" y="-69" on="0"/>
        <pt x="138" y="-69" on="1"/>
        <pt x="1005" y="-69" on="1"/>
        <pt x="1068" y="-69" on="0"/>
        <pt x="1155" y="-33" on="0"/>
        <pt x="1210" y="36" on="0"/>
        <pt x="1234" y="135" on="0"/>
        <pt x="1234" y="197" on="1"/>
        <pt x="1234" y="310" on="0"/>
        <pt x="1171" y="417" on="0"/>
        <pt x="1125" y="417" on="1"/>
        <pt x="1093" y="417" on="0"/>
        <pt x="1062" y="376" on="0"/>
        <pt x="1062" y="340" on="1"/>
        <pt x="1062" y="0" on="1"/>
        <pt x="953" y="0" on="1"/>
        <pt x="953" y="336" on="1"/>
        <pt x="953" y="372" on="0"/>
        <pt x="918" y="417" on="0"/>
        <pt x="883" y="417" on="1"/>
        <pt x="850" y="417" on="0"/>
        <pt x="819" y="374" on="0"/>
        <pt x="819" y="337" on="1"/>
        <pt x="819" y="0" on="1"/>
        <pt x="482" y="0" on="1"/>
      </contour>
      <contour>
        <pt x="219" y="219" on="1"/>
        <pt x="192" y="219" on="0"/>
        <pt x="153" y="187" on="0"/>
        <pt x="142" y="162" on="1"/>
        <pt x="147" y="121" on="0"/>
        <pt x="191" y="78" on="0"/>
        <pt x="223" y="78" on="1"/>
        <pt x="252" y="78" on="0"/>
        <pt x="289" y="117" on="0"/>
        <pt x="289" y="149" on="1"/>
        <pt x="289" y="181" on="0"/>
        <pt x="251" y="219" on="0"/>
      </contour>
    </TTGlyph>
    <TTGlyph name="HaMatraI.tm" xMin="9" yMin="-292" xMax="1558" yMax="757">
      <contour>
        <pt x="1339" y="757" on="1"/>
        <pt x="1389" y="757" on="0"/>
        <pt x="1470" y="727" on="0"/>
        <pt x="1527" y="670" on="0"/>
        <pt x="1558" y="587" on="0"/>
        <pt x="1558" y="535" on="1"/>
        <pt x="1558" y="0" on="1"/>
        <pt x="1449" y="0" on="1"/>
        <pt x="1449" y="530" on="1"/>
        <pt x="1449" y="596" on="0"/>
        <pt x="1391" y="666" on="0"/>
        <pt x="1335" y="666" on="1"/>
        <pt x="1285" y="666" on="0"/>
        <pt x="1230" y="610" on="0"/>
        <pt x="1230" y="564" on="1"/>
        <pt x="1230" y="533" on="0"/>
        <pt x="1254" y="471" on="0"/>
        <pt x="1278" y="433" on="1"/>
        <pt x="1291" y="412" on="0"/>
        <pt x="1316" y="364" on="0"/>
        <pt x="1335" y="305" on="0"/>
        <pt x="1347" y="236" on="0"/>
        <pt x="1347" y="194" on="1"/>
        <pt x="1347" y="26" on="0"/>
        <pt x="1173" y="-155" on="0"/>
        <pt x="995" y="-155" on="1"/>
        <pt x="172" y="-155" on="1"/>
        <pt x="119" y="-155" on="0"/>
        <pt x="119" y="-201" on="1"/>
        <pt x="119" y="-215" on="0"/>
        <pt x="129" y="-242" on="0"/>
        <pt x="136" y="-256" on="1"/>
        <pt x="42" y="-292" on="1"/>
        <pt x="29" y="-272" on="0"/>
        <pt x="9" y="-217" on="0"/>
        <pt x="9" y="-188" on="1"/>
        <pt x="9" y="-155" on="0"/>
        <pt x="31" y="-110" on="0"/>
        <pt x="67" y="-81" on="0"/>
        <pt x="114" y="-69" on="0"/>
        <pt x="139" y="-69" on="1"/>
        <pt x="1006" y="-69" on="1"/>
        <pt x="1069" y="-69" on="0"/>
        <pt x="1157" y="-33" on="0"/>
        <pt x="1211" y="36" on="0"/>
        <pt x="1236" y="135" on="0"/>
        <pt x="1236" y="197" on="1"/>
        <pt x="1236" y="309" on="0"/>
        <pt x="1174" y="416" on="0"/>
        <pt x="1127" y="417" on="1"/>
        <pt x="1094" y="417" on="0"/>
        <pt x="1063" y="376" on="0"/>
        <pt x="1063" y="340" on="1"/>
        <pt x="1063" y="0" on="1"/>
        <pt x="954" y="0" on="1"/>
        <pt x="954" y="336" on="1"/>
        <pt x="954" y="372" on="0"/>
        <pt x="919" y="417" on="0"/>
        <pt x="884" y="417" on="1"/>
        <pt x="851" y="417" on="0"/>
        <pt x="820" y="374" on="0"/>
        <pt x="820" y="337" on="1"/>
        <pt x="820" y="0" on="1"/>
        <pt x="483" y="0" on="1"/>
        <pt x="455" y="64" on="1"/>
        <pt x="477" y="96" on="0"/>
        <pt x="500" y="179" on="0"/>
        <pt x="500" y="230" on="1"/>
        <pt x="500" y="272" on="0"/>
        <pt x="475" y="342" on="0"/>
        <pt x="429" y="391" on="0"/>
        <pt x="364" y="419" on="0"/>
        <pt x="323" y="419" on="1"/>
        <pt x="284" y="419" on="0"/>
        <pt x="219" y="395" on="0"/>
        <pt x="171" y="353" on="0"/>
        <pt x="142" y="293" on="0"/>
        <pt x="138" y="257" on="1"/>
        <pt x="157" y="277" on="0"/>
        <pt x="209" y="300" on="0"/>
        <pt x="241" y="300" on="1"/>
        <pt x="274" y="300" on="0"/>
        <pt x="331" y="278" on="0"/>
        <pt x="373" y="239" on="0"/>
        <pt x="396" y="183" on="0"/>
        <pt x="396" y="150" on="1"/>
        <pt x="396" y="114" on="0"/>
        <pt x="369" y="55" on="0"/>
        <pt x="323" y="13" on="0"/>
        <pt x="260" y="-9" on="0"/>
        <pt x="224" y="-9" on="1"/>
        <pt x="182" y="-9" on="0"/>
        <pt x="114" y="23" on="0"/>
        <pt x="64" y="82" on="0"/>
        <pt x="37" y="167" on="0"/>
        <pt x="37" y="221" on="1"/>
        <pt x="37" y="286" on="0"/>
        <pt x="80" y="393" on="0"/>
        <pt x="158" y="468" on="0"/>
        <pt x="265" y="509" on="0"/>
        <pt x="328" y="509" on="1"/>
        <pt x="388" y="509" on="0"/>
        <pt x="492" y="470" on="0"/>
        <pt x="569" y="399" on="0"/>
        <pt x="612" y="299" on="0"/>
        <pt x="612" y="239" on="1"/>
        <pt x="612" y="188" on="0"/>
        <pt x="590" y="111" on="0"/>
        <pt x="578" y="86" on="1"/>
        <pt x="711" y="86" on="1"/>
        <pt x="711" y="335" on="1"/>
        <pt x="711" y="381" on="0"/>
        <pt x="736" y="447" on="0"/>
        <pt x="780" y="489" on="0"/>
        <pt x="839" y="509" on="0"/>
        <pt x="873" y="509" on="1"/>
        <pt x="901" y="509" on="0"/>
        <pt x="946" y="494" on="0"/>
        <pt x="980" y="470" on="0"/>
        <pt x="1003" y="439" on="0"/>
        <pt x="1009" y="423" on="1"/>
        <pt x="1019" y="454" on="0"/>
        <pt x="1081" y="504" on="0"/>
        <pt x="1135" y="504" on="1"/>
        <pt x="1138" y="504" on="1"/>
        <pt x="1124" y="535" on="0"/>
        <pt x="1124" y="573" on="1"/>
        <pt x="1124" y="612" on="0"/>
        <pt x="1154" y="679" on="0"/>
        <pt x="1210" y="728" on="0"/>
        <pt x="1289" y="757" on="0"/>
      </contour>
      <contour>
        <pt x="220" y="219" on="1"/>
        <pt x="193" y="219" on="0"/>
        <pt x="154" y="187" on="0"/>
        <pt x="143" y="162" on="1"/>
        <pt x="148" y="121" on="0"/>
        <pt x="192" y="78" on="0"/>
        <pt x="224" y="78" on="1"/>
        <pt x="253" y="78" on="0"/>
        <pt x="290" y="117" on="0"/>
        <pt x="290" y="149" on="1"/>
        <pt x="290" y="181" on="0"/>
        <pt x="252" y="219" on="0"/>
      </contour>
    </TTGlyph>
    <TTGlyph name="HaMatraIi.tm" xMin="9" yMin="-292" xMax="1449" yMax="796">
      <contour>
        <pt x="1236" y="197" on="1"/>
        <pt x="1236" y="253" on="0"/>
        <pt x="1218" y="336" on="0"/>
        <pt x="1188" y="390" on="0"/>
        <pt x="1149" y="417" on="0"/>
        <pt x="1127" y="417" on="1"/>
        <pt x="1095" y="417" on="0"/>
        <pt x="1063" y="376" on="0"/>
        <pt x="1063" y="340" on="1"/>
        <pt x="1063" y="0" on="1"/>
        <pt x="955" y="0" on="1"/>
        <pt x="955" y="336" on="1"/>
        <pt x="955" y="372" on="0"/>
        <pt x="920" y="417" on="0"/>
        <pt x="885" y="417" on="1"/>
        <pt x="851" y="417" on="0"/>
        <pt x="821" y="374" on="0"/>
        <pt x="821" y="337" on="1"/>
        <pt x="821" y="0" on="1"/>
        <pt x="483" y="0" on="1"/>
        <pt x="455" y="64" on="1"/>
        <pt x="477" y="96" on="0"/>
        <pt x="500" y="179" on="0"/>
        <pt x="500" y="230" on="1"/>
        <pt x="500" y="272" on="0"/>
        <pt x="475" y="342" on="0"/>
        <pt x="429" y="391" on="0"/>
        <pt x="364" y="419" on="0"/>
        <pt x="323" y="419" on="1"/>
        <pt x="284" y="419" on="0"/>
        <pt x="219" y="395" on="0"/>
        <pt x="171" y="353" on="0"/>
        <pt x="142" y="293" on="0"/>
        <pt x="138" y="257" on="1"/>
        <pt x="157" y="277" on="0"/>
        <pt x="209" y="300" on="0"/>
        <pt x="241" y="300" on="1"/>
        <pt x="274" y="300" on="0"/>
        <pt x="331" y="278" on="0"/>
        <pt x="373" y="239" on="0"/>
        <pt x="396" y="183" on="0"/>
        <pt x="396" y="150" on="1"/>
        <pt x="396" y="114" on="0"/>
        <pt x="369" y="55" on="0"/>
        <pt x="323" y="13" on="0"/>
        <pt x="260" y="-9" on="0"/>
        <pt x="224" y="-9" on="1"/>
        <pt x="182" y="-9" on="0"/>
        <pt x="114" y="23" on="0"/>
        <pt x="64" y="82" on="0"/>
        <pt x="37" y="167" on="0"/>
        <pt x="37" y="221" on="1"/>
        <pt x="37" y="286" on="0"/>
        <pt x="80" y="393" on="0"/>
        <pt x="158" y="468" on="0"/>
        <pt x="265" y="509" on="0"/>
        <pt x="328" y="509" on="1"/>
        <pt x="388" y="509" on="0"/>
        <pt x="492" y="470" on="0"/>
        <pt x="569" y="399" on="0"/>
        <pt x="612" y="299" on="0"/>
        <pt x="612" y="239" on="1"/>
        <pt x="612" y="188" on="0"/>
        <pt x="590" y="111" on="0"/>
        <pt x="578" y="86" on="1"/>
        <pt x="712" y="86" on="1"/>
        <pt x="712" y="335" on="1"/>
        <pt x="712" y="381" on="0"/>
        <pt x="737" y="447" on="0"/>
        <pt x="781" y="489" on="0"/>
        <pt x="840" y="509" on="0"/>
        <pt x="873" y="509" on="1"/>
        <pt x="901" y="509" on="0"/>
        <pt x="946" y="494" on="0"/>
        <pt x="980" y="470" on="0"/>
        <pt x="1004" y="439" on="0"/>
        <pt x="1010" y="423" on="1"/>
        <pt x="1018" y="449" on="0"/>
        <pt x="1063" y="493" on="0"/>
        <pt x="1101" y="501" on="1"/>
        <pt x="1082" y="523" on="0"/>
        <pt x="1059" y="582" on="0"/>
        <pt x="1059" y="613" on="1"/>
        <pt x="1059" y="654" on="0"/>
        <pt x="1091" y="722" on="0"/>
        <pt x="1149" y="770" on="0"/>
        <pt x="1229" y="796" on="0"/>
        <pt x="1278" y="796" on="1"/>
        <pt x="1319" y="796" on="0"/>
        <pt x="1383" y="776" on="0"/>
        <pt x="1426" y="742" on="0"/>
        <pt x="1449" y="696" on="0"/>
        <pt x="1449" y="670" on="1"/>
        <pt x="1449" y="645" on="0"/>
        <pt x="1430" y="603" on="0"/>
        <pt x="1397" y="573" on="0"/>
        <pt x="1352" y="556" on="0"/>
        <pt x="1325" y="556" on="1"/>
        <pt x="1272" y="556" on="0"/>
        <pt x="1209" y="617" on="0"/>
        <pt x="1209" y="660" on="1"/>
        <pt x="1209" y="681" on="0"/>
        <pt x="1224" y="715" on="0"/>
        <pt x="1237" y="728" on="1"/>
        <pt x="1202" y="719" on="0"/>
        <pt x="1158" y="659" on="0"/>
        <pt x="1158" y="612" on="1"/>
        <pt x="1159" y="566" on="0"/>
        <pt x="1215" y="494" on="0"/>
        <pt x="1254" y="459" on="1"/>
        <pt x="1272" y="442" on="0"/>
        <pt x="1306" y="394" on="0"/>
        <pt x="1331" y="330" on="0"/>
        <pt x="1347" y="246" on="0"/>
        <pt x="1347" y="194" on="1"/>
        <pt x="1347" y="26" on="0"/>
        <pt x="1172" y="-155" on="0"/>
        <pt x="995" y="-155" on="1"/>
        <pt x="172" y="-155" on="1"/>
        <pt x="119" y="-155" on="0"/>
        <pt x="119" y="-201" on="1"/>
        <pt x="119" y="-215" on="0"/>
        <pt x="129" y="-242" on="0"/>
        <pt x="136" y="-256" on="1"/>
        <pt x="42" y="-292" on="1"/>
        <pt x="29" y="-272" on="0"/>
        <pt x="9" y="-217" on="0"/>
        <pt x="9" y="-188" on="1"/>
        <pt x="9" y="-155" on="0"/>
        <pt x="31" y="-110" on="0"/>
        <pt x="67" y="-81" on="0"/>
        <pt x="114" y="-69" on="0"/>
        <pt x="139" y="-69" on="1"/>
        <pt x="1006" y="-69" on="1"/>
        <pt x="1069" y="-69" on="0"/>
        <pt x="1157" y="-33" on="0"/>
        <pt x="1211" y="36" on="0"/>
        <pt x="1236" y="135" on="0"/>
      </contour>
      <contour>
        <pt x="220" y="219" on="1"/>
        <pt x="193" y="219" on="0"/>
        <pt x="154" y="187" on="0"/>
        <pt x="143" y="162" on="1"/>
        <pt x="148" y="121" on="0"/>
        <pt x="192" y="78" on="0"/>
        <pt x="224" y="78" on="1"/>
        <pt x="253" y="78" on="0"/>
        <pt x="290" y="117" on="0"/>
        <pt x="290" y="149" on="1"/>
        <pt x="290" y="181" on="0"/>
        <pt x="252" y="219" on="0"/>
      </contour>
      <contour>
        <pt x="1369" y="672" on="1"/>
        <pt x="1369" y="695" on="0"/>
        <pt x="1339" y="723" on="0"/>
        <pt x="1317" y="725" on="1"/>
        <pt x="1303" y="718" on="0"/>
        <pt x="1284" y="690" on="0"/>
        <pt x="1284" y="672" on="1"/>
        <pt x="1284" y="652" on="0"/>
        <pt x="1308" y="628" on="0"/>
        <pt x="1327" y="628" on="1"/>
        <pt x="1346" y="628" on="0"/>
        <pt x="1369" y="652" on="0"/>
      </contour>
    </TTGlyph>
    <TTGlyph name="HaMatraU.tm" xMin="9" yMin="-292" xMax="1697" yMax="509">
      <contour>
        <pt x="873" y="509" on="1"/>
        <pt x="901" y="509" on="0"/>
        <pt x="946" y="494" on="0"/>
        <pt x="980" y="470" on="0"/>
        <pt x="1003" y="439" on="0"/>
        <pt x="1009" y="423" on="1"/>
        <pt x="1019" y="453" on="0"/>
        <pt x="1081" y="501" on="0"/>
        <pt x="1136" y="501" on="1"/>
        <pt x="1511" y="501" on="1"/>
        <pt x="1600" y="501" on="0"/>
        <pt x="1697" y="426" on="0"/>
        <pt x="1697" y="362" on="1"/>
        <pt x="1697" y="307" on="0"/>
        <pt x="1622" y="235" on="0"/>
        <pt x="1559" y="235" on="1"/>
        <pt x="1529" y="235" on="0"/>
        <pt x="1479" y="253" on="0"/>
        <pt x="1443" y="284" on="0"/>
        <pt x="1423" y="327" on="0"/>
        <pt x="1423" y="352" on="1"/>
        <pt x="1423" y="374" on="0"/>
        <pt x="1438" y="411" on="0"/>
        <pt x="1452" y="425" on="1"/>
        <pt x="1275" y="425" on="1"/>
        <pt x="1308" y="390" on="0"/>
        <pt x="1347" y="272" on="0"/>
        <pt x="1347" y="194" on="1"/>
        <pt x="1347" y="26" on="0"/>
        <pt x="1172" y="-155" on="0"/>
        <pt x="995" y="-155" on="1"/>
        <pt x="172" y="-155" on="1"/>
        <pt x="119" y="-155" on="0"/>
        <pt x="119" y="-201" on="1"/>
        <pt x="119" y="-215" on="0"/>
        <pt x="129" y="-242" on="0"/>
        <pt x="136" y="-256" on="1"/>
        <pt x="42" y="-292" on="1"/>
        <pt x="29" y="-272" on="0"/>
        <pt x="9" y="-217" on="0"/>
        <pt x="9" y="-188" on="1"/>
        <pt x="9" y="-155" on="0"/>
        <pt x="31" y="-110" on="0"/>
        <pt x="67" y="-81" on="0"/>
        <pt x="114" y="-69" on="0"/>
        <pt x="139" y="-69" on="1"/>
        <pt x="1006" y="-69" on="1"/>
        <pt x="1069" y="-69" on="0"/>
        <pt x="1156" y="-33" on="0"/>
        <pt x="1211" y="36" on="0"/>
        <pt x="1235" y="135" on="0"/>
        <pt x="1235" y="197" on="1"/>
        <pt x="1235" y="309" on="0"/>
        <pt x="1172" y="416" on="0"/>
        <pt x="1126" y="416" on="1"/>
        <pt x="1094" y="416" on="0"/>
        <pt x="1063" y="375" on="0"/>
        <pt x="1063" y="340" on="1"/>
        <pt x="1063" y="0" on="1"/>
        <pt x="954" y="0" on="1"/>
        <pt x="954" y="336" on="1"/>
        <pt x="954" y="372" on="0"/>
        <pt x="919" y="417" on="0"/>
        <pt x="884" y="417" on="1"/>
        <pt x="851" y="417" on="0"/>
        <pt x="820" y="374" on="0"/>
        <pt x="820" y="337" on="1"/>
        <pt x="820" y="0" on="1"/>
        <pt x="483" y="0" on="1"/>
        <pt x="455" y="64" on="1"/>
        <pt x="477" y="96" on="0"/>
        <pt x="500" y="179" on="0"/>
        <pt x="500" y="230" on="1"/>
        <pt x="500" y="272" on="0"/>
        <pt x="475" y="342" on="0"/>
        <pt x="429" y="391" on="0"/>
        <pt x="364" y="419" on="0"/>
        <pt x="323" y="419" on="1"/>
        <pt x="284" y="419" on="0"/>
        <pt x="219" y="395" on="0"/>
        <pt x="171" y="353" on="0"/>
        <pt x="142" y="293" on="0"/>
        <pt x="138" y="257" on="1"/>
        <pt x="157" y="277" on="0"/>
        <pt x="209" y="300" on="0"/>
        <pt x="241" y="300" on="1"/>
        <pt x="274" y="300" on="0"/>
        <pt x="331" y="278" on="0"/>
        <pt x="373" y="239" on="0"/>
        <pt x="396" y="183" on="0"/>
        <pt x="396" y="150" on="1"/>
        <pt x="396" y="114" on="0"/>
        <pt x="369" y="55" on="0"/>
        <pt x="323" y="13" on="0"/>
        <pt x="260" y="-9" on="0"/>
        <pt x="224" y="-9" on="1"/>
        <pt x="182" y="-9" on="0"/>
        <pt x="114" y="23" on="0"/>
        <pt x="64" y="82" on="0"/>
        <pt x="37" y="167" on="0"/>
        <pt x="37" y="221" on="1"/>
        <pt x="37" y="286" on="0"/>
        <pt x="80" y="393" on="0"/>
        <pt x="158" y="468" on="0"/>
        <pt x="265" y="509" on="0"/>
        <pt x="328" y="509" on="1"/>
        <pt x="388" y="509" on="0"/>
        <pt x="492" y="470" on="0"/>
        <pt x="569" y="399" on="0"/>
        <pt x="612" y="299" on="0"/>
        <pt x="612" y="239" on="1"/>
        <pt x="612" y="188" on="0"/>
        <pt x="590" y="111" on="0"/>
        <pt x="578" y="86" on="1"/>
        <pt x="711" y="86" on="1"/>
        <pt x="711" y="335" on="1"/>
        <pt x="711" y="381" on="0"/>
        <pt x="736" y="447" on="0"/>
        <pt x="780" y="489" on="0"/>
        <pt x="839" y="509" on="0"/>
      </contour>
      <contour>
        <pt x="220" y="219" on="1"/>
        <pt x="193" y="219" on="0"/>
        <pt x="154" y="187" on="0"/>
        <pt x="143" y="162" on="1"/>
        <pt x="148" y="121" on="0"/>
        <pt x="192" y="78" on="0"/>
        <pt x="224" y="78" on="1"/>
        <pt x="253" y="78" on="0"/>
        <pt x="290" y="117" on="0"/>
        <pt x="290" y="149" on="1"/>
        <pt x="290" y="181" on="0"/>
        <pt x="252" y="219" on="0"/>
      </contour>
      <contour>
        <pt x="1545" y="421" on="1"/>
        <pt x="1528" y="412" on="0"/>
        <pt x="1510" y="379" on="0"/>
        <pt x="1510" y="361" on="1"/>
        <pt x="1510" y="338" on="0"/>
        <pt x="1538" y="311" on="0"/>
        <pt x="1561" y="311" on="1"/>
        <pt x="1581" y="311" on="0"/>
        <pt x="1609" y="339" on="0"/>
        <pt x="1609" y="362" on="1"/>
        <pt x="1609" y="389" on="0"/>
        <pt x="1573" y="420" on="0"/>
        <pt x="1547" y="421" on="1"/>
      </contour>
    </TTGlyph>
    <TTGlyph name="HaMatraUu.tm" xMin="9" yMin="-292" xMax="1905" yMax="629">
      <contour>
        <pt x="1663" y="629" on="1"/>
        <pt x="1717" y="629" on="0"/>
        <pt x="1807" y="596" on="0"/>
        <pt x="1870" y="535" on="0"/>
        <pt x="1905" y="450" on="0"/>
        <pt x="1905" y="398" on="1"/>
        <pt x="1905" y="352" on="0"/>
        <pt x="1880" y="275" on="0"/>
        <pt x="1836" y="213" on="0"/>
        <pt x="1779" y="165" on="0"/>
        <pt x="1748" y="149" on="1"/>
        <pt x="1695" y="222" on="1"/>
        <pt x="1741" y="248" on="0"/>
        <pt x="1803" y="336" on="0"/>
        <pt x="1803" y="398" on="1"/>
        <pt x="1803" y="467" on="0"/>
        <pt x="1727" y="549" on="0"/>
        <pt x="1658" y="549" on="1"/>
        <pt x="1620" y="549" on="0"/>
        <pt x="1558" y="519" on="0"/>
        <pt x="1542" y="495" on="1"/>
        <pt x="1617" y="493" on="0"/>
        <pt x="1694" y="422" on="0"/>
        <pt x="1694" y="370" on="1"/>
        <pt x="1694" y="345" on="0"/>
        <pt x="1674" y="301" on="0"/>
        <pt x="1639" y="269" on="0"/>
        <pt x="1590" y="250" on="0"/>
        <pt x="1561" y="250" on="1"/>
        <pt x="1528" y="250" on="0"/>
        <pt x="1478" y="272" on="0"/>
        <pt x="1443" y="310" on="0"/>
        <pt x="1425" y="359" on="0"/>
        <pt x="1425" y="385" on="1"/>
        <pt x="1425" y="406" on="0"/>
        <pt x="1428" y="426" on="1"/>
        <pt x="1274" y="426" on="1"/>
        <pt x="1307" y="391" on="0"/>
        <pt x="1347" y="272" on="0"/>
        <pt x="1347" y="194" on="1"/>
        <pt x="1347" y="26" on="0"/>
        <pt x="1172" y="-155" on="0"/>
        <pt x="995" y="-155" on="1"/>
        <pt x="172" y="-155" on="1"/>
        <pt x="119" y="-155" on="0"/>
        <pt x="119" y="-201" on="1"/>
        <pt x="119" y="-215" on="0"/>
        <pt x="129" y="-242" on="0"/>
        <pt x="136" y="-256" on="1"/>
        <pt x="42" y="-292" on="1"/>
        <pt x="29" y="-272" on="0"/>
        <pt x="9" y="-217" on="0"/>
        <pt x="9" y="-188" on="1"/>
        <pt x="9" y="-155" on="0"/>
        <pt x="31" y="-110" on="0"/>
        <pt x="67" y="-81" on="0"/>
        <pt x="114" y="-69" on="0"/>
        <pt x="139" y="-69" on="1"/>
        <pt x="1006" y="-69" on="1"/>
        <pt x="1069" y="-69" on="0"/>
        <pt x="1156" y="-33" on="0"/>
        <pt x="1211" y="36" on="0"/>
        <pt x="1235" y="135" on="0"/>
        <pt x="1235" y="197" on="1"/>
        <pt x="1235" y="309" on="0"/>
        <pt x="1172" y="416" on="0"/>
        <pt x="1126" y="416" on="1"/>
        <pt x="1094" y="416" on="0"/>
        <pt x="1063" y="375" on="0"/>
        <pt x="1063" y="340" on="1"/>
        <pt x="1063" y="0" on="1"/>
        <pt x="954" y="0" on="1"/>
        <pt x="954" y="336" on="1"/>
        <pt x="954" y="372" on="0"/>
        <pt x="919" y="417" on="0"/>
        <pt x="884" y="417" on="1"/>
        <pt x="851" y="417" on="0"/>
        <pt x="820" y="374" on="0"/>
        <pt x="820" y="337" on="1"/>
        <pt x="820" y="0" on="1"/>
        <pt x="483" y="0" on="1"/>
        <pt x="455" y="64" on="1"/>
        <pt x="477" y="96" on="0"/>
        <pt x="500" y="179" on="0"/>
        <pt x="500" y="230" on="1"/>
        <pt x="500" y="272" on="0"/>
        <pt x="475" y="342" on="0"/>
        <pt x="429" y="391" on="0"/>
        <pt x="364" y="419" on="0"/>
        <pt x="323" y="419" on="1"/>
        <pt x="284" y="419" on="0"/>
        <pt x="219" y="395" on="0"/>
        <pt x="171" y="353" on="0"/>
        <pt x="142" y="293" on="0"/>
        <pt x="138" y="257" on="1"/>
        <pt x="157" y="277" on="0"/>
        <pt x="209" y="300" on="0"/>
        <pt x="241" y="300" on="1"/>
        <pt x="274" y="300" on="0"/>
        <pt x="331" y="278" on="0"/>
        <pt x="373" y="239" on="0"/>
        <pt x="396" y="183" on="0"/>
        <pt x="396" y="150" on="1"/>
        <pt x="396" y="114" on="0"/>
        <pt x="369" y="55" on="0"/>
        <pt x="323" y="13" on="0"/>
        <pt x="260" y="-9" on="0"/>
        <pt x="224" y="-9" on="1"/>
        <pt x="182" y="-9" on="0"/>
        <pt x="114" y="23" on="0"/>
        <pt x="64" y="82" on="0"/>
        <pt x="37" y="167" on="0"/>
        <pt x="37" y="221" on="1"/>
        <pt x="37" y="286" on="0"/>
        <pt x="80" y="393" on="0"/>
        <pt x="158" y="468" on="0"/>
        <pt x="265" y="509" on="0"/>
        <pt x="328" y="509" on="1"/>
        <pt x="388" y="509" on="0"/>
        <pt x="492" y="470" on="0"/>
        <pt x="569" y="399" on="0"/>
        <pt x="612" y="299" on="0"/>
        <pt x="612" y="239" on="1"/>
        <pt x="612" y="188" on="0"/>
        <pt x="590" y="111" on="0"/>
        <pt x="578" y="86" on="1"/>
        <pt x="711" y="86" on="1"/>
        <pt x="711" y="335" on="1"/>
        <pt x="711" y="381" on="0"/>
        <pt x="736" y="447" on="0"/>
        <pt x="780" y="489" on="0"/>
        <pt x="839" y="509" on="0"/>
        <pt x="873" y="509" on="1"/>
        <pt x="901" y="509" on="0"/>
        <pt x="946" y="494" on="0"/>
        <pt x="980" y="470" on="0"/>
        <pt x="1003" y="439" on="0"/>
        <pt x="1009" y="423" on="1"/>
        <pt x="1019" y="453" on="0"/>
        <pt x="1081" y="501" on="0"/>
        <pt x="1136" y="501" on="1"/>
        <pt x="1451" y="501" on="1"/>
        <pt x="1464" y="527" on="0"/>
        <pt x="1504" y="574" on="0"/>
        <pt x="1558" y="609" on="0"/>
        <pt x="1625" y="629" on="0"/>
      </contour>
      <contour>
        <pt x="220" y="219" on="1"/>
        <pt x="193" y="219" on="0"/>
        <pt x="154" y="187" on="0"/>
        <pt x="143" y="162" on="1"/>
        <pt x="148" y="121" on="0"/>
        <pt x="192" y="78" on="0"/>
        <pt x="224" y="78" on="1"/>
        <pt x="253" y="78" on="0"/>
        <pt x="290" y="117" on="0"/>
        <pt x="290" y="149" on="1"/>
        <pt x="290" y="181" on="0"/>
        <pt x="252" y="219" on="0"/>
      </contour>
      <contour>
        <pt x="1518" y="422" on="1"/>
        <pt x="1513" y="404" on="0"/>
        <pt x="1513" y="387" on="1"/>
        <pt x="1513" y="360" on="0"/>
        <pt x="1540" y="327" on="0"/>
        <pt x="1563" y="327" on="1"/>
        <pt x="1583" y="327" on="0"/>
        <pt x="1606" y="351" on="0"/>
        <pt x="1606" y="370" on="1"/>
        <pt x="1606" y="396" on="0"/>
        <pt x="1567" y="422" on="0"/>
        <pt x="1532" y="422" on="1"/>
      </contour>
    </TTGlyph>
    <TTGlyph name="HaPulli.tm" xMin="8" yMin="-292" xMax="1346" yMax="714">
      <contour>
        <pt x="671" y="714" on="1"/>
        <pt x="701" y="714" on="0"/>
        <pt x="740" y="676" on="0"/>
        <pt x="740" y="647" on="1"/>
        <pt x="740" y="618" on="0"/>
        <pt x="702" y="580" on="0"/>
        <pt x="673" y="580" on="1"/>
        <pt x="643" y="580" on="0"/>
        <pt x="605" y="618" on="0"/>
        <pt x="605" y="647" on="1"/>
        <pt x="605" y="676" on="0"/>
        <pt x="642" y="714" on="0"/>
      </contour>
      <contour>
        <pt x="454" y="64" on="1"/>
        <pt x="476" y="96" on="0"/>
        <pt x="499" y="179" on="0"/>
        <pt x="499" y="230" on="1"/>
        <pt x="499" y="272" on="0"/>
        <pt x="474" y="342" on="0"/>
        <pt x="428" y="391" on="0"/>
        <pt x="363" y="419" on="0"/>
        <pt x="322" y="419" on="1"/>
        <pt x="283" y="419" on="0"/>
        <pt x="218" y="395" on="0"/>
        <pt x="170" y="353" on="0"/>
        <pt x="141" y="293" on="0"/>
        <pt x="137" y="257" on="1"/>
        <pt x="156" y="277" on="0"/>
        <pt x="208" y="300" on="0"/>
        <pt x="240" y="300" on="1"/>
        <pt x="273" y="300" on="0"/>
        <pt x="330" y="278" on="0"/>
        <pt x="372" y="239" on="0"/>
        <pt x="395" y="183" on="0"/>
        <pt x="395" y="150" on="1"/>
        <pt x="395" y="114" on="0"/>
        <pt x="368" y="55" on="0"/>
        <pt x="322" y="13" on="0"/>
        <pt x="259" y="-9" on="0"/>
        <pt x="223" y="-9" on="1"/>
        <pt x="181" y="-9" on="0"/>
        <pt x="113" y="23" on="0"/>
        <pt x="63" y="82" on="0"/>
        <pt x="36" y="167" on="0"/>
        <pt x="36" y="221" on="1"/>
        <pt x="36" y="286" on="0"/>
        <pt x="79" y="393" on="0"/>
        <pt x="157" y="468" on="0"/>
        <pt x="264" y="509" on="0"/>
        <pt x="327" y="509" on="1"/>
        <pt x="387" y="509" on="0"/>
        <pt x="491" y="470" on="0"/>
        <pt x="568" y="399" on="0"/>
        <pt x="611" y="299" on="0"/>
        <pt x="611" y="239" on="1"/>
        <pt x="611" y="188" on="0"/>
        <pt x="589" y="111" on="0"/>
        <pt x="577" y="86" on="1"/>
        <pt x="710" y="86" on="1"/>
        <pt x="710" y="335" on="1"/>
        <pt x="710" y="381" on="0"/>
        <pt x="735" y="447" on="0"/>
        <pt x="779" y="489" on="0"/>
        <pt x="838" y="509" on="0"/>
        <pt x="872" y="509" on="1"/>
        <pt x="900" y="509" on="0"/>
        <pt x="945" y="494" on="0"/>
        <pt x="979" y="470" on="0"/>
        <pt x="1002" y="439" on="0"/>
        <pt x="1008" y="423" on="1"/>
        <pt x="1018" y="456" on="0"/>
        <pt x="1080" y="509" on="0"/>
        <pt x="1135" y="509" on="1"/>
        <pt x="1175" y="509" on="0"/>
        <pt x="1251" y="472" on="0"/>
        <pt x="1310" y="396" on="0"/>
        <pt x="1346" y="276" on="0"/>
        <pt x="1346" y="194" on="1"/>
        <pt x="1346" y="26" on="0"/>
        <pt x="1171" y="-155" on="0"/>
        <pt x="994" y="-155" on="1"/>
        <pt x="171" y="-155" on="1"/>
        <pt x="118" y="-155" on="0"/>
        <pt x="118" y="-201" on="1"/>
        <pt x="118" y="-215" on="0"/>
        <pt x="128" y="-242" on="0"/>
        <pt x="135" y="-256" on="1"/>
        <pt x="41" y="-292" on="1"/>
        <pt x="28" y="-272" on="0"/>
        <pt x="8" y="-217" on="0"/>
        <pt x="8" y="-188" on="1"/>
        <pt x="8" y="-155" on="0"/>
        <pt x="30" y="-110" on="0"/>
        <pt x="66" y="-81" on="0"/>
        <pt x="113" y="-69" on="0"/>
        <pt x="138" y="-69" on="1"/>
        <pt x="1005" y="-69" on="1"/>
        <pt x="1068" y="-69" on="0"/>
        <pt x="1155" y="-33" on="0"/>
        <pt x="1210" y="36" on="0"/>
        <pt x="1234" y="135" on="0"/>
        <pt x="1234" y="197" on="1"/>
        <pt x="1234" y="310" on="0"/>
        <pt x="1171" y="417" on="0"/>
        <pt x="1125" y="417" on="1"/>
        <pt x="1093" y="417" on="0"/>
        <pt x="1062" y="376" on="0"/>
        <pt x="1062" y="340" on="1"/>
        <pt x="1062" y="0" on="1"/>
        <pt x="953" y="0" on="1"/>
        <pt x="953" y="336" on="1"/>
        <pt x="953" y="372" on="0"/>
        <pt x="918" y="417" on="0"/>
        <pt x="883" y="417" on="1"/>
        <pt x="850" y="417" on="0"/>
        <pt x="819" y="374" on="0"/>
        <pt x="819" y="337" on="1"/>
        <pt x="819" y="0" on="1"/>
        <pt x="482" y="0" on="1"/>
      </contour>
      <contour>
        <pt x="219" y="219" on="1"/>
        <pt x="192" y="219" on="0"/>
        <pt x="153" y="187" on="0"/>
        <pt x="142" y="162" on="1"/>
        <pt x="147" y="121" on="0"/>
        <pt x="191" y="78" on="0"/>
        <pt x="223" y="78" on="1"/>
        <pt x="252" y="78" on="0"/>
        <pt x="289" y="117" on="0"/>
        <pt x="289" y="149" on="1"/>
        <pt x="289" y="181" on="0"/>
        <pt x="251" y="219" on="0"/>
      </contour>
    </TTGlyph>
    <TTGlyph name="Hbar" xMin="20" yMin="0" xMax="643" yMax="630">
      <contour>
        <pt x="80" y="0" on="1"/>
        <pt x="80" y="478" on="1"/>
        <pt x="20" y="478" on="1"/>
        <pt x="20" y="555" on="1"/>
        <pt x="80" y="555" on="1"/>
        <pt x="80" y="630" on="1"/>
        <pt x="202" y="630" on="1"/>
        <pt x="202" y="555" on="1"/>
        <pt x="461" y="555" on="1"/>
        <pt x="461" y="630" on="1"/>
        <pt x="583" y="630" on="1"/>
        <pt x="583" y="555" on="1"/>
        <pt x="643" y="555" on="1"/>
        <pt x="643" y="478" on="1"/>
        <pt x="583" y="478" on="1"/>
        <pt x="583" y="0" on="1"/>
        <pt x="461" y="0" on="1"/>
        <pt x="461" y="277" on="1"/>
        <pt x="202" y="277" on="1"/>
        <pt x="202" y="0" on="1"/>
      </contour>
      <contour>
        <pt x="461" y="375" on="1"/>
        <pt x="461" y="478" on="1"/>
        <pt x="202" y="478" on="1"/>
        <pt x="202" y="375" on="1"/>
      </contour>
    </TTGlyph>
    <TTGlyph name="Hcircumflex" xMin="73" yMin="0" xMax="576" yMax="829">
      <contour>
        <pt x="73" y="0" on="1"/>
        <pt x="73" y="630" on="1"/>
        <pt x="195" y="630" on="1"/>
        <pt x="195" y="375" on="1"/>
        <pt x="454" y="375" on="1"/>
        <pt x="454" y="630" on="1"/>
        <pt x="576" y="630" on="1"/>
        <pt x="576" y="0" on="1"/>
        <pt x="454" y="0" on="1"/>
        <pt x="454" y="277" on="1"/>
        <pt x="195" y="277" on="1"/>
        <pt x="195" y="0" on="1"/>
      </contour>
      <contour>
        <pt x="283" y="829" on="1"/>
        <pt x="372" y="829" on="1"/>
        <pt x="492" y="700" on="1"/>
        <pt x="397" y="700" on="1"/>
        <pt x="327" y="774" on="1"/>
        <pt x="257" y="700" on="1"/>
        <pt x="166" y="700" on="1"/>
      </contour>
    </TTGlyph>
    <TTGlyph name="Hsmall" xMin="69" yMin="0" xMax="490" yMax="475">
      <contour>
        <pt x="69" y="0" on="1"/>
        <pt x="69" y="475" on="1"/>
        <pt x="184" y="475" on="1"/>
        <pt x="184" y="293" on="1"/>
        <pt x="374" y="293" on="1"/>
        <pt x="374" y="475" on="1"/>
        <pt x="490" y="475" on="1"/>
        <pt x="490" y="0" on="1"/>
        <pt x="374" y="0" on="1"/>
        <pt x="374" y="203" on="1"/>
        <pt x="184" y="203" on="1"/>
        <pt x="184" y="0" on="1"/>
      </contour>
    </TTGlyph>
    <TTGlyph name="Hundred.tm" xMin="58" yMin="0" xMax="791" yMax="505">
      <contour>
        <pt x="791" y="501" on="1"/>
        <pt x="791" y="414" on="1"/>
        <pt x="695" y="414" on="1"/>
        <pt x="695" y="0" on="1"/>
        <pt x="586" y="0" on="1"/>
        <pt x="586" y="414" on="1"/>
        <pt x="414" y="414" on="1"/>
        <pt x="414" y="0" on="1"/>
        <pt x="307" y="0" on="1"/>
        <pt x="307" y="331" on="1"/>
        <pt x="305" y="367" on="0"/>
        <pt x="268" y="417" on="0"/>
        <pt x="233" y="417" on="1"/>
        <pt x="166" y="417" on="0"/>
        <pt x="166" y="333" on="1"/>
        <pt x="166" y="0" on="1"/>
        <pt x="58" y="0" on="1"/>
        <pt x="58" y="334" on="1"/>
        <pt x="58" y="418" on="0"/>
        <pt x="137" y="505" on="0"/>
        <pt x="207" y="505" on="1"/>
        <pt x="244" y="505" on="0"/>
        <pt x="301" y="471" on="0"/>
        <pt x="316" y="448" on="1"/>
        <pt x="316" y="501" on="1"/>
      </contour>
    </TTGlyph>
    <TTGlyph name="I" xMin="73" yMin="0" xMax="195" yMax="630">
      <contour>
        <pt x="195" y="630" on="1"/>
        <pt x="195" y="0" on="1"/>
        <pt x="73" y="0" on="1"/>
        <pt x="73" y="630" on="1"/>
      </contour>
    </TTGlyph>
    <TTGlyph name="IJ" xMin="73" yMin="-165" xMax="458" yMax="630">
      <contour>
        <pt x="195" y="630" on="1"/>
        <pt x="195" y="0" on="1"/>
        <pt x="73" y="0" on="1"/>
        <pt x="73" y="630" on="1"/>
      </contour>
      <contour>
        <pt x="458" y="630" on="1"/>
        <pt x="458" y="115" on="1"/>
        <pt x="458" y="39" on="0"/>
        <pt x="439" y="-56" on="0"/>
        <pt x="410" y="-93" on="1"/>
        <pt x="378" y="-133" on="0"/>
        <pt x="279" y="-165" on="0"/>
        <pt x="226" y="-165" on="1"/>
        <pt x="226" y="-70" on="1"/>
        <pt x="254" y="-70" on="0"/>
        <pt x="293" y="-53" on="0"/>
        <pt x="307" y="-39" on="1"/>
        <pt x="325" y="-22" on="0"/>
        <pt x="336" y="32" on="0"/>
        <pt x="336" y="64" on="1"/>
        <pt x="336" y="630" on="1"/>
      </contour>
    </TTGlyph>
    <TTGlyph name="Iacute" xMin="73" yMin="0" xMax="298" yMax="824">
      <contour>
        <pt x="195" y="630" on="1"/>
        <pt x="195" y="0" on="1"/>
        <pt x="73" y="0" on="1"/>
        <pt x="73" y="630" on="1"/>
      </contour>
      <contour>
        <pt x="184" y="700" on="1"/>
        <pt x="87" y="700" on="1"/>
        <pt x="167" y="824" on="1"/>
        <pt x="298" y="824" on="1"/>
      </contour>
    </TTGlyph>
    <TTGlyph name="Ibreve" xMin="0" yMin="0" xMax="269" yMax="824">
      <contour>
        <pt x="195" y="630" on="1"/>
        <pt x="195" y="0" on="1"/>
        <pt x="73" y="0" on="1"/>
        <pt x="73" y="630" on="1"/>
      </contour>
      <contour>
        <pt x="73" y="824" on="1"/>
        <pt x="75" y="796" on="0"/>
        <pt x="101" y="764" on="0"/>
        <pt x="135" y="764" on="1"/>
        <pt x="192" y="764" on="0"/>
        <pt x="197" y="824" on="1"/>
        <pt x="269" y="824" on="1"/>
        <pt x="269" y="766" on="0"/>
        <pt x="200" y="697" on="0"/>
        <pt x="135" y="697" on="1"/>
        <pt x="99" y="697" on="0"/>
        <pt x="48" y="718" on="0"/>
        <pt x="15" y="753" on="0"/>
        <pt x="0" y="799" on="0"/>
        <pt x="0" y="824" on="1"/>
      </contour>
    </TTGlyph>
    <TTGlyph name="Icircumflex" xMin="-27" yMin="0" xMax="299" yMax="829">
      <contour>
        <pt x="195" y="630" on="1"/>
        <pt x="195" y="0" on="1"/>
        <pt x="73" y="0" on="1"/>
        <pt x="73" y="630" on="1"/>
      </contour>
      <contour>
        <pt x="90" y="829" on="1"/>
        <pt x="179" y="829" on="1"/>
        <pt x="299" y="700" on="1"/>
        <pt x="204" y="700" on="1"/>
        <pt x="134" y="774" on="1"/>
        <pt x="64" y="700" on="1"/>
        <pt x="-27" y="700" on="1"/>
      </contour>
    </TTGlyph>
    <TTGlyph name="Idieresis" xMin="-19" yMin="0" xMax="284" yMax="812">
      <contour>
        <pt x="195" y="630" on="1"/>
        <pt x="195" y="0" on="1"/>
        <pt x="73" y="0" on="1"/>
        <pt x="73" y="630" on="1"/>
      </contour>
      <contour>
        <pt x="-19" y="754" on="1"/>
        <pt x="-19" y="777" on="0"/>
        <pt x="15" y="812" on="0"/>
        <pt x="40" y="812" on="1"/>
        <pt x="64" y="812" on="0"/>
        <pt x="98" y="777" on="0"/>
        <pt x="98" y="754" on="1"/>
        <pt x="98" y="729" on="0"/>
        <pt x="64" y="694" on="0"/>
        <pt x="40" y="694" on="1"/>
        <pt x="15" y="694" on="0"/>
        <pt x="-19" y="729" on="0"/>
      </contour>
      <contour>
        <pt x="166" y="754" on="1"/>
        <pt x="166" y="777" on="0"/>
        <pt x="201" y="812" on="0"/>
        <pt x="225" y="812" on="1"/>
        <pt x="250" y="812" on="0"/>
        <pt x="284" y="777" on="0"/>
        <pt x="284" y="754" on="1"/>
        <pt x="284" y="729" on="0"/>
        <pt x="250" y="694" on="0"/>
        <pt x="225" y="694" on="1"/>
        <pt x="201" y="694" on="0"/>
        <pt x="166" y="729" on="0"/>
      </contour>
    </TTGlyph>
    <TTGlyph name="Idotaccent" xMin="71" yMin="0" xMax="195" yMax="818">
      <contour>
        <pt x="195" y="630" on="1"/>
        <pt x="195" y="0" on="1"/>
        <pt x="73" y="0" on="1"/>
        <pt x="73" y="630" on="1"/>
      </contour>
      <contour>
        <pt x="71" y="757" on="1"/>
        <pt x="71" y="782" on="0"/>
        <pt x="107" y="818" on="0"/>
        <pt x="133" y="818" on="1"/>
        <pt x="159" y="818" on="0"/>
        <pt x="194" y="782" on="0"/>
        <pt x="194" y="757" on="1"/>
        <pt x="194" y="731" on="0"/>
        <pt x="159" y="694" on="0"/>
        <pt x="133" y="694" on="1"/>
        <pt x="107" y="694" on="0"/>
        <pt x="71" y="731" on="0"/>
      </contour>
    </TTGlyph>
    <TTGlyph name="Igrave" xMin="-31" yMin="0" xMax="195" yMax="824">
      <contour>
        <pt x="195" y="630" on="1"/>
        <pt x="195" y="0" on="1"/>
        <pt x="73" y="0" on="1"/>
        <pt x="73" y="630" on="1"/>
      </contour>
      <contour>
        <pt x="-31" y="824" on="1"/>
        <pt x="100" y="824" on="1"/>
        <pt x="180" y="700" on="1"/>
        <pt x="83" y="700" on="1"/>
      </contour>
    </TTGlyph>
    <TTGlyph name="Imacron" xMin="9" yMin="0" xMax="261" yMax="772">
      <contour>
        <pt x="195" y="630" on="1"/>
        <pt x="195" y="0" on="1"/>
        <pt x="73" y="0" on="1"/>
        <pt x="73" y="630" on="1"/>
      </contour>
      <contour>
        <pt x="261" y="772" on="1"/>
        <pt x="261" y="700" on="1"/>
        <pt x="9" y="700" on="1"/>
        <pt x="9" y="772" on="1"/>
      </contour>
    </TTGlyph>
    <TTGlyph name="Iogonek" xMin="14" yMin="-206" xMax="205" yMax="630">
      <contour>
        <pt x="195" y="630" on="1"/>
        <pt x="195" y="0" on="1"/>
        <pt x="162" y="0" on="1"/>
        <pt x="133" y="-19" on="0"/>
        <pt x="96" y="-61" on="0"/>
        <pt x="96" y="-85" on="1"/>
        <pt x="96" y="-107" on="0"/>
        <pt x="122" y="-131" on="0"/>
        <pt x="144" y="-131" on="1"/>
        <pt x="169" y="-131" on="0"/>
        <pt x="188" y="-123" on="1"/>
        <pt x="205" y="-185" on="1"/>
        <pt x="188" y="-195" on="0"/>
        <pt x="145" y="-206" on="0"/>
        <pt x="121" y="-206" on="1"/>
        <pt x="75" y="-206" on="0"/>
        <pt x="14" y="-152" on="0"/>
        <pt x="14" y="-105" on="1"/>
        <pt x="14" y="-67" on="0"/>
        <pt x="52" y="-16" on="0"/>
        <pt x="73" y="0" on="1"/>
        <pt x="73" y="630" on="1"/>
      </contour>
    </TTGlyph>
    <TTGlyph name="Ismall" xMin="69" yMin="0" xMax="187" yMax="475">
      <contour>
        <pt x="187" y="475" on="1"/>
        <pt x="187" y="0" on="1"/>
        <pt x="69" y="0" on="1"/>
        <pt x="69" y="475" on="1"/>
      </contour>
    </TTGlyph>
    <TTGlyph name="Itilde" xMin="-22" yMin="0" xMax="281" yMax="819">
      <contour>
        <pt x="195" y="630" on="1"/>
        <pt x="195" y="0" on="1"/>
        <pt x="73" y="0" on="1"/>
        <pt x="73" y="630" on="1"/>
      </contour>
      <contour>
        <pt x="-22" y="700" on="1"/>
        <pt x="-22" y="748" on="0"/>
        <pt x="23" y="816" on="0"/>
        <pt x="68" y="816" on="1"/>
        <pt x="87" y="816" on="0"/>
        <pt x="118" y="804" on="0"/>
        <pt x="146" y="789" on="0"/>
        <pt x="172" y="777" on="0"/>
        <pt x="187" y="777" on="1"/>
        <pt x="204" y="777" on="0"/>
        <pt x="220" y="802" on="0"/>
        <pt x="221" y="819" on="1"/>
        <pt x="281" y="819" on="1"/>
        <pt x="281" y="771" on="0"/>
        <pt x="237" y="704" on="0"/>
        <pt x="196" y="704" on="1"/>
        <pt x="176" y="704" on="0"/>
        <pt x="140" y="716" on="0"/>
        <pt x="110" y="730" on="0"/>
        <pt x="84" y="742" on="0"/>
        <pt x="73" y="742" on="1"/>
        <pt x="54" y="742" on="0"/>
        <pt x="40" y="717" on="0"/>
        <pt x="38" y="700" on="1"/>
      </contour>
    </TTGlyph>
    <TTGlyph name="J" xMin="-18" yMin="-165" xMax="214" yMax="630">
      <contour>
        <pt x="214" y="630" on="1"/>
        <pt x="214" y="115" on="1"/>
        <pt x="214" y="39" on="0"/>
        <pt x="196" y="-56" on="0"/>
        <pt x="166" y="-93" on="1"/>
        <pt x="134" y="-133" on="0"/>
        <pt x="36" y="-165" on="0"/>
        <pt x="-18" y="-165" on="1"/>
        <pt x="-18" y="-70" on="1"/>
        <pt x="10" y="-70" on="0"/>
        <pt x="49" y="-53" on="0"/>
        <pt x="63" y="-39" on="1"/>
        <pt x="81" y="-22" on="0"/>
        <pt x="92" y="32" on="0"/>
        <pt x="92" y="64" on="1"/>
        <pt x="92" y="630" on="1"/>
      </contour>
    </TTGlyph>
    <TTGlyph name="Ja.tm" xMin="38" yMin="-284" xMax="804" yMax="509">
      <contour>
        <pt x="248" y="509" on="1"/>
        <pt x="285" y="509" on="0"/>
        <pt x="347" y="489" on="0"/>
        <pt x="395" y="454" on="0"/>
        <pt x="430" y="408" on="0"/>
        <pt x="440" y="382" on="1"/>
        <pt x="446" y="409" on="0"/>
        <pt x="473" y="455" on="0"/>
        <pt x="515" y="489" on="0"/>
        <pt x="571" y="509" on="0"/>
        <pt x="605" y="509" on="1"/>
        <pt x="647" y="509" on="0"/>
        <pt x="717" y="481" on="0"/>
        <pt x="769" y="429" on="0"/>
        <pt x="798" y="357" on="0"/>
        <pt x="798" y="314" on="1"/>
        <pt x="798" y="259" on="0"/>
        <pt x="758" y="179" on="0"/>
        <pt x="686" y="121" on="0"/>
        <pt x="589" y="83" on="0"/>
        <pt x="532" y="71" on="1"/>
        <pt x="295" y="19" on="1"/>
        <pt x="232" y="5" on="0"/>
        <pt x="164" y="-55" on="0"/>
        <pt x="164" y="-105" on="1"/>
        <pt x="164" y="-146" on="0"/>
        <pt x="213" y="-192" on="0"/>
        <pt x="249" y="-192" on="1"/>
        <pt x="282" y="-192" on="0"/>
        <pt x="338" y="-160" on="0"/>
        <pt x="370" y="-125" on="1"/>
        <pt x="427" y="-65" on="1"/>
        <pt x="475" y="-14" on="0"/>
        <pt x="572" y="46" on="0"/>
        <pt x="633" y="46" on="1"/>
        <pt x="671" y="46" on="0"/>
        <pt x="734" y="22" on="0"/>
        <pt x="779" y="-23" on="0"/>
        <pt x="804" y="-85" on="0"/>
        <pt x="804" y="-122" on="1"/>
        <pt x="804" y="-159" on="0"/>
        <pt x="777" y="-219" on="0"/>
        <pt x="731" y="-261" on="0"/>
        <pt x="668" y="-284" on="0"/>
        <pt x="631" y="-284" on="1"/>
        <pt x="584" y="-284" on="0"/>
        <pt x="518" y="-245" on="0"/>
        <pt x="500" y="-223" on="1"/>
        <pt x="559" y="-160" on="1"/>
        <pt x="569" y="-171" on="0"/>
        <pt x="603" y="-194" on="0"/>
        <pt x="627" y="-194" on="1"/>
        <pt x="658" y="-194" on="0"/>
        <pt x="696" y="-153" on="0"/>
        <pt x="696" y="-120" on="1"/>
        <pt x="696" y="-85" on="0"/>
        <pt x="656" y="-45" on="0"/>
        <pt x="624" y="-45" on="1"/>
        <pt x="595" y="-45" on="0"/>
        <pt x="544" y="-79" on="0"/>
        <pt x="509" y="-119" on="1"/>
        <pt x="451" y="-185" on="1"/>
        <pt x="409" y="-233" on="0"/>
        <pt x="312" y="-284" on="0"/>
        <pt x="246" y="-284" on="1"/>
        <pt x="206" y="-284" on="0"/>
        <pt x="136" y="-259" on="0"/>
        <pt x="84" y="-213" on="0"/>
        <pt x="54" y="-147" on="0"/>
        <pt x="54" y="-106" on="1"/>
        <pt x="54" y="-58" on="0"/>
        <pt x="85" y="12" on="0"/>
        <pt x="143" y="63" on="0"/>
        <pt x="227" y="98" on="0"/>
        <pt x="280" y="110" on="1"/>
        <pt x="528" y="167" on="1"/>
        <pt x="605" y="185" on="0"/>
        <pt x="687" y="255" on="0"/>
        <pt x="687" y="315" on="1"/>
        <pt x="687" y="359" on="0"/>
        <pt x="636" y="417" on="0"/>
        <pt x="593" y="417" on="1"/>
        <pt x="550" y="417" on="0"/>
        <pt x="495" y="352" on="0"/>
        <pt x="495" y="289" on="1"/>
        <pt x="495" y="212" on="1"/>
        <pt x="387" y="212" on="1"/>
        <pt x="387" y="275" on="1"/>
        <pt x="387" y="341" on="0"/>
        <pt x="312" y="424" on="0"/>
        <pt x="246" y="424" on="1"/>
        <pt x="207" y="424" on="0"/>
        <pt x="142" y="386" on="0"/>
        <pt x="132" y="346" on="1"/>
        <pt x="146" y="360" on="0"/>
        <pt x="185" y="378" on="0"/>
        <pt x="208" y="378" on="1"/>
        <pt x="232" y="378" on="0"/>
        <pt x="276" y="362" on="0"/>
        <pt x="309" y="332" on="0"/>
        <pt x="329" y="288" on="0"/>
        <pt x="329" y="260" on="1"/>
        <pt x="329" y="230" on="0"/>
        <pt x="306" y="182" on="0"/>
        <pt x="267" y="149" on="0"/>
        <pt x="215" y="131" on="0"/>
        <pt x="186" y="131" on="1"/>
        <pt x="156" y="131" on="0"/>
        <pt x="102" y="153" on="0"/>
        <pt x="62" y="197" on="0"/>
        <pt x="38" y="259" on="0"/>
        <pt x="38" y="300" on="1"/>
        <pt x="38" y="349" on="0"/>
        <pt x="70" y="426" on="0"/>
        <pt x="127" y="480" on="0"/>
        <pt x="204" y="509" on="0"/>
      </contour>
      <contour>
        <pt x="186" y="312" on="1"/>
        <pt x="167" y="312" on="0"/>
        <pt x="139" y="290" on="0"/>
        <pt x="130" y="273" on="1"/>
        <pt x="132" y="239" on="0"/>
        <pt x="165" y="207" on="0"/>
        <pt x="188" y="207" on="1"/>
        <pt x="210" y="207" on="0"/>
        <pt x="238" y="236" on="0"/>
        <pt x="238" y="259" on="1"/>
        <pt x="238" y="284" on="0"/>
        <pt x="209" y="312" on="0"/>
      </contour>
    </TTGlyph>
    <TTGlyph name="JaAlt.tm" xMin="42" yMin="-17" xMax="653" yMax="514">
      <contour>
        <pt x="212" y="514" on="1"/>
        <pt x="269" y="514" on="0"/>
        <pt x="343" y="459" on="0"/>
        <pt x="359" y="418" on="1"/>
        <pt x="371" y="459" on="0"/>
        <pt x="441" y="514" on="0"/>
        <pt x="498" y="514" on="1"/>
        <pt x="566" y="514" on="0"/>
        <pt x="648" y="435" on="0"/>
        <pt x="648" y="370" on="1"/>
        <pt x="648" y="316" on="0"/>
        <pt x="594" y="240" on="0"/>
        <pt x="552" y="223" on="1"/>
        <pt x="597" y="215" on="0"/>
        <pt x="653" y="155" on="0"/>
        <pt x="653" y="108" on="1"/>
        <pt x="653" y="51" on="0"/>
        <pt x="573" y="-17" on="0"/>
        <pt x="504" y="-17" on="1"/>
        <pt x="467" y="-17" on="0"/>
        <pt x="407" y="13" on="0"/>
        <pt x="387" y="39" on="1"/>
        <pt x="438" y="93" on="1"/>
        <pt x="451" y="77" on="0"/>
        <pt x="483" y="59" on="0"/>
        <pt x="504" y="59" on="1"/>
        <pt x="530" y="59" on="0"/>
        <pt x="563" y="92" on="0"/>
        <pt x="563" y="120" on="1"/>
        <pt x="563" y="148" on="0"/>
        <pt x="530" y="180" on="0"/>
        <pt x="501" y="180" on="1"/>
        <pt x="480" y="180" on="0"/>
        <pt x="443" y="158" on="0"/>
        <pt x="420" y="135" on="1"/>
        <pt x="350" y="64" on="1"/>
        <pt x="334" y="48" on="0"/>
        <pt x="299" y="19" on="0"/>
        <pt x="259" y="-4" on="0"/>
        <pt x="212" y="-17" on="0"/>
        <pt x="185" y="-17" on="1"/>
        <pt x="124" y="-17" on="0"/>
        <pt x="49" y="44" on="0"/>
        <pt x="49" y="95" on="1"/>
        <pt x="49" y="149" on="0"/>
        <pt x="118" y="211" on="0"/>
        <pt x="184" y="217" on="1"/>
        <pt x="406" y="238" on="1"/>
        <pt x="482" y="245" on="0"/>
        <pt x="554" y="309" on="0"/>
        <pt x="554" y="354" on="1"/>
        <pt x="554" y="392" on="0"/>
        <pt x="516" y="434" on="0"/>
        <pt x="483" y="434" on="1"/>
        <pt x="447" y="434" on="0"/>
        <pt x="407" y="386" on="0"/>
        <pt x="407" y="343" on="1"/>
        <pt x="407" y="277" on="1"/>
        <pt x="316" y="277" on="1"/>
        <pt x="316" y="336" on="1"/>
        <pt x="316" y="386" on="0"/>
        <pt x="258" y="445" on="0"/>
        <pt x="208" y="445" on="1"/>
        <pt x="178" y="445" on="0"/>
        <pt x="131" y="421" on="0"/>
        <pt x="120" y="399" on="1"/>
        <pt x="142" y="418" on="0"/>
        <pt x="174" y="418" on="1"/>
        <pt x="212" y="418" on="0"/>
        <pt x="262" y="372" on="0"/>
        <pt x="262" y="330" on="1"/>
        <pt x="262" y="283" on="0"/>
        <pt x="199" y="232" on="0"/>
        <pt x="155" y="232" on="1"/>
        <pt x="132" y="232" on="0"/>
        <pt x="91" y="248" on="0"/>
        <pt x="60" y="280" on="0"/>
        <pt x="42" y="325" on="0"/>
        <pt x="42" y="355" on="1"/>
        <pt x="42" y="392" on="0"/>
        <pt x="68" y="451" on="0"/>
        <pt x="114" y="492" on="0"/>
        <pt x="176" y="514" on="0"/>
      </contour>
      <contour>
        <pt x="326" y="137" on="1"/>
        <pt x="343" y="153" on="0"/>
        <pt x="364" y="170" on="0"/>
        <pt x="375" y="177" on="1"/>
        <pt x="195" y="151" on="1"/>
        <pt x="139" y="143" on="0"/>
        <pt x="139" y="99" on="1"/>
        <pt x="139" y="79" on="0"/>
        <pt x="166" y="56" on="0"/>
        <pt x="189" y="56" on="1"/>
        <pt x="212" y="56" on="0"/>
        <pt x="255" y="78" on="0"/>
        <pt x="276" y="95" on="1"/>
      </contour>
      <contour>
        <pt x="153" y="367" on="1"/>
        <pt x="139" y="367" on="0"/>
        <pt x="121" y="353" on="0"/>
        <pt x="114" y="342" on="1"/>
        <pt x="114" y="341" on="1"/>
        <pt x="115" y="318" on="0"/>
        <pt x="138" y="292" on="0"/>
        <pt x="155" y="292" on="1"/>
        <pt x="171" y="292" on="0"/>
        <pt x="190" y="313" on="0"/>
        <pt x="190" y="329" on="1"/>
        <pt x="190" y="346" on="0"/>
        <pt x="170" y="367" on="0"/>
      </contour>
    </TTGlyph>
    <TTGlyph name="JaAltMatraI.tm" xMin="42" yMin="-17" xMax="859" yMax="749">
      <contour>
        <pt x="656" y="749" on="1"/>
        <pt x="701" y="749" on="0"/>
        <pt x="776" y="721" on="0"/>
        <pt x="830" y="667" on="0"/>
        <pt x="859" y="589" on="0"/>
        <pt x="859" y="540" on="1"/>
        <pt x="859" y="0" on="1"/>
        <pt x="750" y="0" on="1"/>
        <pt x="750" y="534" on="1"/>
        <pt x="750" y="595" on="0"/>
        <pt x="698" y="659" on="0"/>
        <pt x="653" y="659" on="1"/>
        <pt x="613" y="659" on="0"/>
        <pt x="566" y="609" on="0"/>
        <pt x="566" y="569" on="1"/>
        <pt x="566" y="536" on="0"/>
        <pt x="598" y="477" on="0"/>
        <pt x="623" y="441" on="1"/>
        <pt x="634" y="427" on="0"/>
        <pt x="648" y="386" on="0"/>
        <pt x="648" y="362" on="1"/>
        <pt x="648" y="313" on="0"/>
        <pt x="594" y="239" on="0"/>
        <pt x="552" y="223" on="1"/>
        <pt x="597" y="215" on="0"/>
        <pt x="653" y="155" on="0"/>
        <pt x="653" y="108" on="1"/>
        <pt x="653" y="51" on="0"/>
        <pt x="573" y="-17" on="0"/>
        <pt x="504" y="-17" on="1"/>
        <pt x="467" y="-17" on="0"/>
        <pt x="407" y="13" on="0"/>
        <pt x="387" y="39" on="1"/>
        <pt x="438" y="93" on="1"/>
        <pt x="451" y="77" on="0"/>
        <pt x="483" y="59" on="0"/>
        <pt x="504" y="59" on="1"/>
        <pt x="530" y="59" on="0"/>
        <pt x="563" y="92" on="0"/>
        <pt x="563" y="120" on="1"/>
        <pt x="563" y="148" on="0"/>
        <pt x="530" y="180" on="0"/>
        <pt x="501" y="180" on="1"/>
        <pt x="480" y="180" on="0"/>
        <pt x="443" y="158" on="0"/>
        <pt x="420" y="135" on="1"/>
        <pt x="350" y="64" on="1"/>
        <pt x="334" y="48" on="0"/>
        <pt x="299" y="19" on="0"/>
        <pt x="259" y="-4" on="0"/>
        <pt x="212" y="-17" on="0"/>
        <pt x="185" y="-17" on="1"/>
        <pt x="124" y="-17" on="0"/>
        <pt x="49" y="44" on="0"/>
        <pt x="49" y="95" on="1"/>
        <pt x="49" y="149" on="0"/>
        <pt x="118" y="211" on="0"/>
        <pt x="184" y="217" on="1"/>
        <pt x="406" y="238" on="1"/>
        <pt x="482" y="245" on="0"/>
        <pt x="554" y="309" on="0"/>
        <pt x="554" y="354" on="1"/>
        <pt x="554" y="391" on="0"/>
        <pt x="516" y="434" on="0"/>
        <pt x="483" y="434" on="1"/>
        <pt x="447" y="434" on="0"/>
        <pt x="407" y="385" on="0"/>
        <pt x="407" y="342" on="1"/>
        <pt x="407" y="277" on="1"/>
        <pt x="316" y="277" on="1"/>
        <pt x="316" y="336" on="1"/>
        <pt x="316" y="386" on="0"/>
        <pt x="258" y="445" on="0"/>
        <pt x="208" y="445" on="1"/>
        <pt x="178" y="445" on="0"/>
        <pt x="131" y="421" on="0"/>
        <pt x="120" y="399" on="1"/>
        <pt x="142" y="418" on="0"/>
        <pt x="174" y="418" on="1"/>
        <pt x="212" y="418" on="0"/>
        <pt x="262" y="372" on="0"/>
        <pt x="262" y="330" on="1"/>
        <pt x="262" y="283" on="0"/>
        <pt x="199" y="232" on="0"/>
        <pt x="155" y="232" on="1"/>
        <pt x="132" y="232" on="0"/>
        <pt x="91" y="248" on="0"/>
        <pt x="60" y="280" on="0"/>
        <pt x="42" y="325" on="0"/>
        <pt x="42" y="355" on="1"/>
        <pt x="42" y="392" on="0"/>
        <pt x="68" y="451" on="0"/>
        <pt x="114" y="492" on="0"/>
        <pt x="176" y="514" on="0"/>
        <pt x="212" y="514" on="1"/>
        <pt x="269" y="514" on="0"/>
        <pt x="343" y="459" on="0"/>
        <pt x="359" y="418" on="1"/>
        <pt x="370" y="452" on="0"/>
        <pt x="432" y="500" on="0"/>
        <pt x="481" y="504" on="1"/>
        <pt x="461" y="539" on="0"/>
        <pt x="461" y="582" on="1"/>
        <pt x="461" y="618" on="0"/>
        <pt x="488" y="680" on="0"/>
        <pt x="539" y="724" on="0"/>
        <pt x="611" y="749" on="0"/>
      </contour>
      <contour>
        <pt x="326" y="137" on="1"/>
        <pt x="343" y="153" on="0"/>
        <pt x="364" y="170" on="0"/>
        <pt x="375" y="177" on="1"/>
        <pt x="195" y="151" on="1"/>
        <pt x="139" y="143" on="0"/>
        <pt x="139" y="99" on="1"/>
        <pt x="139" y="79" on="0"/>
        <pt x="166" y="56" on="0"/>
        <pt x="189" y="56" on="1"/>
        <pt x="212" y="56" on="0"/>
        <pt x="255" y="78" on="0"/>
        <pt x="276" y="95" on="1"/>
      </contour>
      <contour>
        <pt x="153" y="367" on="1"/>
        <pt x="139" y="367" on="0"/>
        <pt x="121" y="353" on="0"/>
        <pt x="114" y="342" on="1"/>
        <pt x="114" y="341" on="1"/>
        <pt x="115" y="318" on="0"/>
        <pt x="138" y="292" on="0"/>
        <pt x="155" y="292" on="1"/>
        <pt x="171" y="292" on="0"/>
        <pt x="190" y="313" on="0"/>
        <pt x="190" y="329" on="1"/>
        <pt x="190" y="346" on="0"/>
        <pt x="170" y="367" on="0"/>
      </contour>
    </TTGlyph>
    <TTGlyph name="JaAltMatraIi.tm" xMin="42" yMin="-17" xMax="805" yMax="797">
      <contour>
        <pt x="634" y="797" on="1"/>
        <pt x="675" y="797" on="0"/>
        <pt x="739" y="777" on="0"/>
        <pt x="782" y="743" on="0"/>
        <pt x="805" y="697" on="0"/>
        <pt x="805" y="671" on="1"/>
        <pt x="805" y="619" on="0"/>
        <pt x="735" y="556" on="0"/>
        <pt x="681" y="556" on="1"/>
        <pt x="655" y="556" on="0"/>
        <pt x="613" y="572" on="0"/>
        <pt x="583" y="601" on="0"/>
        <pt x="566" y="639" on="0"/>
        <pt x="566" y="661" on="1"/>
        <pt x="566" y="702" on="0"/>
        <pt x="593" y="729" on="1"/>
        <pt x="559" y="720" on="0"/>
        <pt x="514" y="659" on="0"/>
        <pt x="514" y="611" on="1"/>
        <pt x="514" y="567" on="0"/>
        <pt x="561" y="501" on="0"/>
        <pt x="596" y="470" on="1"/>
        <pt x="620" y="447" on="0"/>
        <pt x="648" y="397" on="0"/>
        <pt x="648" y="362" on="1"/>
        <pt x="648" y="313" on="0"/>
        <pt x="594" y="239" on="0"/>
        <pt x="552" y="223" on="1"/>
        <pt x="597" y="215" on="0"/>
        <pt x="653" y="155" on="0"/>
        <pt x="653" y="108" on="1"/>
        <pt x="653" y="51" on="0"/>
        <pt x="573" y="-17" on="0"/>
        <pt x="504" y="-17" on="1"/>
        <pt x="467" y="-17" on="0"/>
        <pt x="407" y="13" on="0"/>
        <pt x="387" y="39" on="1"/>
        <pt x="438" y="93" on="1"/>
        <pt x="451" y="77" on="0"/>
        <pt x="483" y="59" on="0"/>
        <pt x="504" y="59" on="1"/>
        <pt x="530" y="59" on="0"/>
        <pt x="563" y="92" on="0"/>
        <pt x="563" y="120" on="1"/>
        <pt x="563" y="148" on="0"/>
        <pt x="530" y="180" on="0"/>
        <pt x="501" y="180" on="1"/>
        <pt x="480" y="180" on="0"/>
        <pt x="443" y="158" on="0"/>
        <pt x="420" y="135" on="1"/>
        <pt x="350" y="64" on="1"/>
        <pt x="334" y="48" on="0"/>
        <pt x="299" y="19" on="0"/>
        <pt x="259" y="-4" on="0"/>
        <pt x="212" y="-17" on="0"/>
        <pt x="185" y="-17" on="1"/>
        <pt x="124" y="-17" on="0"/>
        <pt x="49" y="44" on="0"/>
        <pt x="49" y="95" on="1"/>
        <pt x="49" y="149" on="0"/>
        <pt x="118" y="211" on="0"/>
        <pt x="184" y="217" on="1"/>
        <pt x="406" y="238" on="1"/>
        <pt x="482" y="245" on="0"/>
        <pt x="554" y="309" on="0"/>
        <pt x="554" y="354" on="1"/>
        <pt x="554" y="391" on="0"/>
        <pt x="516" y="434" on="0"/>
        <pt x="483" y="434" on="1"/>
        <pt x="447" y="434" on="0"/>
        <pt x="407" y="385" on="0"/>
        <pt x="407" y="342" on="1"/>
        <pt x="407" y="277" on="1"/>
        <pt x="316" y="277" on="1"/>
        <pt x="316" y="336" on="1"/>
        <pt x="316" y="386" on="0"/>
        <pt x="258" y="445" on="0"/>
        <pt x="208" y="445" on="1"/>
        <pt x="178" y="445" on="0"/>
        <pt x="131" y="421" on="0"/>
        <pt x="120" y="399" on="1"/>
        <pt x="142" y="418" on="0"/>
        <pt x="174" y="418" on="1"/>
        <pt x="212" y="418" on="0"/>
        <pt x="262" y="372" on="0"/>
        <pt x="262" y="330" on="1"/>
        <pt x="262" y="283" on="0"/>
        <pt x="199" y="232" on="0"/>
        <pt x="155" y="232" on="1"/>
        <pt x="132" y="232" on="0"/>
        <pt x="91" y="248" on="0"/>
        <pt x="60" y="280" on="0"/>
        <pt x="42" y="325" on="0"/>
        <pt x="42" y="355" on="1"/>
        <pt x="42" y="392" on="0"/>
        <pt x="68" y="451" on="0"/>
        <pt x="114" y="492" on="0"/>
        <pt x="176" y="514" on="0"/>
        <pt x="212" y="514" on="1"/>
        <pt x="269" y="514" on="0"/>
        <pt x="343" y="459" on="0"/>
        <pt x="359" y="418" on="1"/>
        <pt x="368" y="447" on="0"/>
        <pt x="417" y="491" on="0"/>
        <pt x="455" y="500" on="1"/>
        <pt x="437" y="522" on="0"/>
        <pt x="415" y="581" on="0"/>
        <pt x="415" y="611" on="1"/>
        <pt x="415" y="655" on="0"/>
        <pt x="449" y="724" on="0"/>
        <pt x="508" y="772" on="0"/>
        <pt x="588" y="797" on="0"/>
      </contour>
      <contour>
        <pt x="326" y="137" on="1"/>
        <pt x="343" y="153" on="0"/>
        <pt x="364" y="170" on="0"/>
        <pt x="375" y="177" on="1"/>
        <pt x="195" y="151" on="1"/>
        <pt x="139" y="143" on="0"/>
        <pt x="139" y="99" on="1"/>
        <pt x="139" y="79" on="0"/>
        <pt x="166" y="56" on="0"/>
        <pt x="189" y="56" on="1"/>
        <pt x="212" y="56" on="0"/>
        <pt x="255" y="78" on="0"/>
        <pt x="276" y="95" on="1"/>
      </contour>
      <contour>
        <pt x="726" y="673" on="1"/>
        <pt x="726" y="695" on="0"/>
        <pt x="696" y="724" on="0"/>
        <pt x="674" y="726" on="1"/>
        <pt x="658" y="719" on="0"/>
        <pt x="640" y="691" on="0"/>
        <pt x="640" y="673" on="1"/>
        <pt x="640" y="653" on="0"/>
        <pt x="665" y="629" on="0"/>
        <pt x="684" y="629" on="1"/>
        <pt x="701" y="629" on="0"/>
        <pt x="726" y="653" on="0"/>
      </contour>
      <contour>
        <pt x="153" y="367" on="1"/>
        <pt x="139" y="367" on="0"/>
        <pt x="121" y="353" on="0"/>
        <pt x="114" y="342" on="1"/>
        <pt x="114" y="341" on="1"/>
        <pt x="115" y="318" on="0"/>
        <pt x="138" y="292" on="0"/>
        <pt x="155" y="292" on="1"/>
        <pt x="171" y="292" on="0"/>
        <pt x="190" y="313" on="0"/>
        <pt x="190" y="329" on="1"/>
        <pt x="190" y="346" on="0"/>
        <pt x="170" y="367" on="0"/>
      </contour>
    </TTGlyph>
    <TTGlyph name="JaAltMatraU.tm" xMin="42" yMin="-17" xMax="1014" yMax="514">
      <contour>
        <pt x="212" y="514" on="1"/>
        <pt x="269" y="514" on="0"/>
        <pt x="343" y="459" on="0"/>
        <pt x="359" y="418" on="1"/>
        <pt x="371" y="453" on="0"/>
        <pt x="441" y="501" on="0"/>
        <pt x="498" y="501" on="1"/>
        <pt x="828" y="501" on="1"/>
        <pt x="917" y="501" on="0"/>
        <pt x="1014" y="426" on="0"/>
        <pt x="1014" y="362" on="1"/>
        <pt x="1014" y="307" on="0"/>
        <pt x="939" y="235" on="0"/>
        <pt x="876" y="235" on="1"/>
        <pt x="846" y="235" on="0"/>
        <pt x="796" y="253" on="0"/>
        <pt x="761" y="284" on="0"/>
        <pt x="741" y="327" on="0"/>
        <pt x="741" y="352" on="1"/>
        <pt x="741" y="397" on="0"/>
        <pt x="769" y="425" on="1"/>
        <pt x="628" y="425" on="1"/>
        <pt x="637" y="410" on="0"/>
        <pt x="648" y="376" on="0"/>
        <pt x="648" y="356" on="1"/>
        <pt x="648" y="308" on="0"/>
        <pt x="594" y="238" on="0"/>
        <pt x="552" y="223" on="1"/>
        <pt x="597" y="215" on="0"/>
        <pt x="653" y="155" on="0"/>
        <pt x="653" y="108" on="1"/>
        <pt x="653" y="51" on="0"/>
        <pt x="573" y="-17" on="0"/>
        <pt x="504" y="-17" on="1"/>
        <pt x="467" y="-17" on="0"/>
        <pt x="407" y="13" on="0"/>
        <pt x="387" y="39" on="1"/>
        <pt x="438" y="93" on="1"/>
        <pt x="451" y="77" on="0"/>
        <pt x="483" y="59" on="0"/>
        <pt x="504" y="59" on="1"/>
        <pt x="530" y="59" on="0"/>
        <pt x="563" y="92" on="0"/>
        <pt x="563" y="120" on="1"/>
        <pt x="563" y="148" on="0"/>
        <pt x="530" y="180" on="0"/>
        <pt x="501" y="180" on="1"/>
        <pt x="480" y="180" on="0"/>
        <pt x="443" y="158" on="0"/>
        <pt x="420" y="135" on="1"/>
        <pt x="350" y="64" on="1"/>
        <pt x="334" y="48" on="0"/>
        <pt x="299" y="19" on="0"/>
        <pt x="259" y="-4" on="0"/>
        <pt x="212" y="-17" on="0"/>
        <pt x="185" y="-17" on="1"/>
        <pt x="124" y="-17" on="0"/>
        <pt x="49" y="44" on="0"/>
        <pt x="49" y="95" on="1"/>
        <pt x="49" y="149" on="0"/>
        <pt x="118" y="211" on="0"/>
        <pt x="184" y="217" on="1"/>
        <pt x="406" y="238" on="1"/>
        <pt x="482" y="245" on="0"/>
        <pt x="555" y="309" on="0"/>
        <pt x="555" y="354" on="1"/>
        <pt x="555" y="390" on="0"/>
        <pt x="517" y="432" on="0"/>
        <pt x="483" y="432" on="1"/>
        <pt x="447" y="432" on="0"/>
        <pt x="407" y="384" on="0"/>
        <pt x="407" y="342" on="1"/>
        <pt x="407" y="277" on="1"/>
        <pt x="316" y="277" on="1"/>
        <pt x="316" y="336" on="1"/>
        <pt x="316" y="386" on="0"/>
        <pt x="258" y="445" on="0"/>
        <pt x="208" y="445" on="1"/>
        <pt x="178" y="445" on="0"/>
        <pt x="131" y="421" on="0"/>
        <pt x="120" y="399" on="1"/>
        <pt x="142" y="418" on="0"/>
        <pt x="174" y="418" on="1"/>
        <pt x="212" y="418" on="0"/>
        <pt x="262" y="372" on="0"/>
        <pt x="262" y="330" on="1"/>
        <pt x="262" y="283" on="0"/>
        <pt x="199" y="232" on="0"/>
        <pt x="155" y="232" on="1"/>
        <pt x="132" y="232" on="0"/>
        <pt x="91" y="248" on="0"/>
        <pt x="60" y="280" on="0"/>
        <pt x="42" y="325" on="0"/>
        <pt x="42" y="355" on="1"/>
        <pt x="42" y="392" on="0"/>
        <pt x="68" y="451" on="0"/>
        <pt x="114" y="492" on="0"/>
        <pt x="176" y="514" on="0"/>
      </contour>
      <contour>
        <pt x="326" y="137" on="1"/>
        <pt x="343" y="153" on="0"/>
        <pt x="364" y="170" on="0"/>
        <pt x="375" y="177" on="1"/>
        <pt x="195" y="151" on="1"/>
        <pt x="139" y="143" on="0"/>
        <pt x="139" y="99" on="1"/>
        <pt x="139" y="79" on="0"/>
        <pt x="166" y="56" on="0"/>
        <pt x="189" y="56" on="1"/>
        <pt x="212" y="56" on="0"/>
        <pt x="255" y="78" on="0"/>
        <pt x="276" y="95" on="1"/>
      </contour>
      <contour>
        <pt x="862" y="421" on="1"/>
        <pt x="845" y="412" on="0"/>
        <pt x="827" y="379" on="0"/>
        <pt x="827" y="361" on="1"/>
        <pt x="827" y="338" on="0"/>
        <pt x="855" y="311" on="0"/>
        <pt x="878" y="311" on="1"/>
        <pt x="898" y="311" on="0"/>
        <pt x="926" y="339" on="0"/>
        <pt x="926" y="362" on="1"/>
        <pt x="926" y="389" on="0"/>
        <pt x="890" y="419" on="0"/>
        <pt x="864" y="421" on="1"/>
      </contour>
      <contour>
        <pt x="153" y="367" on="1"/>
        <pt x="139" y="367" on="0"/>
        <pt x="121" y="353" on="0"/>
        <pt x="114" y="342" on="1"/>
        <pt x="114" y="341" on="1"/>
        <pt x="115" y="318" on="0"/>
        <pt x="138" y="292" on="0"/>
        <pt x="155" y="292" on="1"/>
        <pt x="171" y="292" on="0"/>
        <pt x="190" y="313" on="0"/>
        <pt x="190" y="329" on="1"/>
        <pt x="190" y="346" on="0"/>
        <pt x="170" y="367" on="0"/>
      </contour>
    </TTGlyph>
    <TTGlyph name="JaAltMatraUu.tm" xMin="42" yMin="-17" xMax="1202" yMax="629">
      <contour>
        <pt x="960" y="629" on="1"/>
        <pt x="1014" y="629" on="0"/>
        <pt x="1104" y="596" on="0"/>
        <pt x="1167" y="535" on="0"/>
        <pt x="1202" y="450" on="0"/>
        <pt x="1202" y="398" on="1"/>
        <pt x="1202" y="352" on="0"/>
        <pt x="1177" y="275" on="0"/>
        <pt x="1134" y="213" on="0"/>
        <pt x="1077" y="165" on="0"/>
        <pt x="1046" y="149" on="1"/>
        <pt x="992" y="222" on="1"/>
        <pt x="1038" y="248" on="0"/>
        <pt x="1100" y="336" on="0"/>
        <pt x="1100" y="398" on="1"/>
        <pt x="1100" y="467" on="0"/>
        <pt x="1025" y="549" on="0"/>
        <pt x="956" y="549" on="1"/>
        <pt x="918" y="549" on="0"/>
        <pt x="856" y="519" on="0"/>
        <pt x="839" y="495" on="1"/>
        <pt x="914" y="493" on="0"/>
        <pt x="991" y="422" on="0"/>
        <pt x="991" y="370" on="1"/>
        <pt x="991" y="345" on="0"/>
        <pt x="971" y="301" on="0"/>
        <pt x="936" y="269" on="0"/>
        <pt x="887" y="250" on="0"/>
        <pt x="858" y="250" on="1"/>
        <pt x="825" y="250" on="0"/>
        <pt x="775" y="272" on="0"/>
        <pt x="740" y="310" on="0"/>
        <pt x="722" y="359" on="0"/>
        <pt x="722" y="385" on="1"/>
        <pt x="722" y="406" on="0"/>
        <pt x="725" y="426" on="1"/>
        <pt x="614" y="426" on="1"/>
        <pt x="623" y="411" on="0"/>
        <pt x="634" y="375" on="0"/>
        <pt x="634" y="353" on="1"/>
        <pt x="634" y="307" on="0"/>
        <pt x="582" y="237" on="0"/>
        <pt x="543" y="223" on="1"/>
        <pt x="587" y="215" on="0"/>
        <pt x="640" y="155" on="0"/>
        <pt x="640" y="108" on="1"/>
        <pt x="640" y="51" on="0"/>
        <pt x="562" y="-17" on="0"/>
        <pt x="495" y="-17" on="1"/>
        <pt x="459" y="-17" on="0"/>
        <pt x="400" y="12" on="0"/>
        <pt x="380" y="37" on="1"/>
        <pt x="431" y="90" on="1"/>
        <pt x="444" y="76" on="0"/>
        <pt x="475" y="59" on="0"/>
        <pt x="495" y="59" on="1"/>
        <pt x="520" y="59" on="0"/>
        <pt x="550" y="92" on="0"/>
        <pt x="550" y="120" on="1"/>
        <pt x="550" y="148" on="0"/>
        <pt x="519" y="181" on="0"/>
        <pt x="493" y="181" on="1"/>
        <pt x="473" y="181" on="0"/>
        <pt x="437" y="159" on="0"/>
        <pt x="415" y="136" on="1"/>
        <pt x="346" y="63" on="1"/>
        <pt x="315" y="31" on="0"/>
        <pt x="237" y="-17" on="0"/>
        <pt x="183" y="-17" on="1"/>
        <pt x="123" y="-17" on="0"/>
        <pt x="49" y="44" on="0"/>
        <pt x="49" y="95" on="1"/>
        <pt x="49" y="149" on="0"/>
        <pt x="118" y="211" on="0"/>
        <pt x="184" y="217" on="1"/>
        <pt x="401" y="237" on="1"/>
        <pt x="473" y="244" on="0"/>
        <pt x="541" y="308" on="0"/>
        <pt x="541" y="353" on="1"/>
        <pt x="541" y="390" on="0"/>
        <pt x="506" y="432" on="0"/>
        <pt x="474" y="432" on="1"/>
        <pt x="440" y="432" on="0"/>
        <pt x="402" y="386" on="0"/>
        <pt x="402" y="345" on="1"/>
        <pt x="402" y="277" on="1"/>
        <pt x="311" y="277" on="1"/>
        <pt x="311" y="338" on="1"/>
        <pt x="311" y="387" on="0"/>
        <pt x="255" y="445" on="0"/>
        <pt x="206" y="445" on="1"/>
        <pt x="176" y="445" on="0"/>
        <pt x="131" y="421" on="0"/>
        <pt x="120" y="399" on="1"/>
        <pt x="142" y="418" on="0"/>
        <pt x="174" y="418" on="1"/>
        <pt x="212" y="418" on="0"/>
        <pt x="262" y="372" on="0"/>
        <pt x="262" y="330" on="1"/>
        <pt x="262" y="283" on="0"/>
        <pt x="199" y="232" on="0"/>
        <pt x="155" y="232" on="1"/>
        <pt x="132" y="232" on="0"/>
        <pt x="91" y="248" on="0"/>
        <pt x="60" y="280" on="0"/>
        <pt x="42" y="325" on="0"/>
        <pt x="42" y="355" on="1"/>
        <pt x="42" y="392" on="0"/>
        <pt x="68" y="451" on="0"/>
        <pt x="113" y="492" on="0"/>
        <pt x="174" y="514" on="0"/>
        <pt x="209" y="514" on="1"/>
        <pt x="266" y="514" on="0"/>
        <pt x="339" y="459" on="0"/>
        <pt x="355" y="418" on="1"/>
        <pt x="366" y="453" on="0"/>
        <pt x="435" y="501" on="0"/>
        <pt x="489" y="501" on="1"/>
        <pt x="748" y="501" on="1"/>
        <pt x="761" y="527" on="0"/>
        <pt x="802" y="574" on="0"/>
        <pt x="856" y="609" on="0"/>
        <pt x="922" y="629" on="0"/>
      </contour>
      <contour>
        <pt x="321" y="137" on="1"/>
        <pt x="338" y="153" on="0"/>
        <pt x="360" y="170" on="0"/>
        <pt x="371" y="177" on="1"/>
        <pt x="195" y="152" on="1"/>
        <pt x="138" y="143" on="0"/>
        <pt x="138" y="98" on="1"/>
        <pt x="138" y="78" on="0"/>
        <pt x="165" y="56" on="0"/>
        <pt x="188" y="56" on="1"/>
        <pt x="210" y="56" on="0"/>
        <pt x="251" y="77" on="0"/>
        <pt x="272" y="95" on="1"/>
      </contour>
      <contour>
        <pt x="816" y="422" on="1"/>
        <pt x="811" y="404" on="0"/>
        <pt x="811" y="387" on="1"/>
        <pt x="811" y="360" on="0"/>
        <pt x="837" y="327" on="0"/>
        <pt x="861" y="327" on="1"/>
        <pt x="881" y="327" on="0"/>
        <pt x="904" y="351" on="0"/>
        <pt x="904" y="370" on="1"/>
        <pt x="904" y="396" on="0"/>
        <pt x="865" y="422" on="0"/>
        <pt x="830" y="422" on="1"/>
      </contour>
      <contour>
        <pt x="153" y="367" on="1"/>
        <pt x="139" y="367" on="0"/>
        <pt x="121" y="353" on="0"/>
        <pt x="114" y="342" on="1"/>
        <pt x="114" y="341" on="1"/>
        <pt x="115" y="318" on="0"/>
        <pt x="138" y="292" on="0"/>
        <pt x="155" y="292" on="1"/>
        <pt x="171" y="292" on="0"/>
        <pt x="190" y="313" on="0"/>
        <pt x="190" y="329" on="1"/>
        <pt x="190" y="346" on="0"/>
        <pt x="170" y="367" on="0"/>
      </contour>
    </TTGlyph>
    <TTGlyph name="JaAltPulli.tm" xMin="42" yMin="-17" xMax="653" yMax="714">
      <contour>
        <pt x="212" y="514" on="1"/>
        <pt x="269" y="514" on="0"/>
        <pt x="343" y="459" on="0"/>
        <pt x="359" y="418" on="1"/>
        <pt x="371" y="459" on="0"/>
        <pt x="441" y="514" on="0"/>
        <pt x="498" y="514" on="1"/>
        <pt x="566" y="514" on="0"/>
        <pt x="648" y="435" on="0"/>
        <pt x="648" y="370" on="1"/>
        <pt x="648" y="316" on="0"/>
        <pt x="594" y="240" on="0"/>
        <pt x="552" y="223" on="1"/>
        <pt x="597" y="215" on="0"/>
        <pt x="653" y="155" on="0"/>
        <pt x="653" y="108" on="1"/>
        <pt x="653" y="51" on="0"/>
        <pt x="573" y="-17" on="0"/>
        <pt x="504" y="-17" on="1"/>
        <pt x="467" y="-17" on="0"/>
        <pt x="407" y="13" on="0"/>
        <pt x="387" y="39" on="1"/>
        <pt x="438" y="93" on="1"/>
        <pt x="451" y="77" on="0"/>
        <pt x="483" y="59" on="0"/>
        <pt x="504" y="59" on="1"/>
        <pt x="530" y="59" on="0"/>
        <pt x="563" y="92" on="0"/>
        <pt x="563" y="120" on="1"/>
        <pt x="563" y="148" on="0"/>
        <pt x="530" y="180" on="0"/>
        <pt x="501" y="180" on="1"/>
        <pt x="480" y="180" on="0"/>
        <pt x="443" y="158" on="0"/>
        <pt x="420" y="135" on="1"/>
        <pt x="350" y="64" on="1"/>
        <pt x="334" y="48" on="0"/>
        <pt x="299" y="19" on="0"/>
        <pt x="259" y="-4" on="0"/>
        <pt x="212" y="-17" on="0"/>
        <pt x="185" y="-17" on="1"/>
        <pt x="124" y="-17" on="0"/>
        <pt x="49" y="44" on="0"/>
        <pt x="49" y="95" on="1"/>
        <pt x="49" y="149" on="0"/>
        <pt x="118" y="211" on="0"/>
        <pt x="184" y="217" on="1"/>
        <pt x="406" y="238" on="1"/>
        <pt x="482" y="245" on="0"/>
        <pt x="554" y="309" on="0"/>
        <pt x="554" y="354" on="1"/>
        <pt x="554" y="392" on="0"/>
        <pt x="516" y="434" on="0"/>
        <pt x="483" y="434" on="1"/>
        <pt x="447" y="434" on="0"/>
        <pt x="407" y="386" on="0"/>
        <pt x="407" y="343" on="1"/>
        <pt x="407" y="277" on="1"/>
        <pt x="316" y="277" on="1"/>
        <pt x="316" y="336" on="1"/>
        <pt x="316" y="386" on="0"/>
        <pt x="258" y="445" on="0"/>
        <pt x="208" y="445" on="1"/>
        <pt x="178" y="445" on="0"/>
        <pt x="131" y="421" on="0"/>
        <pt x="120" y="399" on="1"/>
        <pt x="142" y="418" on="0"/>
        <pt x="174" y="418" on="1"/>
        <pt x="212" y="418" on="0"/>
        <pt x="262" y="372" on="0"/>
        <pt x="262" y="330" on="1"/>
        <pt x="262" y="283" on="0"/>
        <pt x="199" y="232" on="0"/>
        <pt x="155" y="232" on="1"/>
        <pt x="132" y="232" on="0"/>
        <pt x="91" y="248" on="0"/>
        <pt x="60" y="280" on="0"/>
        <pt x="42" y="325" on="0"/>
        <pt x="42" y="355" on="1"/>
        <pt x="42" y="392" on="0"/>
        <pt x="68" y="451" on="0"/>
        <pt x="114" y="492" on="0"/>
        <pt x="176" y="514" on="0"/>
      </contour>
      <contour>
        <pt x="326" y="137" on="1"/>
        <pt x="343" y="153" on="0"/>
        <pt x="364" y="170" on="0"/>
        <pt x="375" y="177" on="1"/>
        <pt x="195" y="151" on="1"/>
        <pt x="139" y="143" on="0"/>
        <pt x="139" y="99" on="1"/>
        <pt x="139" y="79" on="0"/>
        <pt x="166" y="56" on="0"/>
        <pt x="189" y="56" on="1"/>
        <pt x="212" y="56" on="0"/>
        <pt x="255" y="78" on="0"/>
        <pt x="276" y="95" on="1"/>
      </contour>
      <contour>
        <pt x="340" y="714" on="1"/>
        <pt x="370" y="714" on="0"/>
        <pt x="409" y="676" on="0"/>
        <pt x="409" y="647" on="1"/>
        <pt x="409" y="618" on="0"/>
        <pt x="371" y="580" on="0"/>
        <pt x="342" y="580" on="1"/>
        <pt x="312" y="580" on="0"/>
        <pt x="274" y="618" on="0"/>
        <pt x="274" y="647" on="1"/>
        <pt x="274" y="676" on="0"/>
        <pt x="311" y="714" on="0"/>
      </contour>
      <contour>
        <pt x="153" y="367" on="1"/>
        <pt x="139" y="367" on="0"/>
        <pt x="121" y="353" on="0"/>
        <pt x="114" y="342" on="1"/>
        <pt x="114" y="341" on="1"/>
        <pt x="115" y="318" on="0"/>
        <pt x="138" y="292" on="0"/>
        <pt x="155" y="292" on="1"/>
        <pt x="171" y="292" on="0"/>
        <pt x="190" y="313" on="0"/>
        <pt x="190" y="329" on="1"/>
        <pt x="190" y="346" on="0"/>
        <pt x="170" y="367" on="0"/>
      </contour>
    </TTGlyph>
    <TTGlyph name="JaMatraI.tm" xMin="38" yMin="-284" xMax="1008" yMax="754">
      <contour>
        <pt x="795" y="754" on="1"/>
        <pt x="894" y="754" on="0"/>
        <pt x="1008" y="643" on="0"/>
        <pt x="1008" y="542" on="1"/>
        <pt x="1008" y="0" on="1"/>
        <pt x="900" y="0" on="1"/>
        <pt x="900" y="536" on="1"/>
        <pt x="900" y="663" on="0"/>
        <pt x="791" y="663" on="1"/>
        <pt x="743" y="663" on="0"/>
        <pt x="694" y="613" on="0"/>
        <pt x="694" y="571" on="1"/>
        <pt x="694" y="537" on="0"/>
        <pt x="725" y="474" on="0"/>
        <pt x="753" y="435" on="1"/>
        <pt x="774" y="406" on="0"/>
        <pt x="798" y="347" on="0"/>
        <pt x="798" y="314" on="1"/>
        <pt x="798" y="259" on="0"/>
        <pt x="758" y="179" on="0"/>
        <pt x="686" y="121" on="0"/>
        <pt x="589" y="83" on="0"/>
        <pt x="532" y="71" on="1"/>
        <pt x="295" y="19" on="1"/>
        <pt x="232" y="5" on="0"/>
        <pt x="164" y="-55" on="0"/>
        <pt x="164" y="-105" on="1"/>
        <pt x="164" y="-146" on="0"/>
        <pt x="213" y="-192" on="0"/>
        <pt x="249" y="-192" on="1"/>
        <pt x="282" y="-192" on="0"/>
        <pt x="338" y="-160" on="0"/>
        <pt x="370" y="-125" on="1"/>
        <pt x="427" y="-65" on="1"/>
        <pt x="475" y="-14" on="0"/>
        <pt x="572" y="46" on="0"/>
        <pt x="633" y="46" on="1"/>
        <pt x="671" y="46" on="0"/>
        <pt x="734" y="22" on="0"/>
        <pt x="779" y="-23" on="0"/>
        <pt x="804" y="-85" on="0"/>
        <pt x="804" y="-122" on="1"/>
        <pt x="804" y="-159" on="0"/>
        <pt x="778" y="-219" on="0"/>
        <pt x="732" y="-261" on="0"/>
        <pt x="669" y="-284" on="0"/>
        <pt x="632" y="-284" on="1"/>
        <pt x="585" y="-284" on="0"/>
        <pt x="518" y="-245" on="0"/>
        <pt x="500" y="-223" on="1"/>
        <pt x="559" y="-160" on="1"/>
        <pt x="569" y="-171" on="0"/>
        <pt x="603" y="-194" on="0"/>
        <pt x="627" y="-194" on="1"/>
        <pt x="658" y="-194" on="0"/>
        <pt x="696" y="-153" on="0"/>
        <pt x="696" y="-120" on="1"/>
        <pt x="696" y="-85" on="0"/>
        <pt x="656" y="-45" on="0"/>
        <pt x="624" y="-45" on="1"/>
        <pt x="595" y="-45" on="0"/>
        <pt x="544" y="-79" on="0"/>
        <pt x="509" y="-119" on="1"/>
        <pt x="451" y="-185" on="1"/>
        <pt x="409" y="-233" on="0"/>
        <pt x="312" y="-284" on="0"/>
        <pt x="246" y="-284" on="1"/>
        <pt x="206" y="-284" on="0"/>
        <pt x="136" y="-259" on="0"/>
        <pt x="84" y="-213" on="0"/>
        <pt x="54" y="-147" on="0"/>
        <pt x="54" y="-106" on="1"/>
        <pt x="54" y="-58" on="0"/>
        <pt x="85" y="12" on="0"/>
        <pt x="143" y="63" on="0"/>
        <pt x="227" y="98" on="0"/>
        <pt x="280" y="110" on="1"/>
        <pt x="528" y="167" on="1"/>
        <pt x="605" y="185" on="0"/>
        <pt x="687" y="255" on="0"/>
        <pt x="687" y="314" on="1"/>
        <pt x="687" y="359" on="0"/>
        <pt x="636" y="416" on="0"/>
        <pt x="593" y="416" on="1"/>
        <pt x="550" y="416" on="0"/>
        <pt x="495" y="352" on="0"/>
        <pt x="495" y="289" on="1"/>
        <pt x="495" y="212" on="1"/>
        <pt x="387" y="212" on="1"/>
        <pt x="387" y="275" on="1"/>
        <pt x="387" y="341" on="0"/>
        <pt x="312" y="424" on="0"/>
        <pt x="246" y="424" on="1"/>
        <pt x="207" y="424" on="0"/>
        <pt x="142" y="386" on="0"/>
        <pt x="132" y="346" on="1"/>
        <pt x="146" y="360" on="0"/>
        <pt x="185" y="378" on="0"/>
        <pt x="208" y="378" on="1"/>
        <pt x="232" y="378" on="0"/>
        <pt x="276" y="362" on="0"/>
        <pt x="309" y="332" on="0"/>
        <pt x="329" y="288" on="0"/>
        <pt x="329" y="260" on="1"/>
        <pt x="329" y="230" on="0"/>
        <pt x="306" y="182" on="0"/>
        <pt x="267" y="149" on="0"/>
        <pt x="215" y="131" on="0"/>
        <pt x="186" y="131" on="1"/>
        <pt x="156" y="131" on="0"/>
        <pt x="102" y="153" on="0"/>
        <pt x="62" y="197" on="0"/>
        <pt x="38" y="259" on="0"/>
        <pt x="38" y="300" on="1"/>
        <pt x="38" y="349" on="0"/>
        <pt x="70" y="426" on="0"/>
        <pt x="127" y="480" on="0"/>
        <pt x="204" y="509" on="0"/>
        <pt x="248" y="509" on="1"/>
        <pt x="285" y="509" on="0"/>
        <pt x="347" y="489" on="0"/>
        <pt x="395" y="454" on="0"/>
        <pt x="430" y="408" on="0"/>
        <pt x="440" y="382" on="1"/>
        <pt x="451" y="434" on="0"/>
        <pt x="536" y="505" on="0"/>
        <pt x="605" y="505" on="1"/>
        <pt x="608" y="505" on="1"/>
        <pt x="588" y="539" on="0"/>
        <pt x="588" y="582" on="1"/>
        <pt x="588" y="618" on="0"/>
        <pt x="616" y="681" on="0"/>
        <pt x="669" y="728" on="0"/>
        <pt x="746" y="754" on="0"/>
      </contour>
      <contour>
        <pt x="186" y="312" on="1"/>
        <pt x="167" y="312" on="0"/>
        <pt x="139" y="290" on="0"/>
        <pt x="130" y="273" on="1"/>
        <pt x="132" y="239" on="0"/>
        <pt x="165" y="207" on="0"/>
        <pt x="188" y="207" on="1"/>
        <pt x="210" y="207" on="0"/>
        <pt x="238" y="236" on="0"/>
        <pt x="238" y="259" on="1"/>
        <pt x="238" y="284" on="0"/>
        <pt x="209" y="312" on="0"/>
      </contour>
    </TTGlyph>
</ttFont>
